<svg width="24" height="25" viewBox="0 0 24 25" fill="none" xmlns="http://www.w3.org/2000/svg">
<path d="M3 10.166H21M9 5.16602H6.2C5.0799 5.16602 4.51984 5.16602 4.09202 5.384C3.71569 5.57575 3.40973 5.88171 3.21799 6.25803C3 6.68586 3 7.24591 3 8.36602V17.966C3 19.0861 3 19.6462 3.21799 20.074C3.40973 20.4503 3.71569 20.7563 4.09202 20.948C4.51984 21.166 5.0799 21.166 6.2 21.166H17.8C18.9201 21.166 19.4802 21.166 19.908 20.948C20.2843 20.7563 20.5903 20.4503 20.782 20.074C21 19.6462 21 19.0861 21 17.966V8.36602C21 7.24591 21 6.68586 20.782 6.25803C20.5903 5.88171 20.2843 5.57575 19.908 5.384C19.4802 5.16602 18.9201 5.16602 17.8 5.16602H15M9 5.16602H15M9 5.16602V4.66602C9 3.83759 8.32843 3.16602 7.5 3.16602C6.67157 3.16602 6 3.83759 6 4.66602V5.16602M15 5.16602V4.66602C15 3.83759 15.6716 3.16602 16.5 3.16602C17.3284 3.16602 18 3.83759 18 4.66602V5.16602" stroke="#272D37" stroke-width="1.67" stroke-linecap="round"/>
</svg>
