<svg width="25" height="24" viewBox="0 0 25 24" fill="none" xmlns="http://www.w3.org/2000/svg">
<path d="M3.5 10H21.5M9.5 5H6.7C5.5799 5 5.01984 5 4.59202 5.21799C4.21569 5.40973 3.90973 5.71569 3.71799 6.09202C3.5 6.51984 3.5 7.0799 3.5 8.2V17.8C3.5 18.9201 3.5 19.4802 3.71799 19.908C3.90973 20.2843 4.21569 20.5903 4.59202 20.782C5.01984 21 5.5799 21 6.7 21H18.3C19.4201 21 19.9802 21 20.408 20.782C20.7843 20.5903 21.0903 20.2843 21.282 19.908C21.5 19.4802 21.5 18.9201 21.5 17.8V8.2C21.5 7.0799 21.5 6.51984 21.282 6.09202C21.0903 5.71569 20.7843 5.40973 20.408 5.21799C19.9802 5 19.4201 5 18.3 5H15.5M9.5 5H15.5M9.5 5V4.5C9.5 3.67157 8.82843 3 8 3C7.17157 3 6.5 3.67157 6.5 4.5V5M15.5 5V4.5C15.5 3.67157 16.1716 3 17 3C17.8284 3 18.5 3.67157 18.5 4.5V5" stroke="#272D37" stroke-width="1.67" stroke-linecap="round"/>
</svg>
