<svg width="135" height="40" viewBox="0 0 135 40" fill="none" xmlns="http://www.w3.org/2000/svg">
<g clip-path="url(#clip0_0_10267)">
<path d="M129.001 39.7959H3.9995C1.25 39.7959 -1 37.5702 -1 34.8495V5.15312C-1 2.43152 1.25 0.203125 3.9995 0.203125H129.001C131.746 0.203125 134 2.43152 134 5.15312V34.8495C134 37.5702 131.75 39.7959 129.001 39.7959Z" fill="black"/>
<path d="M129.001 0.995125C131.314 0.995125 133.198 2.86172 133.198 5.15312V34.8504C133.198 37.1391 131.314 39.0057 129.001 39.0057H3.9995C1.682 39.0057 -0.199 37.1427 -0.199 34.8504V5.15403C-0.199 2.86173 1.6856 0.995125 3.9995 0.995125H129.001ZM129.001 0.203125H3.9995C1.25 0.204025 -1 2.43243 -1 5.15403V34.8504C-1 37.5711 1.25 39.8004 3.9995 39.8004H129.001C131.746 39.8004 134 37.5711 134 34.8504V5.15403C134 2.43243 131.75 0.204025 129.001 0.204025V0.203125Z" fill="#A6A6A6"/>
<path d="M43.4693 13.2864C42.5873 13.2864 41.8277 12.9804 41.2058 12.3711C40.5866 11.7591 40.2734 10.9968 40.2734 10.1004C40.2734 9.20397 40.5866 8.44077 41.2058 7.83597C41.8241 7.22847 42.5873 6.91797 43.4693 6.91797C43.895 6.91797 44.3198 7.00347 44.732 7.17537C45.1361 7.34727 45.4592 7.57587 45.6986 7.86117L45.7436 7.91697L45.1109 8.54967L45.0551 8.48307C44.6645 8.03307 44.1479 7.81167 43.4693 7.81167C43.1761 7.80838 42.8852 7.86288 42.6131 7.97206C42.341 8.08124 42.0931 8.24295 41.8835 8.44797C41.4407 8.87007 41.2193 9.42537 41.2193 10.1004C41.2193 10.779 41.4407 11.3379 41.8835 11.76C42.3335 12.1821 42.8681 12.3927 43.4693 12.3927C44.1164 12.3927 44.6573 12.1785 45.0866 11.7564C45.3503 11.4927 45.5051 11.1444 45.5573 10.6872H43.3883V9.81237H46.4366L46.451 9.87537C46.4825 10.0194 46.4996 10.167 46.4996 10.3434C46.4996 11.1831 46.2395 11.8725 45.7337 12.3819C45.1496 12.9795 44.3909 13.2855 43.4693 13.2855V13.2864ZM51.1058 13.1487H47.4455V7.05567H51.1058V7.94487H48.377V9.66387H50.8385V10.5396H48.377V12.2586H51.1058V13.1487ZM54.3575 13.1487H53.426V7.94487H51.752V7.05567H56.0342V7.94487H54.3575V13.1487ZM59.7854 13.1487H58.8575V7.05567H59.7854V13.1487ZM63.2054 13.1487H62.282V7.94487H60.6008V7.05567H64.8866V7.94487H63.2063L63.2054 13.1487ZM70.4135 13.2855C69.5171 13.2855 68.7575 12.9759 68.1527 12.3612C67.5515 11.7492 67.2455 10.9896 67.2455 10.104C67.2455 9.21477 67.5515 8.45157 68.1527 7.84317C68.7575 7.23117 69.5171 6.91887 70.4135 6.91887C71.3027 6.91887 72.0587 7.23117 72.6635 7.85037C73.2683 8.46237 73.5734 9.22107 73.5734 10.104C73.5734 10.9896 73.2674 11.7528 72.6671 12.3648C72.0623 12.9768 71.3027 13.2855 70.4135 13.2855ZM68.8349 11.7528C69.2705 12.1848 69.7835 12.3963 70.4135 12.3963C70.7049 12.4018 70.9944 12.3476 71.264 12.2369C71.5337 12.1262 71.7778 11.9615 71.9813 11.7528C72.4097 11.3235 72.6284 10.7682 72.6284 10.1004C72.6284 9.43617 72.4097 8.88087 71.9804 8.45157C71.5592 8.02227 71.0318 7.80807 70.4135 7.80807C69.7871 7.80807 69.2705 8.01867 68.8349 8.45157C68.4092 8.88087 68.1914 9.43617 68.1914 10.1004C68.1914 10.7682 68.4092 11.3244 68.8349 11.7528ZM79.2794 13.1478H78.3515L78.3272 13.11L75.395 8.45877L75.4229 9.36957V13.1487H74.495V7.05567H75.557L78.3758 11.517L78.3488 10.6134V7.05567H79.2794V13.1478ZM67.133 21.7374C64.7885 21.7374 62.8688 23.5059 62.8688 25.9449C62.8688 28.3677 64.7885 30.1569 67.133 30.1569C69.4883 30.1569 71.408 28.3677 71.408 25.9449C71.408 23.5059 69.4883 21.7374 67.133 21.7374ZM67.133 28.4973C65.846 28.4973 64.739 27.4434 64.739 25.9449C64.739 24.4302 65.846 23.3934 67.133 23.3934C68.4236 23.3934 69.5378 24.4302 69.5378 25.9449C69.5378 27.4434 68.4236 28.4973 67.133 28.4973ZM57.8243 21.7374C55.469 21.7374 53.5565 23.5059 53.5565 25.9449C53.5565 28.3677 55.469 30.1569 57.8243 30.1569C60.1769 30.1569 62.093 28.3677 62.093 25.9449C62.093 23.5059 60.176 21.7374 57.8243 21.7374ZM57.8243 28.4973C56.5346 28.4973 55.4231 27.4434 55.4231 25.9449C55.4231 24.4302 56.5346 23.3934 57.8243 23.3934C59.1113 23.3934 60.2219 24.4302 60.2219 25.9449C60.2219 27.4434 59.1113 28.4973 57.8243 28.4973ZM46.7435 23.0271V24.8172H51.0608C50.9348 25.8153 50.5964 26.5497 50.0798 27.0636C49.4498 27.6819 48.4688 28.3677 46.7435 28.3677C44.0885 28.3677 42.0077 26.2473 42.0077 23.6184C42.0077 20.9886 44.0894 18.8646 46.7435 18.8646C48.1817 18.8646 49.2257 19.4199 49.9952 20.1408L51.2714 18.879C50.1914 17.8593 48.7577 17.079 46.7435 17.079C43.1012 17.079 40.043 20.0112 40.043 23.6184C40.043 27.2211 43.1048 30.1569 46.7435 30.1569C48.7118 30.1569 50.1923 29.5179 51.356 28.3182C52.5476 27.141 52.9166 25.4814 52.9166 24.1449C52.9166 23.7273 52.8815 23.3475 52.8221 23.0271H46.7435ZM92.0531 24.4131C91.7012 23.4699 90.6185 21.7374 88.4108 21.7374C86.2202 21.7374 84.3995 23.442 84.3995 25.9449C84.3995 28.3047 86.2031 30.1569 88.6178 30.1569C90.5726 30.1569 91.7012 28.9761 92.162 28.2903L90.713 27.3336C90.2279 28.0338 89.57 28.4973 88.6178 28.4973C87.6728 28.4973 86.9942 28.0689 86.5577 27.2211L92.2457 24.8901C92.2493 24.8901 92.0531 24.4131 92.0531 24.4131ZM86.2517 25.8153C86.2031 24.1908 87.5243 23.361 88.4747 23.361C89.2154 23.361 89.8445 23.7273 90.056 24.2547L86.2517 25.8153ZM81.6293 29.9004H83.4995V17.5254H81.6293V29.9004ZM78.5666 22.6725H78.5036C78.0851 22.1838 77.2832 21.7365 76.268 21.7365C74.1368 21.7365 72.1892 23.586 72.1892 25.9593C72.1892 28.3218 74.1368 30.1569 76.268 30.1569C77.2832 30.1569 78.086 29.7069 78.5036 29.2011H78.5666V29.8023C78.5666 31.4124 77.6981 32.2773 76.2959 32.2773C75.1529 32.2773 74.4464 31.461 74.1512 30.7761L72.5267 31.4475C72.9947 32.5617 74.2358 33.936 76.2959 33.936C78.4892 33.936 80.3387 32.6598 80.3387 29.553V21.993H78.5666V22.6725ZM76.4255 28.4973C75.1385 28.4973 74.0594 27.429 74.0594 25.9593C74.0594 24.4761 75.1394 23.3934 76.4264 23.3934C77.6981 23.3934 78.6971 24.4761 78.6971 25.9593C78.6971 27.429 77.6981 28.4973 76.4255 28.4973ZM100.806 17.5254H96.3344V29.9004H98.2019V25.2114H100.806C102.881 25.2114 104.91 23.7264 104.91 21.3684C104.91 19.0086 102.874 17.5254 100.806 17.5254ZM100.856 23.4915H98.201V19.248H100.856C102.248 19.248 103.043 20.391 103.043 21.3684C103.043 22.3242 102.248 23.4915 100.856 23.4915ZM112.383 21.7122C111.037 21.7122 109.638 22.3035 109.062 23.6076L110.714 24.2934C111.072 23.6076 111.726 23.3826 112.419 23.3826C113.386 23.3826 114.367 23.9586 114.381 24.9756V25.1052C114.043 24.9117 113.322 24.6273 112.433 24.6273C110.651 24.6273 108.836 25.5975 108.836 27.411C108.836 29.0706 110.295 30.1362 111.937 30.1362C113.192 30.1362 113.884 29.5737 114.321 28.923H114.384V29.8797H116.184V25.1331C116.184 22.9398 114.528 21.7122 112.383 21.7122ZM112.158 28.4937C111.546 28.4937 110.7 28.1922 110.7 27.4434C110.7 26.4867 111.758 26.1204 112.676 26.1204C113.498 26.1204 113.882 26.3004 114.38 26.5362C114.236 27.6819 113.237 28.4937 112.158 28.4937ZM122.748 21.9831L120.603 27.348H120.54L118.321 21.984H116.311L119.64 29.4783L117.741 33.6516H119.689L124.818 21.9831H122.748H122.748ZM105.935 29.9004H107.806V17.5254H105.935V29.9004Z" fill="white"/>
<path d="M9.43315 7.66395C9.14155 7.96995 8.96875 8.44065 8.96875 9.05625V30.9479C8.96875 31.5634 9.13795 32.0341 9.43315 32.3401L9.50695 32.4067L21.8999 20.1442V19.8562L9.50605 7.59375L9.43315 7.66395Z" fill="url(#paint0_linear_0_10267)"/>
<path d="M26.0297 24.2366L21.9023 20.1443V19.8563L26.0333 15.7676L26.1251 15.8198L31.0184 18.5765C32.4143 19.3604 32.4143 20.6438 31.0184 21.4313L26.1251 24.1835C26.1251 24.1808 26.0297 24.2366 26.0297 24.2366Z" fill="url(#paint1_linear_0_10267)"/>
<path d="M26.1223 24.1805L21.8995 20L9.43359 32.339C9.89709 32.8214 10.6531 32.8808 11.5144 32.3993L26.1223 24.1805Z" fill="url(#paint2_linear_0_10267)"/>
<path d="M26.1223 15.8204L11.5153 7.60158C10.6531 7.12278 9.89709 7.18308 9.43359 7.66458L21.8995 20.0009L26.1223 15.8204Z" fill="url(#paint3_linear_0_10267)"/>
</g>
<defs>
<linearGradient id="paint0_linear_0_10267" x1="20.8054" y1="31.1744" x2="4.18516" y2="14.3867" gradientUnits="userSpaceOnUse">
<stop stop-color="#00A0FF"/>
<stop offset="0.007" stop-color="#00A1FF"/>
<stop offset="0.26" stop-color="#00BEFF"/>
<stop offset="0.512" stop-color="#00D2FF"/>
<stop offset="0.76" stop-color="#00DFFF"/>
<stop offset="1" stop-color="#00E3FF"/>
</linearGradient>
<linearGradient id="paint1_linear_0_10267" x1="32.8487" y1="19.9918" x2="8.64296" y2="19.9918" gradientUnits="userSpaceOnUse">
<stop stop-color="#FFE000"/>
<stop offset="0.409" stop-color="#FFBD00"/>
<stop offset="0.775" stop-color="#FFA500"/>
<stop offset="1" stop-color="#FF9C00"/>
</linearGradient>
<linearGradient id="paint2_linear_0_10267" x1="15.4876" y1="25.9817" x2="-7.05074" y2="3.21626" gradientUnits="userSpaceOnUse">
<stop stop-color="#FF3A44"/>
<stop offset="1" stop-color="#C31162"/>
</linearGradient>
<linearGradient id="paint3_linear_0_10267" x1="-2.0463" y1="31.3634" x2="8.01809" y2="21.1977" gradientUnits="userSpaceOnUse">
<stop stop-color="#32A071"/>
<stop offset="0.069" stop-color="#2DA771"/>
<stop offset="0.476" stop-color="#15CF74"/>
<stop offset="0.801" stop-color="#06E775"/>
<stop offset="1" stop-color="#00F076"/>
</linearGradient>
<clipPath id="clip0_0_10267">
<rect width="135" height="40" fill="white"/>
</clipPath>
</defs>
</svg>
