<svg width="135" height="41" viewBox="0 0 135 41" fill="none" xmlns="http://www.w3.org/2000/svg">
<g clip-path="url(#clip0_0_9959)">
<path d="M130.001 39.9624H4.9995C2.25 39.9624 0 37.7367 0 35.016V5.31963C0 2.59803 2.25 0.369629 4.9995 0.369629H130.001C132.746 0.369629 135 2.59803 135 5.31963V35.016C135 37.7367 132.75 39.9624 130.001 39.9624Z" fill="black"/>
<path d="M130.001 1.16065C132.314 1.16065 134.198 3.02725 134.198 5.31865V35.016C134.198 37.3047 132.314 39.1713 130.001 39.1713H4.9995C2.682 39.1713 0.801 37.3083 0.801 35.016V5.31955C0.801 3.02725 2.6856 1.16065 4.9995 1.16065H130.001ZM130.001 0.368652H4.9995C2.25 0.369552 0 2.59795 0 5.31955V35.016C0 37.7367 2.25 39.966 4.9995 39.966H130.001C132.746 39.966 135 37.7367 135 35.016V5.31955C135 2.59795 132.75 0.369552 130.001 0.369552V0.368652Z" fill="#A6A6A6"/>
<path d="M44.469 13.4519C43.587 13.4519 42.8274 13.1459 42.2055 12.5366C41.5863 11.9246 41.2731 11.1623 41.2731 10.2659C41.2731 9.3695 41.5863 8.6063 42.2055 8.0015C42.8238 7.394 43.587 7.0835 44.469 7.0835C44.8947 7.0835 45.3195 7.169 45.7317 7.3409C46.1358 7.5128 46.4589 7.7414 46.6983 8.0267L46.7433 8.0825L46.1106 8.7152L46.0548 8.6486C45.6642 8.1986 45.1476 7.9772 44.469 7.9772C44.1759 7.97391 43.8849 8.02841 43.6128 8.13759C43.3407 8.24677 43.0928 8.40848 42.8832 8.6135C42.4404 9.0356 42.219 9.5909 42.219 10.2659C42.219 10.9445 42.4404 11.5034 42.8832 11.9255C43.3332 12.3476 43.8678 12.5582 44.469 12.5582C45.1161 12.5582 45.657 12.344 46.0863 11.9219C46.35 11.6582 46.5048 11.3099 46.557 10.8527H44.388V9.9779H47.4363L47.4507 10.0409C47.4822 10.1849 47.4993 10.3325 47.4993 10.5089C47.4993 11.3486 47.2392 12.038 46.7334 12.5474C46.1493 13.145 45.3906 13.451 44.469 13.451V13.4519ZM52.1055 13.3142H48.4452V7.2212H52.1055V8.1104H49.3767V9.8294H51.8382V10.7051H49.3767V12.4241H52.1055V13.3142ZM55.3572 13.3142H54.4257V8.1104H52.7517V7.2212H57.0339V8.1104H55.3572V13.3142ZM60.7851 13.3142H59.8572V7.2212H60.7851V13.3142ZM64.2051 13.3142H63.2817V8.1104H61.6005V7.2212H65.8863V8.1104H64.206L64.2051 13.3142ZM71.4132 13.451C70.5168 13.451 69.7572 13.1414 69.1524 12.5267C68.5512 11.9147 68.2452 11.1551 68.2452 10.2695C68.2452 9.3803 68.5512 8.6171 69.1524 8.0087C69.7572 7.3967 70.5168 7.0844 71.4132 7.0844C72.3024 7.0844 73.0584 7.3967 73.6632 8.0159C74.268 8.6279 74.5731 9.3866 74.5731 10.2695C74.5731 11.1551 74.2671 11.9183 73.6668 12.5303C73.062 13.1423 72.3024 13.451 71.4132 13.451ZM69.8346 11.9183C70.2702 12.3503 70.7832 12.5618 71.4132 12.5618C71.7047 12.5673 71.9941 12.5131 72.2638 12.4024C72.5334 12.2918 72.7775 12.127 72.981 11.9183C73.4094 11.489 73.6281 10.9337 73.6281 10.2659C73.6281 9.6017 73.4094 9.0464 72.9801 8.6171C72.5589 8.1878 72.0315 7.9736 71.4132 7.9736C70.7868 7.9736 70.2702 8.1842 69.8346 8.6171C69.4089 9.0464 69.1911 9.6017 69.1911 10.2659C69.1911 10.9337 69.4089 11.4899 69.8346 11.9183ZM80.2791 13.3133H79.3512L79.3269 13.2755L76.3947 8.6243L76.4226 9.5351V13.3142H75.4947V7.2212H76.5567L79.3755 11.6825L79.3485 10.7789V7.2212H80.2791V13.3133ZM68.1327 21.9029C65.7882 21.9029 63.8685 23.6714 63.8685 26.1104C63.8685 28.5332 65.7882 30.3224 68.1327 30.3224C70.488 30.3224 72.4077 28.5332 72.4077 26.1104C72.4077 23.6714 70.488 21.9029 68.1327 21.9029ZM68.1327 28.6628C66.8457 28.6628 65.7387 27.6089 65.7387 26.1104C65.7387 24.5957 66.8457 23.5589 68.1327 23.5589C69.4233 23.5589 70.5375 24.5957 70.5375 26.1104C70.5375 27.6089 69.4233 28.6628 68.1327 28.6628ZM58.824 21.9029C56.4687 21.9029 54.5562 23.6714 54.5562 26.1104C54.5562 28.5332 56.4687 30.3224 58.824 30.3224C61.1766 30.3224 63.0927 28.5332 63.0927 26.1104C63.0927 23.6714 61.1757 21.9029 58.824 21.9029ZM58.824 28.6628C57.5343 28.6628 56.4228 27.6089 56.4228 26.1104C56.4228 24.5957 57.5343 23.5589 58.824 23.5589C60.111 23.5589 61.2216 24.5957 61.2216 26.1104C61.2216 27.6089 60.111 28.6628 58.824 28.6628ZM47.7432 23.1926V24.9827H52.0605C51.9345 25.9808 51.5961 26.7152 51.0795 27.2291C50.4495 27.8474 49.4685 28.5332 47.7432 28.5332C45.0882 28.5332 43.0074 26.4128 43.0074 23.7839C43.0074 21.1541 45.0891 19.0301 47.7432 19.0301C49.1814 19.0301 50.2254 19.5854 50.9949 20.3063L52.2711 19.0445C51.1911 18.0248 49.7574 17.2445 47.7432 17.2445C44.1009 17.2445 41.0427 20.1767 41.0427 23.7839C41.0427 27.3866 44.1045 30.3224 47.7432 30.3224C49.7115 30.3224 51.192 29.6834 52.3557 28.4837C53.5473 27.3065 53.9163 25.6469 53.9163 24.3104C53.9163 23.8928 53.8812 23.513 53.8218 23.1926H47.7432ZM93.0528 24.5786C92.7009 23.6354 91.6182 21.9029 89.4105 21.9029C87.2199 21.9029 85.3992 23.6075 85.3992 26.1104C85.3992 28.4702 87.2028 30.3224 89.6175 30.3224C91.5723 30.3224 92.7009 29.1416 93.1617 28.4558L91.7127 27.4991C91.2276 28.1993 90.5697 28.6628 89.6175 28.6628C88.6725 28.6628 87.9939 28.2344 87.5574 27.3866L93.2454 25.0556C93.249 25.0556 93.0528 24.5786 93.0528 24.5786ZM87.2514 25.9808C87.2028 24.3563 88.524 23.5265 89.4744 23.5265C90.2151 23.5265 90.8442 23.8928 91.0557 24.4202L87.2514 25.9808ZM82.629 30.0659H84.4992V17.6909H82.629V30.0659ZM79.5663 22.838H79.5033C79.0848 22.3493 78.2829 21.902 77.2677 21.902C75.1365 21.902 73.1889 23.7515 73.1889 26.1248C73.1889 28.4873 75.1365 30.3224 77.2677 30.3224C78.2829 30.3224 79.0857 29.8724 79.5033 29.3666H79.5663V29.9678C79.5663 31.5779 78.6978 32.4428 77.2956 32.4428C76.1526 32.4428 75.4461 31.6265 75.1509 30.9416L73.5264 31.613C73.9944 32.7272 75.2355 34.1015 77.2956 34.1015C79.4889 34.1015 81.3384 32.8253 81.3384 29.7185V22.1585H79.5663V22.838ZM77.4252 28.6628C76.1382 28.6628 75.0591 27.5945 75.0591 26.1248C75.0591 24.6416 76.1391 23.5589 77.4261 23.5589C78.6978 23.5589 79.6968 24.6416 79.6968 26.1248C79.6968 27.5945 78.6978 28.6628 77.4252 28.6628ZM101.806 17.6909H97.3341V30.0659H99.2016V25.3769H101.806C103.881 25.3769 105.909 23.8919 105.909 21.5339C105.909 19.1741 103.874 17.6909 101.806 17.6909ZM101.856 23.657H99.2007V19.4135H101.856C103.248 19.4135 104.043 20.5565 104.043 21.5339C104.043 22.4897 103.248 23.657 101.856 23.657ZM113.383 21.8777C112.037 21.8777 110.638 22.469 110.062 23.7731L111.713 24.4589C112.072 23.7731 112.726 23.5481 113.419 23.5481C114.386 23.5481 115.367 24.1241 115.381 25.1411V25.2707C115.043 25.0772 114.322 24.7928 113.432 24.7928C111.65 24.7928 109.836 25.763 109.836 27.5765C109.836 29.2361 111.295 30.3017 112.937 30.3017C114.192 30.3017 114.884 29.7392 115.321 29.0885H115.384V30.0452H117.184V25.2986C117.184 23.1053 115.528 21.8777 113.383 21.8777ZM113.158 28.6592C112.546 28.6592 111.7 28.3577 111.7 27.6089C111.7 26.6522 112.757 26.2859 113.675 26.2859C114.498 26.2859 114.881 26.4659 115.38 26.7017C115.236 27.8474 114.237 28.6592 113.158 28.6592ZM123.747 22.1486L121.603 27.5135H121.54L119.321 22.1495H117.311L120.64 29.6438L118.741 33.8171H120.689L125.818 22.1486H123.748H123.747ZM106.934 30.0659H108.806V17.6909H106.934V30.0659Z" fill="white"/>
<path d="M10.4346 7.82972C10.143 8.13572 9.97021 8.60642 9.97021 9.22202V31.1136C9.97021 31.7292 10.1394 32.1999 10.4346 32.5059L10.5084 32.5725L22.9014 20.31V20.022L10.5075 7.75952L10.4346 7.82972Z" fill="url(#paint0_linear_0_9959)"/>
<path d="M27.0278 24.4023L22.9004 20.31V20.022L27.0314 15.9333L27.1232 15.9855L32.0165 18.7422C33.4124 19.5261 33.4124 20.8095 32.0165 21.597L27.1232 24.3492C27.1232 24.3465 27.0278 24.4023 27.0278 24.4023Z" fill="url(#paint1_linear_0_9959)"/>
<path d="M27.1233 24.3465L22.9005 20.166L10.4346 32.505C10.8981 32.9874 11.6541 33.0468 12.5154 32.5653L27.1233 24.3465Z" fill="url(#paint2_linear_0_9959)"/>
<path d="M27.1233 15.9854L12.5163 7.76662C11.6541 7.28782 10.8981 7.34812 10.4346 7.82962L22.9005 20.1659L27.1233 15.9854Z" fill="url(#paint3_linear_0_9959)"/>
</g>
<defs>
<linearGradient id="paint0_linear_0_9959" x1="21.8068" y1="31.3402" x2="5.18663" y2="14.5525" gradientUnits="userSpaceOnUse">
<stop stop-color="#00A0FF"/>
<stop offset="0.007" stop-color="#00A1FF"/>
<stop offset="0.26" stop-color="#00BEFF"/>
<stop offset="0.512" stop-color="#00D2FF"/>
<stop offset="0.76" stop-color="#00DFFF"/>
<stop offset="1" stop-color="#00E3FF"/>
</linearGradient>
<linearGradient id="paint1_linear_0_9959" x1="33.8468" y1="20.1576" x2="9.64101" y2="20.1576" gradientUnits="userSpaceOnUse">
<stop stop-color="#FFE000"/>
<stop offset="0.409" stop-color="#FFBD00"/>
<stop offset="0.775" stop-color="#FFA500"/>
<stop offset="1" stop-color="#FF9C00"/>
</linearGradient>
<linearGradient id="paint2_linear_0_9959" x1="16.4886" y1="26.1478" x2="-6.04977" y2="3.38228" gradientUnits="userSpaceOnUse">
<stop stop-color="#FF3A44"/>
<stop offset="1" stop-color="#C31162"/>
</linearGradient>
<linearGradient id="paint3_linear_0_9959" x1="-1.04532" y1="31.5284" x2="9.01907" y2="21.3627" gradientUnits="userSpaceOnUse">
<stop stop-color="#32A071"/>
<stop offset="0.069" stop-color="#2DA771"/>
<stop offset="0.476" stop-color="#15CF74"/>
<stop offset="0.801" stop-color="#06E775"/>
<stop offset="1" stop-color="#00F076"/>
</linearGradient>
<clipPath id="clip0_0_9959">
<rect width="135" height="40" fill="white" transform="translate(0 0.166016)"/>
</clipPath>
</defs>
</svg>
