<svg width="120" height="40" viewBox="0 0 120 40" fill="none" xmlns="http://www.w3.org/2000/svg">
<g clip-path="url(#clip0_0_9688)">
<path d="M110.303 0H9.70294C9.33595 0 8.97294 0 8.60794 0.002C8.30194 0.004 7.99795 0.01 7.68895 0.015C7.01747 0.0223323 6.34753 0.0808351 5.68495 0.19C5.02367 0.302207 4.38312 0.513588 3.78495 0.817C3.18666 1.12335 2.64004 1.52151 2.16495 1.997C1.6882 2.47032 1.29078 3.01732 0.987945 3.617C0.684024 4.21585 0.473264 4.85757 0.362945 5.52C0.251673 6.18171 0.191828 6.85105 0.183945 7.522C0.173945 7.829 0.173945 8.137 0.168945 8.443V31.56C0.173945 31.87 0.174945 32.17 0.183945 32.481C0.192154 33.152 0.252334 33.8213 0.363945 34.483C0.473553 35.1461 0.683989 35.7885 0.987945 36.388C1.29107 36.9854 1.68888 37.5297 2.16595 38C2.6387 38.4771 3.18498 38.8751 3.78395 39.179C4.38247 39.4831 5.02329 39.6954 5.68495 39.809C6.34759 39.9179 7.01746 39.9771 7.68895 39.986C7.99895 39.993 8.30194 39.997 8.60794 39.997C8.97394 39.999 9.33595 39.999 9.70294 39.999H110.303C110.663 39.999 111.027 39.999 111.387 39.997C111.691 39.997 112.004 39.993 112.309 39.987C112.979 39.9782 113.648 39.9187 114.309 39.809C114.973 39.6946 115.616 39.4823 116.217 39.179C116.816 38.875 117.361 38.4769 117.834 38C118.31 37.5273 118.709 36.9827 119.016 36.386C119.318 35.7862 119.527 35.1438 119.635 34.481C119.746 33.8192 119.808 33.15 119.82 32.479C119.824 32.169 119.824 31.869 119.824 31.558C119.832 31.194 119.832 30.833 119.832 30.464V9.536C119.832 9.17 119.832 8.806 119.824 8.444C119.824 8.138 119.824 7.83 119.82 7.524C119.808 6.85266 119.746 6.18314 119.635 5.521C119.526 4.8589 119.317 4.21723 119.015 3.618C118.398 2.41511 117.419 1.43588 116.217 0.818C115.616 0.515273 114.973 0.303946 114.309 0.191C113.648 0.0810377 112.979 0.0221968 112.309 0.015C112.004 0.01 111.691 0.004 111.387 0.002C111.027 0 110.662 0 110.303 0Z" fill="#A6A6A6"/>
<path d="M8.61302 39.125C8.30802 39.125 8.01102 39.121 7.70902 39.115C7.08249 39.1066 6.45744 39.0518 5.83902 38.951C5.26286 38.8516 4.70472 38.6669 4.18302 38.403C3.6659 38.1414 3.19422 37.7984 2.78602 37.387C2.37208 36.9801 2.02753 36.5082 1.76602 35.99C1.50108 35.4687 1.31762 34.9099 1.22202 34.333C1.11931 33.7131 1.06382 33.0863 1.05602 32.458C1.04902 32.248 1.04102 31.545 1.04102 31.545V8.445C1.04102 8.445 1.05002 7.753 1.05602 7.55C1.06347 6.92272 1.11863 6.29691 1.22102 5.678C1.31663 5.09952 1.50008 4.53905 1.76502 4.016C2.02573 3.4983 2.36849 3.0262 2.78002 2.618C3.19097 2.20578 3.66406 1.86058 4.18202 1.595C4.70266 1.33189 5.25988 1.14851 5.83502 1.051C6.45538 0.949562 7.08246 0.894742 7.71102 0.887L8.61302 0.875H111.382L112.295 0.888C112.918 0.895224 113.539 0.949378 114.153 1.05C114.734 1.14872 115.297 1.33341 115.824 1.598C116.862 2.13288 117.706 2.97908 118.239 4.018C118.499 4.53755 118.68 5.0935 118.774 5.667C118.878 6.29093 118.936 6.9216 118.948 7.554C118.951 7.837 118.951 8.142 118.951 8.444C118.959 8.819 118.959 9.176 118.959 9.536V30.465C118.959 30.828 118.959 31.183 118.951 31.54C118.951 31.865 118.951 32.163 118.947 32.47C118.936 33.091 118.879 33.7103 118.777 34.323C118.684 34.9041 118.502 35.4673 118.237 35.993C117.973 36.5056 117.63 36.9733 117.221 37.379C116.812 37.7927 116.34 38.1377 115.821 38.401C115.296 38.6671 114.733 38.8525 114.153 38.951C113.535 39.0519 112.91 39.1064 112.284 39.114C111.991 39.121 111.684 39.125 111.387 39.125L110.303 39.127L8.61302 39.125Z" fill="black"/>
<path d="M24.937 20.3C24.9478 19.4655 25.1696 18.6474 25.5815 17.9217C25.9934 17.1959 26.5821 16.5861 27.293 16.149C26.8414 15.5039 26.2456 14.973 25.553 14.5984C24.8604 14.2238 24.09 14.0158 23.303 13.991C21.623 13.815 19.995 14.996 19.139 14.996C18.267 14.996 16.949 14.008 15.531 14.038C14.6132 14.0676 13.7189 14.3344 12.935 14.8125C12.1511 15.2906 11.5044 15.9636 11.058 16.766C9.12396 20.114 10.567 25.035 12.419 27.742C13.346 29.067 14.429 30.547 15.847 30.495C17.234 30.437 17.752 29.61 19.427 29.61C21.085 29.61 21.571 30.495 23.017 30.462C24.506 30.437 25.443 29.13 26.337 27.792C27.0034 26.8479 27.5164 25.8043 27.857 24.7C26.992 24.3343 26.2538 23.7221 25.7345 22.9396C25.2153 22.1571 24.9379 21.2391 24.937 20.3ZM22.205 12.21C23.0165 11.236 23.4165 9.98407 23.32 8.71997C22.0799 8.85015 20.9345 9.44287 20.112 10.38C19.7099 10.8374 19.402 11.3696 19.2057 11.9462C19.0094 12.5227 18.9286 13.1322 18.968 13.74C19.5881 13.7464 20.2016 13.612 20.7623 13.347C21.323 13.082 21.8162 12.6932 22.205 12.21Z" fill="white"/>
<path d="M42.4699 27.14H37.7379L36.6009 30.496H34.5959L39.0799 18.078H41.1629L45.6459 30.496H43.6069L42.4699 27.14ZM38.2269 25.59H41.9789L40.1289 20.144H40.0779L38.2269 25.59ZM55.3269 25.97C55.3269 28.783 53.8219 30.59 51.5489 30.59C50.9735 30.62 50.4012 30.4874 49.8976 30.2075C49.394 29.9275 48.9793 29.5115 48.7009 29.007H48.6579V33.491H46.7979V21.442H48.5979V22.948H48.6309C48.922 22.4456 49.3438 22.0315 49.8515 21.7498C50.3591 21.4681 50.9337 21.3292 51.5139 21.348C53.8119 21.348 55.3269 23.164 55.3269 25.97ZM53.4169 25.97C53.4169 24.137 52.4699 22.932 51.0249 22.932C49.6049 22.932 48.6499 24.162 48.6499 25.97C48.6499 27.794 49.6049 29.016 51.0249 29.016C52.4699 29.016 53.4169 27.819 53.4169 25.97ZM65.2929 25.97C65.2929 28.783 63.7869 30.59 61.5139 30.59C60.9385 30.62 60.3662 30.4874 59.8626 30.2075C59.359 29.9275 58.9443 29.5115 58.6659 29.007H58.6229V33.491H56.7639V21.442H58.5629V22.948H58.5969C58.888 22.4456 59.3098 22.0315 59.8175 21.7498C60.3251 21.4681 60.8997 21.3292 61.4799 21.348C63.7779 21.348 65.2929 23.164 65.2929 25.97ZM63.3829 25.97C63.3829 24.137 62.4349 22.932 60.9899 22.932C59.5699 22.932 58.6149 24.162 58.6149 25.97C58.6149 27.794 59.5699 29.016 60.9899 29.016C62.4349 29.016 63.3829 27.819 63.3829 25.97ZM71.8779 27.036C72.0159 28.268 73.2119 29.076 74.8479 29.076C76.4139 29.076 77.5409 28.268 77.5409 27.157C77.5409 26.193 76.8609 25.617 75.2509 25.221L73.6419 24.833C71.3619 24.283 70.3029 23.216 70.3029 21.485C70.3029 19.343 72.1699 17.871 74.8219 17.871C77.4459 17.871 79.2449 19.343 79.3049 21.485H77.4289C77.3169 20.246 76.2929 19.498 74.7949 19.498C73.2969 19.498 72.2739 20.255 72.2739 21.356C72.2739 22.234 72.9279 22.751 74.5289 23.146L75.8969 23.482C78.4449 24.085 79.5029 25.108 79.5029 26.925C79.5029 29.248 77.6529 30.703 74.7099 30.703C71.9559 30.703 70.0959 29.283 69.9759 27.036H71.8779ZM83.5139 19.3V21.442H85.2359V22.914H83.5139V27.905C83.5139 28.681 83.8589 29.042 84.6159 29.042C84.8202 29.0384 85.0242 29.024 85.2269 28.999V30.462C84.8867 30.5256 84.541 30.5544 84.1949 30.548C82.3619 30.548 81.6469 29.859 81.6469 28.103V22.914H80.3309V21.442H81.6469V19.3H83.5139ZM86.2329 25.97C86.2329 23.121 87.9109 21.331 90.5269 21.331C93.1519 21.331 94.8219 23.121 94.8219 25.97C94.8219 28.826 93.1609 30.608 90.5269 30.608C87.8939 30.608 86.2329 28.826 86.2329 25.97ZM92.9279 25.97C92.9279 24.016 92.0329 22.862 90.5269 22.862C89.0209 22.862 88.1269 24.024 88.1269 25.97C88.1269 27.932 89.0209 29.076 90.5269 29.076C92.0329 29.076 92.9279 27.932 92.9279 25.97ZM96.3539 21.442H98.1269V22.983H98.1699C98.2901 22.502 98.572 22.077 98.9684 21.7793C99.3648 21.4816 99.8516 21.3293 100.347 21.348C100.561 21.3471 100.775 21.3702 100.984 21.417V23.155C100.714 23.0725 100.432 23.0346 100.149 23.043C99.879 23.032 99.6098 23.0796 99.3599 23.1825C99.11 23.2853 98.8854 23.4411 98.7014 23.639C98.5173 23.8368 98.3783 24.0722 98.2938 24.3289C98.2094 24.5856 98.1814 24.8575 98.2119 25.126V30.496H96.3539V21.442ZM109.552 27.837C109.302 29.48 107.702 30.608 105.654 30.608C103.02 30.608 101.385 28.844 101.385 26.013C101.385 23.173 103.029 21.331 105.575 21.331C108.081 21.331 109.655 23.051 109.655 25.797V26.434H103.261V26.546C103.231 26.8792 103.273 27.2148 103.384 27.5307C103.494 27.8465 103.67 28.1352 103.9 28.3777C104.131 28.6202 104.41 28.8109 104.72 28.9372C105.03 29.0634 105.363 29.1223 105.697 29.11C106.136 29.151 106.576 29.0493 106.953 28.82C107.33 28.5906 107.622 28.2459 107.787 27.837H109.552ZM103.27 25.135H107.796C107.813 24.8354 107.767 24.5356 107.663 24.2544C107.558 23.9732 107.397 23.7167 107.188 23.5009C106.98 23.2851 106.729 23.1148 106.451 23.0005C106.174 22.8863 105.876 22.8306 105.576 22.837C105.273 22.8351 104.973 22.8932 104.693 23.008C104.413 23.1227 104.158 23.2918 103.944 23.5054C103.73 23.7191 103.56 23.9731 103.444 24.2528C103.328 24.5325 103.269 24.8323 103.27 25.135Z" fill="white"/>
<path d="M37.994 8.73101C38.3836 8.70306 38.7746 8.76192 39.1388 8.90336C39.5029 9.0448 39.8311 9.26528 40.0997 9.54892C40.3684 9.83256 40.5707 10.1723 40.6921 10.5436C40.8136 10.9148 40.8511 11.3085 40.802 11.696C40.802 13.602 39.772 14.698 37.994 14.698H35.839V8.73001L37.994 8.73101ZM36.766 13.854H37.891C38.1693 13.8705 38.4478 13.8248 38.7063 13.7201C38.9647 13.6154 39.1966 13.4544 39.385 13.2489C39.5734 13.0434 39.7136 12.7984 39.7954 12.5318C39.8772 12.2653 39.8986 11.9839 39.858 11.708C39.8957 11.4332 39.8722 11.1535 39.7891 10.8889C39.7061 10.6242 39.5655 10.3813 39.3776 10.1773C39.1896 9.97337 38.9588 9.81353 38.7018 9.70923C38.4448 9.60493 38.1679 9.55875 37.891 9.57401H36.766V13.854ZM41.849 12.444C41.821 12.1483 41.8551 11.8499 41.949 11.5681C42.043 11.2863 42.1948 11.0273 42.3947 10.8075C42.5946 10.5878 42.8382 10.4122 43.1099 10.2921C43.3816 10.172 43.6754 10.1099 43.9725 10.1099C44.2696 10.1099 44.5633 10.172 44.835 10.2921C45.1067 10.4122 45.3503 10.5878 45.5502 10.8075C45.7501 11.0273 45.902 11.2863 45.9959 11.5681C46.0899 11.8499 46.124 12.1483 46.096 12.444C46.1255 12.7406 46.0926 13.0401 45.9993 13.3232C45.906 13.6063 45.7545 13.8667 45.5544 14.0877C45.3544 14.3087 45.1103 14.4853 44.8378 14.6061C44.5653 14.727 44.2706 14.7894 43.9725 14.7894C43.6744 14.7894 43.3796 14.727 43.1072 14.6061C42.8347 14.4853 42.5906 14.3087 42.3905 14.0877C42.1905 13.8667 42.0389 13.6063 41.9457 13.3232C41.8524 13.0401 41.8195 12.7406 41.849 12.444ZM45.182 12.444C45.182 11.468 44.743 10.897 43.974 10.897C43.201 10.897 42.767 11.468 42.767 12.444C42.767 13.428 43.201 13.994 43.974 13.994C44.744 13.994 45.182 13.424 45.182 12.444ZM51.742 14.698H50.819L49.889 11.381H49.819L48.892 14.698H47.979L46.737 10.195H47.639L48.445 13.631H48.512L49.438 10.195H50.29L51.216 13.631H51.286L52.089 10.195H52.978L51.742 14.698ZM54.022 10.195H54.877V10.91H54.943C55.0557 10.6531 55.2458 10.4377 55.4867 10.294C55.7276 10.1502 56.0074 10.0852 56.287 10.108C56.5061 10.0916 56.7261 10.1246 56.9308 10.2047C57.1354 10.2848 57.3194 10.4099 57.4691 10.5708C57.6188 10.7316 57.7304 10.9241 57.7957 11.134C57.8609 11.3438 57.8781 11.5656 57.846 11.783V14.698H56.957V12.006C56.957 11.282 56.643 10.922 55.985 10.922C55.8363 10.9151 55.6878 10.9405 55.5498 10.9963C55.4118 11.0522 55.2874 11.1372 55.1853 11.2455C55.0833 11.3539 55.0058 11.4831 54.9583 11.6242C54.9107 11.7653 54.8943 11.915 54.91 12.063V14.698H54.022V10.195ZM59.262 8.43701H60.15V14.697H59.262V8.43701ZM61.386 12.444C61.358 12.1483 61.3921 11.8499 61.486 11.5681C61.58 11.2863 61.7318 11.0273 61.9317 10.8075C62.1316 10.5878 62.3752 10.4122 62.6469 10.2921C62.9186 10.172 63.2124 10.1099 63.5095 10.1099C63.8066 10.1099 64.1003 10.172 64.372 10.2921C64.6437 10.4122 64.8873 10.5878 65.0872 10.8075C65.2871 11.0273 65.439 11.2863 65.5329 11.5681C65.6269 11.8499 65.661 12.1483 65.633 12.444C65.6625 12.7406 65.6296 13.0401 65.5363 13.3232C65.443 13.6063 65.2915 13.8667 65.0914 14.0877C64.8914 14.3087 64.6473 14.4853 64.3748 14.6061C64.1023 14.727 63.8076 14.7894 63.5095 14.7894C63.2114 14.7894 62.9167 14.727 62.6442 14.6061C62.3717 14.4853 62.1276 14.3087 61.9275 14.0877C61.7275 13.8667 61.5759 13.6063 61.4827 13.3232C61.3894 13.0401 61.3565 12.7406 61.386 12.444ZM64.719 12.444C64.719 11.468 64.28 10.897 63.511 10.897C62.738 10.897 62.304 11.468 62.304 12.444C62.304 13.428 62.738 13.994 63.511 13.994C64.281 13.994 64.719 13.424 64.719 12.444ZM66.569 13.424C66.569 12.614 67.172 12.146 68.244 12.08L69.464 12.01V11.621C69.464 11.146 69.149 10.877 68.542 10.877C68.045 10.877 67.702 11.059 67.603 11.377H66.743C66.833 10.604 67.561 10.107 68.583 10.107C69.711 10.107 70.348 10.67 70.348 11.621V14.698H69.493V14.065H69.423C69.2802 14.2921 69.0798 14.4772 68.842 14.6014C68.6043 14.7256 68.3379 14.7845 68.07 14.772C67.8809 14.7917 67.6898 14.7716 67.509 14.7129C67.3282 14.6542 67.1617 14.5582 67.0203 14.4312C66.8788 14.3042 66.7656 14.1489 66.6879 13.9754C66.6101 13.802 66.5696 13.6141 66.569 13.424ZM69.463 13.04V12.663L68.363 12.733C67.743 12.775 67.463 12.986 67.463 13.383C67.463 13.788 67.814 14.023 68.297 14.023C68.4385 14.0373 68.5815 14.023 68.7174 13.9809C68.8532 13.9389 68.9793 13.87 69.0881 13.7783C69.1968 13.6866 69.286 13.574 69.3505 13.4472C69.4149 13.3204 69.4531 13.1819 69.463 13.04ZM71.516 12.444C71.516 11.021 72.248 10.12 73.386 10.12C73.6673 10.1072 73.9464 10.1747 74.1907 10.3146C74.4351 10.4545 74.6346 10.661 74.766 10.91H74.833V8.43701H75.721V14.697H74.87V13.987H74.8C74.6582 14.2345 74.4514 14.4385 74.202 14.5769C73.9526 14.7153 73.67 14.7827 73.385 14.772C72.24 14.772 71.516 13.871 71.516 12.444ZM72.434 12.444C72.434 13.399 72.884 13.974 73.637 13.974C74.387 13.974 74.849 13.391 74.849 12.448C74.849 11.51 74.381 10.918 73.637 10.918C72.889 10.918 72.434 11.498 72.434 12.444ZM79.398 12.444C79.37 12.1483 79.4041 11.8499 79.498 11.5681C79.592 11.2863 79.7438 11.0273 79.9437 10.8075C80.1436 10.5878 80.3872 10.4122 80.6589 10.2921C80.9306 10.172 81.2244 10.1099 81.5215 10.1099C81.8186 10.1099 82.1123 10.172 82.384 10.2921C82.6557 10.4122 82.8993 10.5878 83.0992 10.8075C83.2991 11.0273 83.451 11.2863 83.5449 11.5681C83.6389 11.8499 83.673 12.1483 83.645 12.444C83.6745 12.7406 83.6416 13.0401 83.5483 13.3232C83.455 13.6063 83.3035 13.8667 83.1034 14.0877C82.9034 14.3087 82.6593 14.4853 82.3868 14.6061C82.1143 14.727 81.8196 14.7894 81.5215 14.7894C81.2234 14.7894 80.9287 14.727 80.6562 14.6061C80.3837 14.4853 80.1396 14.3087 79.9395 14.0877C79.7395 13.8667 79.5879 13.6063 79.4947 13.3232C79.4014 13.0401 79.3685 12.7406 79.398 12.444ZM82.731 12.444C82.731 11.468 82.293 10.897 81.523 10.897C80.751 10.897 80.316 11.468 80.316 12.444C80.316 13.428 80.751 13.994 81.523 13.994C82.293 13.994 82.731 13.424 82.731 12.444ZM84.837 10.194H85.693V10.91H85.759C85.8717 10.6531 86.0618 10.4377 86.3027 10.294C86.5436 10.1502 86.8234 10.0852 87.103 10.108C87.3221 10.0916 87.5421 10.1246 87.7468 10.2047C87.9514 10.2848 88.1354 10.4099 88.2851 10.5708C88.4348 10.7316 88.5464 10.9241 88.6117 11.134C88.6769 11.3438 88.6941 11.5656 88.662 11.783V14.698H87.773V12.006C87.773 11.282 87.459 10.922 86.801 10.922C86.6523 10.9151 86.5038 10.9405 86.3658 10.9963C86.2278 11.0522 86.1034 11.1372 86.0013 11.2455C85.8993 11.3539 85.8218 11.4831 85.7743 11.6242C85.7267 11.7653 85.7103 11.915 85.726 12.063V14.698H84.837V10.194ZM93.683 9.07401V10.215H94.659V10.964H93.683V13.279C93.683 13.751 93.877 13.958 94.32 13.958C94.4333 13.9575 94.5465 13.9505 94.659 13.937V14.677C94.4992 14.7058 94.3373 14.7212 94.175 14.723C93.187 14.723 92.794 14.375 92.794 13.507V10.964H92.079V10.215H92.794V9.07401H93.683ZM95.873 8.43701H96.753V10.918H96.823C96.9413 10.6587 97.1367 10.4421 97.3826 10.2979C97.6285 10.1537 97.9129 10.0888 98.197 10.112C98.4149 10.1002 98.6328 10.1366 98.835 10.2187C99.0373 10.3008 99.2189 10.4265 99.367 10.5869C99.515 10.7473 99.6258 10.9383 99.6915 11.1465C99.7572 11.3546 99.7762 11.5747 99.747 11.791V14.698H98.858V12.01C98.858 11.29 98.523 10.926 97.895 10.926C97.7422 10.9135 97.5885 10.9344 97.4447 10.9875C97.3008 11.0406 97.1704 11.1244 97.0623 11.2332C96.9543 11.342 96.8714 11.4731 96.8193 11.6173C96.7673 11.7615 96.7474 11.9153 96.761 12.068V14.698H95.873V8.43701ZM104.929 13.482C104.808 13.8934 104.547 14.2493 104.19 14.4874C103.834 14.7256 103.405 14.831 102.979 14.785C102.682 14.7931 102.387 14.7364 102.114 14.6189C101.842 14.5014 101.598 14.3259 101.4 14.1046C101.202 13.8834 101.054 13.6216 100.968 13.3376C100.881 13.0536 100.857 12.7541 100.898 12.46C100.859 12.1652 100.883 11.8653 100.97 11.5808C101.056 11.2962 101.203 11.0335 101.4 10.8105C101.596 10.5875 101.839 10.4094 102.11 10.2882C102.382 10.167 102.677 10.1055 102.974 10.108C104.227 10.108 104.983 10.964 104.983 12.378V12.688H101.803V12.738C101.789 12.9033 101.81 13.0697 101.864 13.2266C101.918 13.3834 102.004 13.5271 102.117 13.6486C102.23 13.7701 102.368 13.8666 102.52 13.9319C102.673 13.9973 102.837 14.03 103.003 14.028C103.215 14.0532 103.43 14.0147 103.621 13.9175C103.811 13.8203 103.969 13.6687 104.073 13.482H104.929ZM101.803 12.031H104.078C104.089 11.8798 104.069 11.7278 104.018 11.585C103.967 11.4421 103.887 11.3115 103.782 11.2016C103.678 11.0917 103.551 11.0048 103.411 10.9467C103.271 10.8885 103.121 10.8604 102.969 10.864C102.815 10.8621 102.663 10.891 102.52 10.949C102.378 11.007 102.249 11.0929 102.14 11.2017C102.031 11.3104 101.945 11.4399 101.888 11.5823C101.83 11.7247 101.801 11.8773 101.803 12.031Z" fill="white"/>
</g>
<defs>
<clipPath id="clip0_0_9688">
<rect width="120" height="40" fill="white"/>
</clipPath>
</defs>
</svg>
