<svg width="20" height="21" viewBox="0 0 20 21" fill="none" xmlns="http://www.w3.org/2000/svg">
<g clip-path="url(#clip0_0_9889)">
<g filter="url(#filter0_dd_0_9889)">
<path d="M12.6304 16.3388H13.7254C13.9233 16.3388 14.0837 16.1783 14.0837 15.9804V14.7855C14.0837 14.7026 14.1052 14.6211 14.146 14.5489L14.6959 13.5775C15.3684 12.3895 15.7218 11.0478 15.7218 9.68272V9.23005C15.7218 9.09788 15.7327 8.96593 15.7543 8.83554L16.0139 7.27039C16.1216 6.62098 15.6207 6.03016 14.9624 6.03016C14.4522 6.03016 14.0135 6.39183 13.9162 6.89274L13.5841 8.60208C13.5757 8.64538 13.5117 8.63832 13.513 8.59423L13.5976 5.57666C13.6128 5.03508 13.1779 4.58781 12.6361 4.58781C12.1426 4.58781 11.7292 4.96125 11.6792 5.45218L11.3665 8.52123C11.3604 8.58081 11.2734 8.58034 11.268 8.5207L10.9329 4.83772C10.8894 4.35939 10.4883 3.99316 10.008 3.99316C9.471 3.99316 9.0459 4.44731 9.08135 4.98317L9.28086 7.99882C9.28445 8.05304 9.19481 8.06354 9.18579 8.00996C9.06574 7.29668 8.89902 6.38395 8.75426 5.87243C8.66958 5.57321 8.49545 5.24518 8.30746 4.94812C7.96353 4.40462 7.21388 4.38284 6.76218 4.84072C6.47416 5.13269 6.37103 5.55991 6.49412 5.95113L7.43572 8.9436C7.54347 9.28602 7.59829 9.64289 7.59829 10.0019C7.59829 10.3368 7.21005 10.5222 6.94951 10.3117L5.64811 9.26021C5.46493 9.11219 5.23654 9.03146 5.00103 9.03146H4.95802C4.41314 9.03146 3.97144 9.47316 3.97144 10.018C3.97144 10.2246 4.03626 10.4259 4.15677 10.5937L6.05552 13.2366C6.544 13.9165 7.1517 14.5023 7.84915 14.9654L8.27079 15.2454C8.44218 15.3592 8.54519 15.5512 8.54519 15.757C8.54519 16.047 8.67635 16.3388 9.01531 16.3388H10.256C10.6307 16.3388 10.9805 16.1509 11.1874 15.8385C11.3868 15.5374 11.6704 15.1632 12.0991 15.1632C12.7505 15.1632 12.5387 15.8242 12.5387 16.247C12.5387 16.2977 12.5798 16.3388 12.6304 16.3388Z" fill="white"/>
<path d="M10.0638 10.9321L10.0638 14.1391M11.7084 10.9321V14.1391M13.3941 10.9321V14.1391M13.7254 16.3388H12.6304C12.5798 16.3388 12.5387 16.2977 12.5387 16.247C12.5387 15.8242 12.7505 15.1632 12.0991 15.1632C11.6704 15.1632 11.3868 15.5374 11.1874 15.8385C10.9805 16.1509 10.6307 16.3388 10.256 16.3388H9.01531C8.67635 16.3388 8.54519 16.047 8.54519 15.757C8.54519 15.5512 8.44218 15.3592 8.27079 15.2454L7.84915 14.9654C7.1517 14.5023 6.544 13.9165 6.05552 13.2366L4.15677 10.5937C4.03626 10.4259 3.97144 10.2246 3.97144 10.018C3.97144 9.47316 4.41314 9.03146 4.95802 9.03146H5.00103C5.23654 9.03146 5.46493 9.11219 5.64811 9.26021L6.94951 10.3117C7.21005 10.5222 7.59829 10.3368 7.59829 10.0019C7.59829 9.64289 7.54347 9.28602 7.43572 8.9436L6.49412 5.95113C6.37103 5.55991 6.47416 5.13269 6.76218 4.84072C7.21388 4.38284 7.96353 4.40462 8.30746 4.94812C8.49545 5.24518 8.66958 5.57321 8.75426 5.87243C8.89902 6.38395 9.06574 7.29668 9.18579 8.00996C9.19481 8.06354 9.28445 8.05304 9.28086 7.99882L9.08135 4.98317C9.0459 4.44731 9.471 3.99316 10.008 3.99316C10.4883 3.99316 10.8894 4.35939 10.9329 4.83772L11.268 8.5207C11.2734 8.58034 11.3604 8.58081 11.3665 8.52123L11.6792 5.45218C11.7292 4.96125 12.1426 4.58781 12.6361 4.58781C13.1779 4.58781 13.6128 5.03508 13.5976 5.57666L13.513 8.59423C13.5117 8.63832 13.5757 8.64538 13.5841 8.60208L13.9162 6.89274C14.0135 6.39183 14.4522 6.03016 14.9624 6.03016C15.6207 6.03016 16.1216 6.62098 16.0139 7.27039L15.7543 8.83554C15.7327 8.96593 15.7218 9.09788 15.7218 9.23005V9.68272C15.7218 11.0478 15.3684 12.3895 14.6959 13.5775L14.146 14.5489C14.1052 14.6211 14.0837 14.7026 14.0837 14.7855V15.9804C14.0837 16.1783 13.9233 16.3388 13.7254 16.3388Z" stroke="#272D37" stroke-width="0.5"/>
</g>
</g>
<defs>
<filter id="filter0_dd_0_9889" x="-1.27856" y="2.74316" width="22.5571" height="22.8457" filterUnits="userSpaceOnUse" color-interpolation-filters="sRGB">
<feFlood flood-opacity="0" result="BackgroundImageFix"/>
<feColorMatrix in="SourceAlpha" type="matrix" values="0 0 0 0 0 0 0 0 0 0 0 0 0 0 0 0 0 0 127 0" result="hardAlpha"/>
<feMorphology radius="1" operator="erode" in="SourceAlpha" result="effect1_dropShadow_0_9889"/>
<feOffset dy="4"/>
<feGaussianBlur stdDeviation="3"/>
<feColorMatrix type="matrix" values="0 0 0 0 0.0627451 0 0 0 0 0.0941176 0 0 0 0 0.156863 0 0 0 0.1 0"/>
<feBlend mode="normal" in2="BackgroundImageFix" result="effect1_dropShadow_0_9889"/>
<feColorMatrix in="SourceAlpha" type="matrix" values="0 0 0 0 0 0 0 0 0 0 0 0 0 0 0 0 0 0 127 0" result="hardAlpha"/>
<feMorphology radius="2" operator="erode" in="SourceAlpha" result="effect2_dropShadow_0_9889"/>
<feOffset dy="2"/>
<feGaussianBlur stdDeviation="2"/>
<feColorMatrix type="matrix" values="0 0 0 0 0.0627451 0 0 0 0 0.0941176 0 0 0 0 0.156863 0 0 0 0.1 0"/>
<feBlend mode="normal" in2="effect1_dropShadow_0_9889" result="effect2_dropShadow_0_9889"/>
<feBlend mode="normal" in="SourceGraphic" in2="effect2_dropShadow_0_9889" result="shape"/>
</filter>
<clipPath id="clip0_0_9889">
<rect width="20" height="20" fill="white" transform="translate(0 0.166016)"/>
</clipPath>
</defs>
</svg>
