<svg width="12" height="12" viewBox="0 0 12 12" fill="none" xmlns="http://www.w3.org/2000/svg">
<path d="M4.5 4.00005V10M7.5 2.00005V8.00005M2.32009 2.18346L3.85982 3.46656C4.23066 3.7756 4.76934 3.7756 5.14018 3.46656L6.85982 2.03354C7.23066 1.7245 7.76934 1.7245 8.14018 2.03354L10.1402 3.7002C10.3682 3.8902 10.5 4.17164 10.5 4.46842V9.43253C10.5 9.85645 10.0056 10.088 9.67991 9.81664L8.14018 8.53354C7.76934 8.2245 7.23066 8.2245 6.85982 8.53354L5.14018 9.96656C4.76934 10.2756 4.23066 10.2756 3.85982 9.96656L1.85982 8.2999C1.63182 8.1099 1.5 7.82845 1.5 7.53167V2.56757C1.5 2.14365 1.99443 1.91207 2.32009 2.18346Z" stroke="#272D37" stroke-linecap="round"/>
</svg>
