<svg width="20" height="21" viewBox="0 0 20 21" fill="none" xmlns="http://www.w3.org/2000/svg">
<path d="M7.5 6.83277V16.8328M12.5 3.49943V13.4994M3.86682 3.80512L6.43303 5.94362C7.0511 6.45868 7.9489 6.45868 8.56697 5.94362L11.433 3.55524C12.0511 3.04018 12.9489 3.04018 13.567 3.55524L16.9003 6.33302C17.2803 6.64968 17.5 7.11876 17.5 7.61339V15.8869C17.5 16.5934 16.676 16.9794 16.1332 16.5271L13.567 14.3886C12.9489 13.8735 12.0511 13.8735 11.433 14.3886L8.56697 16.777C7.9489 17.292 7.0511 17.292 6.43303 16.777L3.09969 13.9992C2.7197 13.6825 2.5 13.2134 2.5 12.7188V4.4453C2.5 3.73877 3.32405 3.35281 3.86682 3.80512Z" stroke="white" stroke-width="1.67" stroke-linecap="round"/>
</svg>
