<svg width="59" height="62" viewBox="0 0 59 62" fill="none" xmlns="http://www.w3.org/2000/svg">
<g filter="url(#filter0_dd_0_10200)">
<path d="M21.916 24.6301C21.916 29.0483 25.4977 32.6301 29.916 32.6301C34.3343 32.6301 37.916 29.0483 37.916 24.6301C37.916 20.2118 34.3343 16.6301 29.916 16.6301C25.4977 16.6301 21.916 20.2118 21.916 24.6301Z" fill="#574EFA"/>
<path d="M13.916 24.6301C13.916 33.4666 25.916 48.6301 29.916 48.6301C33.916 48.6301 45.916 33.4666 45.916 24.6301C45.916 15.7935 38.7526 8.63007 29.916 8.63007C21.0795 8.63007 13.916 15.7935 13.916 24.6301Z" fill="#574EFA"/>
<path d="M21.916 24.6301C21.916 29.0483 25.4977 32.6301 29.916 32.6301C34.3343 32.6301 37.916 29.0483 37.916 24.6301C37.916 20.2118 34.3343 16.6301 29.916 16.6301C25.4977 16.6301 21.916 20.2118 21.916 24.6301Z" stroke="#F9F8FB" stroke-width="2"/>
<path d="M13.916 24.6301C13.916 33.4666 25.916 48.6301 29.916 48.6301C33.916 48.6301 45.916 33.4666 45.916 24.6301C45.916 15.7935 38.7526 8.63007 29.916 8.63007C21.0795 8.63007 13.916 15.7935 13.916 24.6301Z" stroke="#F9F8FB" stroke-width="2"/>
</g>
<defs>
<filter id="filter0_dd_0_10200" x="0.916016" y="-0.369934" width="58" height="65.2242" filterUnits="userSpaceOnUse" color-interpolation-filters="sRGB">
<feFlood flood-opacity="0" result="BackgroundImageFix"/>
<feColorMatrix in="SourceAlpha" type="matrix" values="0 0 0 0 0 0 0 0 0 0 0 0 0 0 0 0 0 0 127 0" result="hardAlpha"/>
<feMorphology radius="1" operator="erode" in="SourceAlpha" result="effect1_dropShadow_0_10200"/>
<feOffset dy="4"/>
<feGaussianBlur stdDeviation="3"/>
<feColorMatrix type="matrix" values="0 0 0 0 0.0627451 0 0 0 0 0.0941176 0 0 0 0 0.156863 0 0 0 0.1 0"/>
<feBlend mode="normal" in2="BackgroundImageFix" result="effect1_dropShadow_0_10200"/>
<feColorMatrix in="SourceAlpha" type="matrix" values="0 0 0 0 0 0 0 0 0 0 0 0 0 0 0 0 0 0 127 0" result="hardAlpha"/>
<feMorphology radius="2" operator="erode" in="SourceAlpha" result="effect2_dropShadow_0_10200"/>
<feOffset dy="2"/>
<feGaussianBlur stdDeviation="2"/>
<feColorMatrix type="matrix" values="0 0 0 0 0.0627451 0 0 0 0 0.0941176 0 0 0 0 0.156863 0 0 0 0.1 0"/>
<feBlend mode="normal" in2="effect1_dropShadow_0_10200" result="effect2_dropShadow_0_10200"/>
<feBlend mode="normal" in="SourceGraphic" in2="effect2_dropShadow_0_10200" result="shape"/>
</filter>
</defs>
</svg>
