<svg width="59" height="62" viewBox="0 0 59 62" fill="none" xmlns="http://www.w3.org/2000/svg">
<g filter="url(#filter0_dd_0_10212)">
<path d="M21.7041 24.4251C21.7041 28.8434 25.2858 32.4251 29.7041 32.4251C34.1224 32.4251 37.7041 28.8434 37.7041 24.4251C37.7041 20.0068 34.1224 16.4251 29.7041 16.4251C25.2858 16.4251 21.7041 20.0068 21.7041 24.4251Z" fill="#574EFA"/>
<path d="M13.7041 24.4251C13.7041 33.2617 25.7041 48.4251 29.7041 48.4251C33.7041 48.4251 45.7041 33.2617 45.7041 24.4251C45.7041 15.5886 38.5407 8.42511 29.7041 8.42511C20.8675 8.42511 13.7041 15.5886 13.7041 24.4251Z" fill="#574EFA"/>
<path d="M21.7041 24.4251C21.7041 28.8434 25.2858 32.4251 29.7041 32.4251C34.1224 32.4251 37.7041 28.8434 37.7041 24.4251C37.7041 20.0068 34.1224 16.4251 29.7041 16.4251C25.2858 16.4251 21.7041 20.0068 21.7041 24.4251Z" stroke="#F9F8FB" stroke-width="2"/>
<path d="M13.7041 24.4251C13.7041 33.2617 25.7041 48.4251 29.7041 48.4251C33.7041 48.4251 45.7041 33.2617 45.7041 24.4251C45.7041 15.5886 38.5407 8.42511 29.7041 8.42511C20.8675 8.42511 13.7041 15.5886 13.7041 24.4251Z" stroke="#F9F8FB" stroke-width="2"/>
</g>
<defs>
<filter id="filter0_dd_0_10212" x="0.704102" y="-0.57489" width="58" height="65.2242" filterUnits="userSpaceOnUse" color-interpolation-filters="sRGB">
<feFlood flood-opacity="0" result="BackgroundImageFix"/>
<feColorMatrix in="SourceAlpha" type="matrix" values="0 0 0 0 0 0 0 0 0 0 0 0 0 0 0 0 0 0 127 0" result="hardAlpha"/>
<feMorphology radius="1" operator="erode" in="SourceAlpha" result="effect1_dropShadow_0_10212"/>
<feOffset dy="4"/>
<feGaussianBlur stdDeviation="3"/>
<feColorMatrix type="matrix" values="0 0 0 0 0.0627451 0 0 0 0 0.0941176 0 0 0 0 0.156863 0 0 0 0.1 0"/>
<feBlend mode="normal" in2="BackgroundImageFix" result="effect1_dropShadow_0_10212"/>
<feColorMatrix in="SourceAlpha" type="matrix" values="0 0 0 0 0 0 0 0 0 0 0 0 0 0 0 0 0 0 127 0" result="hardAlpha"/>
<feMorphology radius="2" operator="erode" in="SourceAlpha" result="effect2_dropShadow_0_10212"/>
<feOffset dy="2"/>
<feGaussianBlur stdDeviation="2"/>
<feColorMatrix type="matrix" values="0 0 0 0 0.0627451 0 0 0 0 0.0941176 0 0 0 0 0.156863 0 0 0 0.1 0"/>
<feBlend mode="normal" in2="effect1_dropShadow_0_10212" result="effect2_dropShadow_0_10212"/>
<feBlend mode="normal" in="SourceGraphic" in2="effect2_dropShadow_0_10212" result="shape"/>
</filter>
</defs>
</svg>
