<svg width="85" height="119" viewBox="0 0 85 119" fill="none" xmlns="http://www.w3.org/2000/svg">
<g filter="url(#filter0_dd_0_9896)">
<path d="M34.3975 55.0569C34.3975 59.4752 37.9792 63.0569 42.3975 63.0569C46.8157 63.0569 50.3975 59.4752 50.3975 55.0569C50.3975 50.6386 46.8157 47.0569 42.3975 47.0569C37.9792 47.0569 34.3975 50.6386 34.3975 55.0569Z" fill="#574EFA"/>
<path d="M26.3975 55.0569C26.3975 63.8934 38.3975 79.0569 42.3975 79.0569C46.3975 79.0569 58.3975 63.8934 58.3975 55.0569C58.3975 46.2203 51.234 39.0569 42.3975 39.0569C33.5609 39.0569 26.3975 46.2203 26.3975 55.0569Z" fill="#574EFA"/>
<path d="M34.3975 55.0569C34.3975 59.4752 37.9792 63.0569 42.3975 63.0569C46.8157 63.0569 50.3975 59.4752 50.3975 55.0569C50.3975 50.6386 46.8157 47.0569 42.3975 47.0569C37.9792 47.0569 34.3975 50.6386 34.3975 55.0569Z" stroke="#F9F8FB" stroke-width="2"/>
<path d="M26.3975 55.0569C26.3975 63.8934 38.3975 79.0569 42.3975 79.0569C46.3975 79.0569 58.3975 63.8934 58.3975 55.0569C58.3975 46.2203 51.234 39.0569 42.3975 39.0569C33.5609 39.0569 26.3975 46.2203 26.3975 55.0569Z" stroke="#F9F8FB" stroke-width="2"/>
</g>
<defs>
<filter id="filter0_dd_0_9896" x="-4.53418" y="-0.943115" width="93.9316" height="128.073" filterUnits="userSpaceOnUse" color-interpolation-filters="sRGB">
<feFlood flood-opacity="0" result="BackgroundImageFix"/>
<feColorMatrix in="SourceAlpha" type="matrix" values="0 0 0 0 0 0 0 0 0 0 0 0 0 0 0 0 0 0 127 0" result="hardAlpha"/>
<feMorphology radius="1" operator="erode" in="SourceAlpha" result="effect1_dropShadow_0_9896"/>
<feOffset dy="4"/>
<feGaussianBlur stdDeviation="3"/>
<feColorMatrix type="matrix" values="0 0 0 0 0.0627451 0 0 0 0 0.0941176 0 0 0 0 0.156863 0 0 0 0.1 0"/>
<feBlend mode="normal" in2="BackgroundImageFix" result="effect1_dropShadow_0_9896"/>
<feColorMatrix in="SourceAlpha" type="matrix" values="0 0 0 0 0 0 0 0 0 0 0 0 0 0 0 0 0 0 127 0" result="hardAlpha"/>
<feMorphology radius="2" operator="erode" in="SourceAlpha" result="effect2_dropShadow_0_9896"/>
<feOffset dy="2"/>
<feGaussianBlur stdDeviation="2"/>
<feColorMatrix type="matrix" values="0 0 0 0 0.0627451 0 0 0 0 0.0941176 0 0 0 0 0.156863 0 0 0 0.1 0"/>
<feBlend mode="normal" in2="effect1_dropShadow_0_9896" result="effect2_dropShadow_0_9896"/>
<feBlend mode="normal" in="SourceGraphic" in2="effect2_dropShadow_0_9896" result="shape"/>
</filter>
</defs>
</svg>
