<svg width="24" height="24" viewBox="0 0 24 24" fill="none" xmlns="http://www.w3.org/2000/svg">
<path d="M14.6459 20C13.9407 20.6223 13.0145 20.9999 12.0001 20.9999C10.9857 20.9999 10.0595 20.6223 9.35438 20M17.9975 13.1808V10C17.9975 6.67772 15.3224 4 12.0001 4C8.67784 4 5.96649 6.56356 5.96649 10V13.1593C5.96649 13.6424 5.89118 14.1224 5.74347 14.5808L5.005 16.8723C4.98478 16.9351 5.02993 16.9999 5.09388 16.9999H18.8633C18.9309 16.9999 18.9789 16.934 18.9582 16.8697L18.2147 14.5626C18.0708 14.1161 17.9975 13.6499 17.9975 13.1808Z" stroke="#272D37" stroke-width="1.67" stroke-linecap="round"/>
</svg>
