<svg width="24" height="25" viewBox="0 0 24 25" fill="none" xmlns="http://www.w3.org/2000/svg">
<g clip-path="url(#clip0_0_9971)">
<path d="M24 12.166C24 5.53859 18.6274 0.166016 12 0.166016C5.37258 0.166016 0 5.53859 0 12.166C0 18.1555 4.3882 23.12 10.125 24.0202V15.6348H7.07812V12.166H10.125V9.52227C10.125 6.51477 11.9166 4.85352 14.6576 4.85352C15.9701 4.85352 17.3438 5.08789 17.3438 5.08789V8.04102H15.8306C14.34 8.04102 13.875 8.96609 13.875 9.91602V12.166H17.2031L16.6711 15.6348H13.875V24.0202C19.6118 23.12 24 18.1555 24 12.166Z" fill="#272D37"/>
<path d="M16.6711 15.6348L17.2031 12.166H13.875V9.91602C13.875 8.96703 14.34 8.04102 15.8306 8.04102H17.3438V5.08789C17.3438 5.08789 15.9705 4.85352 14.6576 4.85352C11.9166 4.85352 10.125 6.51477 10.125 9.52227V12.166H7.07812V15.6348H10.125V24.0202C11.3674 24.2146 12.6326 24.2146 13.875 24.0202V15.6348H16.6711Z" fill="white"/>
</g>
<defs>
<clipPath id="clip0_0_9971">
<rect width="24" height="24" fill="white" transform="translate(0 0.166016)"/>
</clipPath>
</defs>
</svg>
