<svg width="24" height="25" viewBox="0 0 24 25" fill="none" xmlns="http://www.w3.org/2000/svg">
<g clip-path="url(#clip0_0_9973)">
<path d="M21.684 18.8693C21.3211 19.7078 20.8915 20.4796 20.3937 21.1892C19.7152 22.1566 19.1597 22.8262 18.7315 23.1981C18.0679 23.8084 17.3568 24.121 16.5953 24.1388C16.0487 24.1388 15.3894 23.9832 14.6221 23.6677C13.8521 23.3536 13.1446 23.1981 12.4977 23.1981C11.8192 23.1981 11.0915 23.3536 10.3132 23.6677C9.53362 23.9832 8.90564 24.1477 8.42551 24.164C7.69531 24.1951 6.96748 23.8736 6.24099 23.1981C5.7773 22.7936 5.19732 22.1003 4.50252 21.1181C3.75707 20.0693 3.1442 18.853 2.66407 17.4664C2.14986 15.9686 1.89209 14.5183 1.89209 13.1142C1.89209 11.5058 2.23963 10.1186 2.93576 8.95612C3.48285 8.02237 4.21068 7.2858 5.12162 6.74508C6.03255 6.20435 7.01681 5.92881 8.07678 5.91118C8.65676 5.91118 9.41733 6.09058 10.3625 6.44316C11.305 6.79693 11.9101 6.97633 12.1755 6.97633C12.3738 6.97633 13.0461 6.76656 14.1858 6.34835C15.2635 5.96051 16.1731 5.79992 16.9183 5.86318C18.9375 6.02614 20.4545 6.82211 21.4633 8.25614C19.6574 9.35033 18.7641 10.8829 18.7819 12.8489C18.7982 14.3803 19.3538 15.6546 20.4456 16.6664C20.9404 17.136 21.4929 17.499 22.1077 17.7567C21.9744 18.1434 21.8337 18.5138 21.684 18.8693ZM17.0531 0.646152C17.0531 1.84643 16.6146 2.96712 15.7405 4.00442C14.6858 5.23757 13.4099 5.95014 12.0264 5.8377C12.0088 5.6937 11.9986 5.54215 11.9986 5.3829C11.9986 4.23064 12.5002 2.99749 13.391 1.98922C13.8357 1.47872 14.4013 1.05424 15.0872 0.715631C15.7716 0.382071 16.419 0.197605 17.0279 0.166016C17.0457 0.326474 17.0531 0.486942 17.0531 0.646137V0.646152Z" fill="#272D37"/>
</g>
<defs>
<clipPath id="clip0_0_9973">
<rect width="24" height="24" fill="white" transform="translate(0 0.166016)"/>
</clipPath>
</defs>
</svg>
