<svg width="24" height="24" viewBox="0 0 24 24" fill="none" xmlns="http://www.w3.org/2000/svg">
<g clip-path="url(#clip0_0_10631)">
<path d="M23.7628 12.2763C23.7628 11.4605 23.6967 10.6404 23.5556 9.83789H12.2368V14.4589H18.7185C18.4496 15.9492 17.5853 17.2676 16.3199 18.1054V21.1037H20.1869C22.4577 19.0137 23.7628 15.9272 23.7628 12.2763Z" fill="#272D37"/>
<path d="M12.2374 24.0003C15.4739 24.0003 18.2032 22.9377 20.1919 21.1034L16.3249 18.1051C15.249 18.837 13.8601 19.2515 12.2418 19.2515C9.1112 19.2515 6.45678 17.1394 5.50436 14.2998H1.51392V17.3907C3.55103 21.4429 7.70021 24.0003 12.2374 24.0003Z" fill="#272D37"/>
<path d="M5.49984 14.3002C4.99718 12.8099 4.99718 11.196 5.49984 9.70569V6.61475H1.51381C-0.188196 10.0055 -0.188196 14.0004 1.51381 17.3912L5.49984 14.3002Z" fill="#272D37"/>
<path d="M12.2374 4.74966C13.9482 4.7232 15.6017 5.36697 16.8408 6.54867L20.2668 3.12262C18.0974 1.0855 15.2181 -0.034466 12.2374 0.000808666C7.70021 0.000808666 3.55103 2.55822 1.51392 6.61481L5.49995 9.70575C6.44796 6.86173 9.10679 4.74966 12.2374 4.74966Z" fill="#272D37"/>
</g>
<defs>
<clipPath id="clip0_0_10631">
<rect width="24" height="24" fill="white"/>
</clipPath>
</defs>
</svg>
