<svg width="16" height="17" viewBox="0 0 16 17" fill="none" xmlns="http://www.w3.org/2000/svg">
<g clip-path="url(#clip0_0_9795)">
<path d="M7.24578 1.14258C7.66519 0.729493 8.33473 0.729493 8.75414 1.14258L9.3762 1.75524C9.63252 2.0077 9.99629 2.11545 10.3472 2.04286L11.1989 1.8667C11.7731 1.74793 12.3364 2.11308 12.4678 2.68932L12.6628 3.54398C12.7431 3.89615 12.9914 4.18519 13.3255 4.31551L14.1364 4.63179C14.6831 4.84504 14.9612 5.45941 14.763 6.01586L14.4689 6.84116C14.3477 7.18123 14.4017 7.55979 14.6129 7.85165L15.1256 8.55995C15.4712 9.03751 15.3759 9.70604 14.9109 10.066L14.2212 10.5999C13.937 10.82 13.7795 11.1678 13.8008 11.5286L13.8525 12.404C13.8873 12.9943 13.4488 13.5047 12.8647 13.5539L11.9983 13.627C11.6413 13.657 11.3224 13.8638 11.1469 14.1789L10.7212 14.9435C10.4342 15.4591 9.79173 15.6494 9.27394 15.3722L8.50597 14.9611C8.18953 14.7918 7.81039 14.7918 7.49395 14.9611L6.72598 15.3722C6.20819 15.6494 5.56576 15.4591 5.27871 14.9435L4.85297 14.1789C4.67754 13.8638 4.35859 13.657 4.0016 13.627L3.13523 13.5539C2.5511 13.5047 2.11264 12.9943 2.14746 12.404L2.19911 11.5286C2.2204 11.1678 2.0629 10.82 1.7787 10.5999L1.089 10.066C0.623985 9.70604 0.528699 9.03751 0.874341 8.55995L1.38698 7.85165C1.59822 7.55979 1.65218 7.18123 1.53101 6.84116L1.23695 6.01586C1.03869 5.45941 1.31683 4.84504 1.86355 4.63179L2.67443 4.31551C3.00856 4.18519 3.25684 3.89615 3.33716 3.54398L3.53211 2.68932C3.66355 2.11308 4.22681 1.74793 4.80103 1.8667L5.65269 2.04286C6.00363 2.11545 6.3674 2.0077 6.62372 1.75524L7.24578 1.14258Z" fill="#574EFA"/>
<path fill-rule="evenodd" clip-rule="evenodd" d="M11.138 6.36136C11.3984 6.62171 11.3984 7.04382 11.138 7.30417L7.70707 10.7351C7.31654 11.1257 6.68338 11.1257 6.29285 10.7351L4.86189 9.30417C4.60154 9.04382 4.60154 8.62171 4.86189 8.36136C5.12224 8.10101 5.54435 8.10101 5.8047 8.36136L6.99996 9.55662L10.1952 6.36136C10.4556 6.10101 10.8777 6.10101 11.138 6.36136Z" fill="white"/>
</g>
<defs>
<clipPath id="clip0_0_9795">
<rect width="16" height="16" fill="white" transform="translate(0 0.166016)"/>
</clipPath>
</defs>
</svg>
