<svg width="17" height="17" viewBox="0 0 17 17" fill="none" xmlns="http://www.w3.org/2000/svg">
<g clip-path="url(#clip0_0_9811)">
<path d="M7.91265 1.14258C8.33206 0.729493 9.0016 0.729493 9.42101 1.14258L10.0431 1.75524C10.2994 2.0077 10.6632 2.11545 11.0141 2.04286L11.8658 1.8667C12.44 1.74793 13.0032 2.11308 13.1347 2.68932L13.3296 3.54398C13.41 3.89615 13.6582 4.18519 13.9924 4.31551L14.8032 4.63179C15.35 4.84504 15.6281 5.45941 15.4298 6.01586L15.1358 6.84116C15.0146 7.18123 15.0686 7.55979 15.2798 7.85165L15.7924 8.55995C16.1381 9.03751 16.0428 9.70604 15.5778 10.066L14.8881 10.5999C14.6039 10.82 14.4464 11.1678 14.4677 11.5286L14.5193 12.404C14.5541 12.9943 14.1157 13.5047 13.5316 13.5539L12.6652 13.627C12.3082 13.657 11.9893 13.8638 11.8138 14.1789L11.3881 14.9435C11.101 15.4591 10.4586 15.6494 9.94081 15.3722L9.17284 14.9611C8.8564 14.7918 8.47726 14.7918 8.16082 14.9611L7.39285 15.3722C6.87506 15.6494 6.23263 15.4591 5.94558 14.9435L5.51984 14.1789C5.34441 13.8638 5.02546 13.657 4.66847 13.627L3.8021 13.5539C3.21797 13.5047 2.77951 12.9943 2.81433 12.404L2.86598 11.5286C2.88727 11.1678 2.72977 10.82 2.44557 10.5999L1.75587 10.066C1.29085 9.70604 1.19557 9.03751 1.54121 8.55995L2.05385 7.85165C2.26509 7.55979 2.31905 7.18123 2.19788 6.84116L1.90382 6.01586C1.70556 5.45941 1.9837 4.84504 2.53042 4.63179L3.3413 4.31551C3.67543 4.18519 3.92371 3.89615 4.00403 3.54398L4.19898 2.68932C4.33042 2.11308 4.89368 1.74793 5.4679 1.8667L6.31956 2.04286C6.6705 2.11545 7.03427 2.0077 7.29059 1.75524L7.91265 1.14258Z" fill="#574EFA"/>
<path fill-rule="evenodd" clip-rule="evenodd" d="M11.8049 6.36136C12.0653 6.62171 12.0653 7.04382 11.8049 7.30417L8.37394 10.7351C7.98341 11.1257 7.35025 11.1257 6.95972 10.7351L5.52876 9.30417C5.26841 9.04382 5.26841 8.62171 5.52876 8.36136C5.78911 8.10101 6.21122 8.10101 6.47157 8.36136L7.66683 9.55662L10.8621 6.36136C11.1224 6.10101 11.5446 6.10101 11.8049 6.36136Z" fill="white"/>
</g>
<defs>
<clipPath id="clip0_0_9811">
<rect width="16" height="16" fill="white" transform="translate(0.666748 0.166016)"/>
</clipPath>
</defs>
</svg>
