<svg width="16" height="16" viewBox="0 0 16 16" fill="none" xmlns="http://www.w3.org/2000/svg">
<g clip-path="url(#clip0_0_10182)">
<path d="M7.2459 0.976499C7.66531 0.563417 8.33486 0.563416 8.75427 0.976499L9.37632 1.58917C9.63264 1.84162 9.99641 1.94937 10.3474 1.87678L11.199 1.70062C11.7732 1.58185 12.3365 1.947 12.4679 2.52324L12.6629 3.3779C12.7432 3.73007 12.9915 4.01911 13.3256 4.14943L14.1365 4.46571C14.6832 4.67896 14.9614 5.29333 14.7631 5.84978L14.469 6.67508C14.3479 7.01516 14.4018 7.39371 14.6131 7.68557L15.1257 8.39387C15.4713 8.87144 15.3761 9.53997 14.911 9.89995L14.2213 10.4339C13.9371 10.6539 13.7796 11.0018 13.8009 11.3625L13.8526 12.2379C13.8874 12.8282 13.4489 13.3386 12.8648 13.3879L11.9984 13.4609C11.6414 13.491 11.3225 13.6977 11.1471 14.0128L10.7213 14.7774C10.4343 15.293 9.79185 15.4833 9.27406 15.2061L8.5061 14.7951C8.18965 14.6257 7.81052 14.6257 7.49407 14.7951L6.7261 15.2061C6.20831 15.4833 5.56589 15.293 5.27883 14.7774L4.85309 14.0128C4.67766 13.6977 4.35871 13.491 4.00172 13.4609L3.13536 13.3879C2.55122 13.3386 2.11276 12.8282 2.14759 12.2379L2.19923 11.3625C2.22052 11.0018 2.06302 10.6539 1.77882 10.4339L1.08913 9.89995C0.624107 9.53997 0.528821 8.87144 0.874463 8.39387L1.38711 7.68557C1.59835 7.39371 1.6523 7.01515 1.53113 6.67508L1.23708 5.84978C1.03881 5.29333 1.31695 4.67896 1.86367 4.46571L2.67455 4.14943C3.00868 4.01911 3.25696 3.73007 3.33729 3.3779L3.53223 2.52324C3.66367 1.947 4.22693 1.58185 4.80115 1.70062L5.65281 1.87678C6.00375 1.94937 6.36752 1.84162 6.62385 1.58917L7.2459 0.976499Z" fill="#574EFA"/>
<path fill-rule="evenodd" clip-rule="evenodd" d="M11.1382 6.19528C11.3985 6.45563 11.3985 6.87774 11.1382 7.13809L7.70719 10.5691C7.31666 10.9596 6.6835 10.9596 6.29297 10.5691L4.86201 9.13809C4.60166 8.87774 4.60166 8.45563 4.86201 8.19528C5.12236 7.93493 5.54447 7.93493 5.80482 8.19528L7.00008 9.39054L10.1953 6.19528C10.4557 5.93493 10.8778 5.93493 11.1382 6.19528Z" fill="white"/>
</g>
<defs>
<clipPath id="clip0_0_10182">
<rect width="16" height="16" fill="white"/>
</clipPath>
</defs>
</svg>
