<svg width="16" height="16" viewBox="0 0 16 16" fill="none" xmlns="http://www.w3.org/2000/svg">
<g clip-path="url(#clip0_0_9472)">
<path d="M7.24584 0.97656C7.66525 0.563478 8.33479 0.563477 8.7542 0.97656L9.37626 1.58923C9.63258 1.84168 9.99635 1.94943 10.3473 1.87684L11.199 1.70068C11.7732 1.58191 12.3364 1.94706 12.4679 2.52331L12.6628 3.37796C12.7431 3.73013 12.9914 4.01917 13.3256 4.1495L14.1364 4.46577C14.6832 4.67902 14.9613 5.29339 14.763 5.84984L14.469 6.67514C14.3478 7.01522 14.4018 7.39377 14.613 7.68563L15.1256 8.39393C15.4713 8.8715 15.376 9.54003 14.911 9.90001L14.2213 10.4339C13.9371 10.6539 13.7796 11.0018 13.8009 11.3626L13.8525 12.238C13.8873 12.8283 13.4489 13.3387 12.8647 13.3879L11.9984 13.4609C11.6414 13.491 11.3224 13.6978 11.147 14.0129L10.7213 14.7775C10.4342 15.2931 9.79179 15.4833 9.274 15.2062L8.50603 14.7951C8.18959 14.6257 7.81045 14.6257 7.49401 14.7951L6.72604 15.2062C6.20825 15.4833 5.56583 15.2931 5.27877 14.7775L4.85303 14.0129C4.6776 13.6978 4.35865 13.491 4.00166 13.4609L3.13529 13.3879C2.55116 13.3387 2.1127 12.8283 2.14753 12.238L2.19917 11.3626C2.22046 11.0018 2.06296 10.6539 1.77876 10.4339L1.08906 9.90001C0.624046 9.54003 0.52876 8.8715 0.874402 8.39393L1.38705 7.68563C1.59828 7.39377 1.65224 7.01522 1.53107 6.67514L1.23701 5.84984C1.03875 5.29339 1.31689 4.67902 1.86361 4.46577L2.67449 4.1495C3.00862 4.01917 3.2569 3.73013 3.33723 3.37796L3.53217 2.5233C3.66361 1.94706 4.22687 1.58191 4.80109 1.70068L5.65275 1.87684C6.00369 1.94943 6.36746 1.84168 6.62379 1.58923L7.24584 0.97656Z" fill="#574EFA"/>
<path fill-rule="evenodd" clip-rule="evenodd" d="M11.1381 6.19534C11.3984 6.45569 11.3984 6.8778 11.1381 7.13815L7.70713 10.5691C7.3166 10.9596 6.68344 10.9596 6.29291 10.5691L4.86195 9.13815C4.6016 8.8778 4.6016 8.45569 4.86195 8.19534C5.1223 7.93499 5.54441 7.93499 5.80476 8.19534L7.00002 9.3906L10.1953 6.19534C10.4556 5.93499 10.8777 5.93499 11.1381 6.19534Z" fill="white"/>
</g>
<defs>
<clipPath id="clip0_0_9472">
<rect width="16" height="16" fill="white"/>
</clipPath>
</defs>
</svg>
