<svg width="16" height="16" viewBox="0 0 16 16" fill="none" xmlns="http://www.w3.org/2000/svg">
<g clip-path="url(#clip0_0_9504)">
<path d="M7.24578 0.97656C7.66519 0.563478 8.33473 0.563477 8.75414 0.97656L9.3762 1.58923C9.63252 1.84168 9.99629 1.94943 10.3472 1.87684L11.1989 1.70068C11.7731 1.58191 12.3364 1.94706 12.4678 2.52331L12.6628 3.37796C12.7431 3.73013 12.9914 4.01917 13.3255 4.1495L14.1364 4.46577C14.6831 4.67902 14.9612 5.29339 14.763 5.84984L14.4689 6.67514C14.3477 7.01522 14.4017 7.39377 14.6129 7.68563L15.1256 8.39393C15.4712 8.8715 15.3759 9.54003 14.9109 9.90001L14.2212 10.4339C13.937 10.6539 13.7795 11.0018 13.8008 11.3626L13.8525 12.238C13.8873 12.8283 13.4488 13.3387 12.8647 13.3879L11.9983 13.4609C11.6413 13.491 11.3224 13.6978 11.1469 14.0129L10.7212 14.7775C10.4342 15.2931 9.79173 15.4833 9.27394 15.2062L8.50597 14.7951C8.18953 14.6257 7.81039 14.6257 7.49395 14.7951L6.72598 15.2062C6.20819 15.4833 5.56576 15.2931 5.27871 14.7775L4.85297 14.0129C4.67754 13.6978 4.35859 13.491 4.0016 13.4609L3.13523 13.3879C2.5511 13.3387 2.11264 12.8283 2.14746 12.238L2.19911 11.3626C2.2204 11.0018 2.0629 10.6539 1.7787 10.4339L1.089 9.90001C0.623985 9.54003 0.528699 8.8715 0.874341 8.39393L1.38698 7.68563C1.59822 7.39377 1.65218 7.01522 1.53101 6.67514L1.23695 5.84984C1.03869 5.29339 1.31683 4.67902 1.86355 4.46577L2.67443 4.1495C3.00856 4.01917 3.25684 3.73013 3.33716 3.37796L3.53211 2.5233C3.66355 1.94706 4.22681 1.58191 4.80103 1.70068L5.65269 1.87684C6.00363 1.94943 6.3674 1.84168 6.62372 1.58923L7.24578 0.97656Z" fill="#574EFA"/>
<path fill-rule="evenodd" clip-rule="evenodd" d="M11.138 6.19534C11.3984 6.45569 11.3984 6.8778 11.138 7.13815L7.70707 10.5691C7.31654 10.9596 6.68338 10.9596 6.29285 10.5691L4.86189 9.13815C4.60154 8.8778 4.60154 8.45569 4.86189 8.19534C5.12224 7.93499 5.54435 7.93499 5.8047 8.19534L6.99996 9.3906L10.1952 6.19534C10.4556 5.93499 10.8777 5.93499 11.138 6.19534Z" fill="white"/>
</g>
<defs>
<clipPath id="clip0_0_9504">
<rect width="16" height="16" fill="white"/>
</clipPath>
</defs>
</svg>
