<svg width="24" height="25" viewBox="0 0 24 25" fill="none" xmlns="http://www.w3.org/2000/svg">
<path d="M12 6.16602V12.1655M12 12.1655L16 15.166M12 12.1655C12 12.1658 11.9997 12.1653 12 12.1655ZM1.28533 14.666C1.09868 13.8629 1 13.026 1 12.166C1 11.3061 1.09868 10.4692 1.28533 9.66602M10 1.34739C10.6486 1.22826 11.317 1.16602 12 1.16602C18.0751 1.16602 23 6.09088 23 12.166C23 18.2411 18.0751 23.166 12 23.166C11.317 23.166 10.6486 23.1038 10 22.9846M6.5 2.63762C4.99963 3.50554 3.72328 4.71766 2.77893 6.16602M2.77893 18.166C3.72328 19.6144 4.99963 20.8265 6.5 21.6944" stroke="#272D37" stroke-width="1.67" stroke-linecap="round"/>
</svg>
