<svg width="52" height="18" viewBox="0 0 52 18" fill="none" xmlns="http://www.w3.org/2000/svg">
<path d="M8.24807 4.81545V7.03874H0.599365V4.81545H8.24807ZM2.48772 1.89341H5.62343V13.3434C5.62343 13.7298 5.68695 14.0262 5.81399 14.2327C5.94681 14.4338 6.12006 14.5715 6.33373 14.6456C6.54739 14.7197 6.78416 14.7567 7.04402 14.7567C7.24037 14.7567 7.41939 14.7435 7.58108 14.717C7.74855 14.6906 7.87559 14.6667 7.96222 14.6456L8.49061 16.8927C8.32314 16.9456 8.08349 17.0039 7.77165 17.0674C7.46558 17.1309 7.09022 17.168 6.64557 17.1785C5.86019 17.1997 5.15278 17.0912 4.52333 16.853C3.89388 16.6095 3.39436 16.2336 3.02477 15.7255C2.66096 15.2173 2.48194 14.5821 2.48772 13.8198V1.89341Z" fill="#574EFA"/>
<path d="M16.3958 17.25C15.0964 17.25 13.9703 16.988 13.0175 16.4639C12.0647 15.9398 11.3255 15.2067 10.8 14.2644C10.2803 13.3222 10.0204 12.2211 10.0204 10.9613C10.0204 9.7014 10.2803 8.59769 10.8 7.65014C11.3255 6.7026 12.0647 5.96679 13.0175 5.44273C13.9703 4.91867 15.0964 4.65664 16.3958 4.65664C17.6951 4.65664 18.8212 4.91867 19.774 5.44273C20.7268 5.96679 21.4631 6.7026 21.9829 7.65014C22.5084 8.59769 22.7711 9.7014 22.7711 10.9613C22.7711 12.2211 22.5084 13.3222 21.9829 14.2644C21.4631 15.2067 20.7268 15.9398 19.774 16.4639C18.8212 16.988 17.6951 17.25 16.3958 17.25ZM16.4131 14.9473C17.1176 14.9473 17.7066 14.77 18.1802 14.4153C18.6537 14.0553 19.006 13.5736 19.237 12.9702C19.4737 12.3667 19.5921 11.6944 19.5921 10.9533C19.5921 10.2069 19.4737 9.532 19.237 8.92854C19.006 8.31978 18.6537 7.83542 18.1802 7.47546C17.7066 7.1155 17.1176 6.93552 16.4131 6.93552C15.6912 6.93552 15.0907 7.1155 14.6113 7.47546C14.1378 7.83542 13.7827 8.31978 13.5459 8.92854C13.3149 9.532 13.1994 10.2069 13.1994 10.9533C13.1994 11.6944 13.3149 12.3667 13.5459 12.9702C13.7827 13.5736 14.1378 14.0553 14.6113 14.4153C15.0907 14.77 15.6912 14.9473 16.4131 14.9473Z" fill="#574EFA"/>
<path d="M31.941 4.81545V7.03874H24.2922V4.81545H31.941ZM26.1806 1.89341H29.3163V13.3434C29.3163 13.7298 29.3798 14.0262 29.5069 14.2327C29.6397 14.4338 29.8129 14.5715 30.0266 14.6456C30.2403 14.7197 30.477 14.7567 30.7369 14.7567C30.9332 14.7567 31.1123 14.7435 31.274 14.717C31.4414 14.6906 31.5685 14.6667 31.6551 14.6456L32.1835 16.8927C32.016 16.9456 31.7764 17.0039 31.4645 17.0674C31.1585 17.1309 30.7831 17.168 30.3384 17.1785C29.5531 17.1997 28.8457 17.0912 28.2162 16.853C27.5868 16.6095 27.0872 16.2336 26.7177 15.7255C26.3538 15.2173 26.1748 14.5821 26.1806 13.8198V1.89341Z" fill="#574EFA"/>
<path d="M40.1753 17.25C38.8413 17.25 37.6892 16.9959 36.7191 16.4877C35.7547 15.9743 35.0126 15.249 34.4929 14.3121C33.9731 13.3698 33.7133 12.2608 33.7133 10.9851C33.7133 9.73051 33.9731 8.62945 34.4929 7.68191C35.0184 6.72907 35.7518 5.98797 36.6931 5.45861C37.6344 4.92397 38.7402 4.65664 40.0107 4.65664C40.8307 4.65664 41.6045 4.77839 42.3321 5.0219C43.0655 5.26011 43.7123 5.63066 44.2725 6.13354C44.8384 6.63643 45.2831 7.27695 45.6064 8.0551C45.9298 8.82796 46.0915 9.74904 46.0915 10.8183V11.6997H35.1858V9.76227H43.0857C43.08 9.21174 42.95 8.72209 42.696 8.29331C42.4419 7.85924 42.0867 7.51781 41.6305 7.26901C41.1801 7.02021 40.6546 6.89581 40.054 6.89581C39.413 6.89581 38.8499 7.03874 38.3649 7.32459C37.8798 7.60515 37.5015 7.9757 37.2301 8.43624C36.9645 8.89148 36.8288 9.39172 36.823 9.93696V11.6283C36.823 12.3376 36.9645 12.9463 37.2474 13.4545C37.5304 13.9574 37.926 14.3438 38.4342 14.6138C38.9423 14.8785 39.5371 15.0108 40.2186 15.0108C40.6748 15.0108 41.0877 14.9526 41.4573 14.8361C41.8268 14.7144 42.1473 14.5371 42.4188 14.3041C42.6902 14.0712 42.8952 13.7827 43.0338 13.4386L45.9616 13.7404C45.7768 14.4497 45.4245 15.0691 44.9048 15.5984C44.3908 16.1225 43.7325 16.5301 42.9298 16.8212C42.1271 17.1071 41.2089 17.25 40.1753 17.25Z" fill="#574EFA"/>
<path d="M51.7445 0.75V17.0118H48.6088V0.75H51.7445Z" fill="#574EFA"/>
</svg>
