<svg width="52" height="18" viewBox="0 0 52 18" fill="none" xmlns="http://www.w3.org/2000/svg">
<path d="M7.82717 4.81545V7.03874H0.178467V4.81545H7.82717ZM2.06682 1.89341H5.20253V13.3434C5.20253 13.7298 5.26605 14.0262 5.3931 14.2327C5.52592 14.4338 5.69916 14.5715 5.91283 14.6456C6.12649 14.7197 6.36326 14.7567 6.62313 14.7567C6.81947 14.7567 6.99849 14.7435 7.16018 14.717C7.32765 14.6906 7.4547 14.6667 7.54132 14.6456L8.06971 16.8927C7.90224 16.9456 7.66259 17.0039 7.35075 17.0674C7.04469 17.1309 6.66932 17.168 6.22467 17.1785C5.4393 17.1997 4.73188 17.0912 4.10243 16.853C3.47298 16.6095 2.97346 16.2336 2.60388 15.7255C2.24007 15.2173 2.06105 14.5821 2.06682 13.8198V1.89341Z" fill="#574EFA"/>
<path d="M15.9749 17.25C14.6755 17.25 13.5494 16.988 12.5966 16.4639C11.6438 15.9398 10.9046 15.2067 10.3791 14.2644C9.85936 13.3222 9.5995 12.2211 9.5995 10.9613C9.5995 9.7014 9.85936 8.59769 10.3791 7.65014C10.9046 6.7026 11.6438 5.96679 12.5966 5.44273C13.5494 4.91867 14.6755 4.65664 15.9749 4.65664C17.2742 4.65664 18.4003 4.91867 19.3531 5.44273C20.3059 5.96679 21.0422 6.7026 21.562 7.65014C22.0875 8.59769 22.3502 9.7014 22.3502 10.9613C22.3502 12.2211 22.0875 13.3222 21.562 14.2644C21.0422 15.2067 20.3059 15.9398 19.3531 16.4639C18.4003 16.988 17.2742 17.25 15.9749 17.25ZM15.9922 14.9473C16.6967 14.9473 17.2857 14.77 17.7593 14.4153C18.2328 14.0553 18.5851 13.5736 18.8161 12.9702C19.0528 12.3667 19.1712 11.6944 19.1712 10.9533C19.1712 10.2069 19.0528 9.532 18.8161 8.92854C18.5851 8.31978 18.2328 7.83542 17.7593 7.47546C17.2857 7.1155 16.6967 6.93552 15.9922 6.93552C15.2703 6.93552 14.6698 7.1155 14.1904 7.47546C13.7169 7.83542 13.3618 8.31978 13.125 8.92854C12.894 9.532 12.7785 10.2069 12.7785 10.9533C12.7785 11.6944 12.894 12.3667 13.125 12.9702C13.3618 13.5736 13.7169 14.0553 14.1904 14.4153C14.6698 14.77 15.2703 14.9473 15.9922 14.9473Z" fill="#574EFA"/>
<path d="M31.5201 4.81545V7.03874H23.8713V4.81545H31.5201ZM25.7597 1.89341H28.8954V13.3434C28.8954 13.7298 28.9589 14.0262 29.086 14.2327C29.2188 14.4338 29.392 14.5715 29.6057 14.6456C29.8194 14.7197 30.0561 14.7567 30.316 14.7567C30.5124 14.7567 30.6914 14.7435 30.8531 14.717C31.0205 14.6906 31.1476 14.6667 31.2342 14.6456L31.7626 16.8927C31.5951 16.9456 31.3555 17.0039 31.0436 17.0674C30.7376 17.1309 30.3622 17.168 29.9175 17.1785C29.1322 17.1997 28.4248 17.0912 27.7953 16.853C27.1659 16.6095 26.6663 16.2336 26.2968 15.7255C25.9329 15.2173 25.7539 14.5821 25.7597 13.8198V1.89341Z" fill="#574EFA"/>
<path d="M39.7544 17.25C38.4204 17.25 37.2683 16.9959 36.2982 16.4877C35.3338 15.9743 34.5917 15.249 34.072 14.3121C33.5522 13.3698 33.2924 12.2608 33.2924 10.9851C33.2924 9.73051 33.5522 8.62945 34.072 7.68191C34.5975 6.72907 35.3309 5.98797 36.2722 5.45861C37.2135 4.92397 38.3193 4.65664 39.5898 4.65664C40.4098 4.65664 41.1836 4.77839 41.9112 5.0219C42.6446 5.26011 43.2914 5.63066 43.8516 6.13354C44.4175 6.63643 44.8622 7.27695 45.1855 8.0551C45.5089 8.82796 45.6706 9.74904 45.6706 10.8183V11.6997H34.7649V9.76227H42.6648C42.6591 9.21174 42.5291 8.72209 42.2751 8.29331C42.021 7.85924 41.6658 7.51781 41.2096 7.26901C40.7592 7.02021 40.2337 6.89581 39.6331 6.89581C38.9921 6.89581 38.429 7.03874 37.944 7.32459C37.4589 7.60515 37.0806 7.9757 36.8092 8.43624C36.5436 8.89148 36.4079 9.39172 36.4021 9.93696V11.6283C36.4021 12.3376 36.5436 12.9463 36.8265 13.4545C37.1095 13.9574 37.5051 14.3438 38.0133 14.6138C38.5214 14.8785 39.1162 15.0108 39.7977 15.0108C40.2539 15.0108 40.6668 14.9526 41.0364 14.8361C41.4059 14.7144 41.7264 14.5371 41.9979 14.3041C42.2693 14.0712 42.4743 13.7827 42.6129 13.4386L45.5407 13.7404C45.3559 14.4497 45.0036 15.0691 44.4839 15.5984C43.9699 16.1225 43.3116 16.5301 42.5089 16.8212C41.7062 17.1071 40.788 17.25 39.7544 17.25Z" fill="#574EFA"/>
<path d="M51.3236 0.75V17.0118H48.1879V0.75H51.3236Z" fill="#574EFA"/>
</svg>
