<svg width="52" height="18" viewBox="0 0 52 18" fill="none" xmlns="http://www.w3.org/2000/svg">
<path d="M7.82717 4.98146V7.20476H0.178467V4.98146H7.82717ZM2.06682 2.05942H5.20253V13.5094C5.20253 13.8958 5.26605 14.1922 5.3931 14.3987C5.52592 14.5998 5.69916 14.7375 5.91283 14.8116C6.12649 14.8857 6.36326 14.9228 6.62313 14.9228C6.81947 14.9228 6.99849 14.9095 7.16018 14.8831C7.32765 14.8566 7.4547 14.8328 7.54132 14.8116L8.06971 17.0587C7.90224 17.1116 7.66259 17.1699 7.35075 17.2334C7.04469 17.2969 6.66932 17.334 6.22467 17.3446C5.4393 17.3657 4.73188 17.2572 4.10243 17.019C3.47298 16.7755 2.97346 16.3997 2.60388 15.8915C2.24007 15.3833 2.06105 14.7481 2.06682 13.9858V2.05942Z" fill="#574EFA"/>
<path d="M15.9749 17.416C14.6755 17.416 13.5494 17.154 12.5966 16.6299C11.6438 16.1059 10.9046 15.3727 10.3791 14.4305C9.85936 13.4882 9.5995 12.3871 9.5995 11.1273C9.5995 9.86741 9.85936 8.76371 10.3791 7.81616C10.9046 6.86861 11.6438 6.13281 12.5966 5.60875C13.5494 5.08469 14.6755 4.82266 15.9749 4.82266C17.2742 4.82266 18.4003 5.08469 19.3531 5.60875C20.3059 6.13281 21.0422 6.86861 21.562 7.81616C22.0875 8.76371 22.3502 9.86741 22.3502 11.1273C22.3502 12.3871 22.0875 13.4882 21.562 14.4305C21.0422 15.3727 20.3059 16.1059 19.3531 16.6299C18.4003 17.154 17.2742 17.416 15.9749 17.416ZM15.9922 15.1133C16.6967 15.1133 17.2857 14.936 17.7593 14.5813C18.2328 14.2214 18.5851 13.7396 18.8161 13.1362C19.0528 12.5327 19.1712 11.8604 19.1712 11.1193C19.1712 10.3729 19.0528 9.69802 18.8161 9.09455C18.5851 8.4858 18.2328 8.00143 17.7593 7.64147C17.2857 7.28151 16.6967 7.10153 15.9922 7.10153C15.2703 7.10153 14.6698 7.28151 14.1904 7.64147C13.7169 8.00143 13.3618 8.4858 13.125 9.09455C12.894 9.69802 12.7785 10.3729 12.7785 11.1193C12.7785 11.8604 12.894 12.5327 13.125 13.1362C13.3618 13.7396 13.7169 14.2214 14.1904 14.5813C14.6698 14.936 15.2703 15.1133 15.9922 15.1133Z" fill="#574EFA"/>
<path d="M31.5201 4.98146V7.20476H23.8713V4.98146H31.5201ZM25.7597 2.05942H28.8954V13.5094C28.8954 13.8958 28.9589 14.1922 29.086 14.3987C29.2188 14.5998 29.392 14.7375 29.6057 14.8116C29.8194 14.8857 30.0561 14.9228 30.316 14.9228C30.5124 14.9228 30.6914 14.9095 30.8531 14.8831C31.0205 14.8566 31.1476 14.8328 31.2342 14.8116L31.7626 17.0587C31.5951 17.1116 31.3555 17.1699 31.0436 17.2334C30.7376 17.2969 30.3622 17.334 29.9175 17.3446C29.1322 17.3657 28.4248 17.2572 27.7953 17.019C27.1659 16.7755 26.6663 16.3997 26.2968 15.8915C25.9329 15.3833 25.7539 14.7481 25.7597 13.9858V2.05942Z" fill="#574EFA"/>
<path d="M39.7544 17.416C38.4204 17.416 37.2683 17.1619 36.2982 16.6537C35.3338 16.1403 34.5917 15.4151 34.072 14.4781C33.5522 13.5358 33.2924 12.4268 33.2924 11.1511C33.2924 9.89653 33.5522 8.79547 34.072 7.84792C34.5975 6.89508 35.3309 6.15399 36.2722 5.62463C37.2135 5.08998 38.3193 4.82266 39.5898 4.82266C40.4098 4.82266 41.1836 4.94441 41.9112 5.18791C42.6446 5.42612 43.2914 5.79667 43.8516 6.29956C44.4175 6.80245 44.8622 7.44297 45.1855 8.22112C45.5089 8.99398 45.6706 9.91505 45.6706 10.9844V11.8657H34.7649V9.92829H42.6648C42.6591 9.37776 42.5291 8.8881 42.2751 8.45933C42.021 8.02526 41.6658 7.68382 41.2096 7.43503C40.7592 7.18623 40.2337 7.06183 39.6331 7.06183C38.9921 7.06183 38.429 7.20475 37.944 7.49061C37.4589 7.77116 37.0806 8.14171 36.8092 8.60225C36.5436 9.0575 36.4079 9.55774 36.4021 10.103V11.7943C36.4021 12.5036 36.5436 13.1124 36.8265 13.6205C37.1095 14.1234 37.5051 14.5099 38.0133 14.7798C38.5214 15.0445 39.1162 15.1768 39.7977 15.1768C40.2539 15.1768 40.6668 15.1186 41.0364 15.0022C41.4059 14.8804 41.7264 14.7031 41.9979 14.4702C42.2693 14.2372 42.4743 13.9487 42.6129 13.6047L45.5407 13.9064C45.3559 14.6157 45.0036 15.2351 44.4839 15.7644C43.9699 16.2885 43.3116 16.6961 42.5089 16.9872C41.7062 17.2731 40.788 17.416 39.7544 17.416Z" fill="#574EFA"/>
<path d="M51.3236 0.916016V17.1778H48.1879V0.916016H51.3236Z" fill="#574EFA"/>
</svg>
