<svg width="135" height="40" viewBox="0 0 135 40" fill="none" xmlns="http://www.w3.org/2000/svg">
<g clip-path="url(#clip0_0_9696)">
<path d="M130.001 39.7964H4.9995C2.25 39.7964 0 37.5707 0 34.85V5.15361C0 2.43201 2.25 0.203613 4.9995 0.203613H130.001C132.746 0.203613 135 2.43201 135 5.15361V34.85C135 37.5707 132.75 39.7964 130.001 39.7964Z" fill="black"/>
<path d="M130.001 0.994759C132.314 0.994759 134.198 2.86136 134.198 5.15276V34.8501C134.198 37.1388 132.314 39.0054 130.001 39.0054H4.9995C2.682 39.0054 0.801 37.1424 0.801 34.8501V5.15366C0.801 2.86136 2.6856 0.994759 4.9995 0.994759H130.001ZM130.001 0.202759H4.9995C2.25 0.203659 0 2.43206 0 5.15366V34.8501C0 37.5708 2.25 39.8001 4.9995 39.8001H130.001C132.746 39.8001 135 37.5708 135 34.8501V5.15366C135 2.43206 132.75 0.203659 130.001 0.203659V0.202759Z" fill="#A6A6A6"/>
<path d="M44.469 13.286C43.587 13.286 42.8274 12.98 42.2055 12.3707C41.5863 11.7587 41.2731 10.9964 41.2731 10.1C41.2731 9.2036 41.5863 8.4404 42.2055 7.8356C42.8238 7.2281 43.587 6.9176 44.469 6.9176C44.8947 6.9176 45.3195 7.0031 45.7317 7.175C46.1358 7.3469 46.4589 7.5755 46.6983 7.8608L46.7433 7.9166L46.1106 8.5493L46.0548 8.4827C45.6642 8.0327 45.1476 7.8113 44.469 7.8113C44.1759 7.80801 43.8849 7.86252 43.6128 7.97169C43.3407 8.08087 43.0928 8.24259 42.8832 8.4476C42.4404 8.8697 42.219 9.425 42.219 10.1C42.219 10.7786 42.4404 11.3375 42.8832 11.7596C43.3332 12.1817 43.8678 12.3923 44.469 12.3923C45.1161 12.3923 45.657 12.1781 46.0863 11.756C46.35 11.4923 46.5048 11.144 46.557 10.6868H44.388V9.812H47.4363L47.4507 9.875C47.4822 10.019 47.4993 10.1666 47.4993 10.343C47.4993 11.1827 47.2392 11.8721 46.7334 12.3815C46.1493 12.9791 45.3906 13.2851 44.469 13.2851V13.286ZM52.1055 13.1483H48.4452V7.0553H52.1055V7.9445H49.3767V9.6635H51.8382V10.5392H49.3767V12.2582H52.1055V13.1483ZM55.3572 13.1483H54.4257V7.9445H52.7517V7.0553H57.0339V7.9445H55.3572V13.1483ZM60.7851 13.1483H59.8572V7.0553H60.7851V13.1483ZM64.2051 13.1483H63.2817V7.9445H61.6005V7.0553H65.8863V7.9445H64.206L64.2051 13.1483ZM71.4132 13.2851C70.5168 13.2851 69.7572 12.9755 69.1524 12.3608C68.5512 11.7488 68.2452 10.9892 68.2452 10.1036C68.2452 9.2144 68.5512 8.4512 69.1524 7.8428C69.7572 7.2308 70.5168 6.9185 71.4132 6.9185C72.3024 6.9185 73.0584 7.2308 73.6632 7.85C74.268 8.462 74.5731 9.2207 74.5731 10.1036C74.5731 10.9892 74.2671 11.7524 73.6668 12.3644C73.062 12.9764 72.3024 13.2851 71.4132 13.2851ZM69.8346 11.7524C70.2702 12.1844 70.7832 12.3959 71.4132 12.3959C71.7047 12.4015 71.9941 12.3472 72.2638 12.2365C72.5334 12.1259 72.7775 11.9611 72.981 11.7524C73.4094 11.3231 73.6281 10.7678 73.6281 10.1C73.6281 9.4358 73.4094 8.8805 72.9801 8.4512C72.5589 8.0219 72.0315 7.8077 71.4132 7.8077C70.7868 7.8077 70.2702 8.0183 69.8346 8.4512C69.4089 8.8805 69.1911 9.4358 69.1911 10.1C69.1911 10.7678 69.4089 11.324 69.8346 11.7524ZM80.2791 13.1474H79.3512L79.3269 13.1096L76.3947 8.4584L76.4226 9.3692V13.1483H75.4947V7.0553H76.5567L79.3755 11.5166L79.3485 10.613V7.0553H80.2791V13.1474ZM68.1327 21.737C65.7882 21.737 63.8685 23.5055 63.8685 25.9445C63.8685 28.3673 65.7882 30.1565 68.1327 30.1565C70.488 30.1565 72.4077 28.3673 72.4077 25.9445C72.4077 23.5055 70.488 21.737 68.1327 21.737ZM68.1327 28.4969C66.8457 28.4969 65.7387 27.443 65.7387 25.9445C65.7387 24.4298 66.8457 23.393 68.1327 23.393C69.4233 23.393 70.5375 24.4298 70.5375 25.9445C70.5375 27.443 69.4233 28.4969 68.1327 28.4969ZM58.824 21.737C56.4687 21.737 54.5562 23.5055 54.5562 25.9445C54.5562 28.3673 56.4687 30.1565 58.824 30.1565C61.1766 30.1565 63.0927 28.3673 63.0927 25.9445C63.0927 23.5055 61.1757 21.737 58.824 21.737ZM58.824 28.4969C57.5343 28.4969 56.4228 27.443 56.4228 25.9445C56.4228 24.4298 57.5343 23.393 58.824 23.393C60.111 23.393 61.2216 24.4298 61.2216 25.9445C61.2216 27.443 60.111 28.4969 58.824 28.4969ZM47.7432 23.0267V24.8168H52.0605C51.9345 25.8149 51.5961 26.5493 51.0795 27.0632C50.4495 27.6815 49.4685 28.3673 47.7432 28.3673C45.0882 28.3673 43.0074 26.2469 43.0074 23.618C43.0074 20.9882 45.0891 18.8642 47.7432 18.8642C49.1814 18.8642 50.2254 19.4195 50.9949 20.1404L52.2711 18.8786C51.1911 17.8589 49.7574 17.0786 47.7432 17.0786C44.1009 17.0786 41.0427 20.0108 41.0427 23.618C41.0427 27.2207 44.1045 30.1565 47.7432 30.1565C49.7115 30.1565 51.192 29.5175 52.3557 28.3178C53.5473 27.1406 53.9163 25.481 53.9163 24.1445C53.9163 23.7269 53.8812 23.3471 53.8218 23.0267H47.7432ZM93.0528 24.4127C92.7009 23.4695 91.6182 21.737 89.4105 21.737C87.2199 21.737 85.3992 23.4416 85.3992 25.9445C85.3992 28.3043 87.2028 30.1565 89.6175 30.1565C91.5723 30.1565 92.7009 28.9757 93.1617 28.2899L91.7127 27.3332C91.2276 28.0334 90.5697 28.4969 89.6175 28.4969C88.6725 28.4969 87.9939 28.0685 87.5574 27.2207L93.2454 24.8897C93.249 24.8897 93.0528 24.4127 93.0528 24.4127ZM87.2514 25.8149C87.2028 24.1904 88.524 23.3606 89.4744 23.3606C90.2151 23.3606 90.8442 23.7269 91.0557 24.2543L87.2514 25.8149ZM82.629 29.9H84.4992V17.525H82.629V29.9ZM79.5663 22.6721H79.5033C79.0848 22.1834 78.2829 21.7361 77.2677 21.7361C75.1365 21.7361 73.1889 23.5856 73.1889 25.9589C73.1889 28.3214 75.1365 30.1565 77.2677 30.1565C78.2829 30.1565 79.0857 29.7065 79.5033 29.2007H79.5663V29.8019C79.5663 31.412 78.6978 32.2769 77.2956 32.2769C76.1526 32.2769 75.4461 31.4606 75.1509 30.7757L73.5264 31.4471C73.9944 32.5613 75.2355 33.9356 77.2956 33.9356C79.4889 33.9356 81.3384 32.6594 81.3384 29.5526V21.9926H79.5663V22.6721ZM77.4252 28.4969C76.1382 28.4969 75.0591 27.4286 75.0591 25.9589C75.0591 24.4757 76.1391 23.393 77.4261 23.393C78.6978 23.393 79.6968 24.4757 79.6968 25.9589C79.6968 27.4286 78.6978 28.4969 77.4252 28.4969ZM101.806 17.525H97.3341V29.9H99.2016V25.211H101.806C103.881 25.211 105.909 23.726 105.909 21.368C105.909 19.0082 103.874 17.525 101.806 17.525ZM101.856 23.4911H99.2007V19.2476H101.856C103.248 19.2476 104.043 20.3906 104.043 21.368C104.043 22.3238 103.248 23.4911 101.856 23.4911ZM113.383 21.7118C112.037 21.7118 110.638 22.3031 110.062 23.6072L111.713 24.293C112.072 23.6072 112.726 23.3822 113.419 23.3822C114.386 23.3822 115.367 23.9582 115.381 24.9752V25.1048C115.043 24.9113 114.322 24.6269 113.432 24.6269C111.65 24.6269 109.836 25.5971 109.836 27.4106C109.836 29.0702 111.295 30.1358 112.937 30.1358C114.192 30.1358 114.884 29.5733 115.321 28.9226H115.384V29.8793H117.184V25.1327C117.184 22.9394 115.528 21.7118 113.383 21.7118ZM113.158 28.4933C112.546 28.4933 111.7 28.1918 111.7 27.443C111.7 26.4863 112.757 26.12 113.675 26.12C114.498 26.12 114.881 26.3 115.38 26.5358C115.236 27.6815 114.237 28.4933 113.158 28.4933ZM123.747 21.9827L121.603 27.3476H121.54L119.321 21.9836H117.311L120.64 29.4779L118.741 33.6512H120.689L125.818 21.9827H123.748H123.747ZM106.934 29.9H108.806V17.525H106.934V29.9Z" fill="white"/>
<path d="M10.4346 7.66371C10.143 7.96971 9.97021 8.44041 9.97021 9.05601V30.9476C9.97021 31.5632 10.1394 32.0339 10.4346 32.3399L10.5084 32.4065L22.9014 20.144V19.856L10.5075 7.59351L10.4346 7.66371Z" fill="url(#paint0_linear_0_9696)"/>
<path d="M27.0279 24.2363L22.9005 20.144V19.856L27.0315 15.7673L27.1233 15.8195L32.0166 18.5762C33.4125 19.3601 33.4125 20.6435 32.0166 21.431L27.1233 24.1832C27.1233 24.1805 27.0279 24.2363 27.0279 24.2363Z" fill="url(#paint1_linear_0_9696)"/>
<path d="M27.1233 24.1805L22.9005 20L10.4346 32.339C10.8981 32.8214 11.6541 32.8808 12.5154 32.3993L27.1233 24.1805Z" fill="url(#paint2_linear_0_9696)"/>
<path d="M27.1233 15.8195L12.5163 7.60072C11.6541 7.12192 10.8981 7.18222 10.4346 7.66372L22.9005 20L27.1233 15.8195Z" fill="url(#paint3_linear_0_9696)"/>
</g>
<defs>
<linearGradient id="paint0_linear_0_9696" x1="21.8068" y1="31.1742" x2="5.18663" y2="14.3865" gradientUnits="userSpaceOnUse">
<stop stop-color="#00A0FF"/>
<stop offset="0.007" stop-color="#00A1FF"/>
<stop offset="0.26" stop-color="#00BEFF"/>
<stop offset="0.512" stop-color="#00D2FF"/>
<stop offset="0.76" stop-color="#00DFFF"/>
<stop offset="1" stop-color="#00E3FF"/>
</linearGradient>
<linearGradient id="paint1_linear_0_9696" x1="33.8469" y1="19.9915" x2="9.64113" y2="19.9915" gradientUnits="userSpaceOnUse">
<stop stop-color="#FFE000"/>
<stop offset="0.409" stop-color="#FFBD00"/>
<stop offset="0.775" stop-color="#FFA500"/>
<stop offset="1" stop-color="#FF9C00"/>
</linearGradient>
<linearGradient id="paint2_linear_0_9696" x1="16.4886" y1="25.9817" x2="-6.04977" y2="3.21626" gradientUnits="userSpaceOnUse">
<stop stop-color="#FF3A44"/>
<stop offset="1" stop-color="#C31162"/>
</linearGradient>
<linearGradient id="paint3_linear_0_9696" x1="-1.04532" y1="31.3626" x2="9.01907" y2="21.1968" gradientUnits="userSpaceOnUse">
<stop stop-color="#32A071"/>
<stop offset="0.069" stop-color="#2DA771"/>
<stop offset="0.476" stop-color="#15CF74"/>
<stop offset="0.801" stop-color="#06E775"/>
<stop offset="1" stop-color="#00F076"/>
</linearGradient>
<clipPath id="clip0_0_9696">
<rect width="135" height="40" fill="white"/>
</clipPath>
</defs>
</svg>
