<svg width="120" height="41" viewBox="0 0 120 41" fill="none" xmlns="http://www.w3.org/2000/svg">
<g clip-path="url(#clip0_0_9951)">
<path d="M110.303 0.166016H9.70294C9.33595 0.166016 8.97294 0.166016 8.60794 0.168016C8.30194 0.170016 7.99795 0.176016 7.68895 0.181016C7.01747 0.188348 6.34753 0.246851 5.68495 0.356016C5.02367 0.468223 4.38312 0.679604 3.78495 0.983016C3.18666 1.28937 2.64004 1.68753 2.16495 2.16302C1.6882 2.63634 1.29078 3.18334 0.987945 3.78302C0.684024 4.38186 0.473264 5.02358 0.362945 5.68602C0.251673 6.34773 0.191828 7.01706 0.183945 7.68802C0.173945 7.99502 0.173945 8.30302 0.168945 8.60902V31.726C0.173945 32.036 0.174945 32.336 0.183945 32.647C0.192154 33.318 0.252334 33.9873 0.363945 34.649C0.473553 35.3121 0.683989 35.9546 0.987945 36.554C1.29107 37.1514 1.68888 37.6958 2.16595 38.166C2.6387 38.6431 3.18498 39.0412 3.78395 39.345C4.38247 39.6491 5.02329 39.8614 5.68495 39.975C6.34759 40.0839 7.01746 40.1431 7.68895 40.152C7.99895 40.159 8.30194 40.163 8.60794 40.163C8.97394 40.165 9.33595 40.165 9.70294 40.165H110.303C110.663 40.165 111.027 40.165 111.387 40.163C111.691 40.163 112.004 40.159 112.309 40.153C112.979 40.1442 113.648 40.0847 114.309 39.975C114.973 39.8606 115.616 39.6483 116.217 39.345C116.816 39.041 117.361 38.643 117.834 38.166C118.31 37.6934 118.709 37.1487 119.016 36.552C119.318 35.9522 119.527 35.3098 119.635 34.647C119.746 33.9852 119.808 33.316 119.82 32.645C119.824 32.335 119.824 32.035 119.824 31.724C119.832 31.36 119.832 30.999 119.832 30.63V9.70202C119.832 9.33602 119.832 8.97202 119.824 8.61002C119.824 8.30402 119.824 7.99602 119.82 7.69002C119.808 7.01868 119.746 6.34916 119.635 5.68702C119.526 5.02492 119.317 4.38325 119.015 3.78402C118.398 2.58113 117.419 1.6019 116.217 0.984016C115.616 0.681288 114.973 0.469962 114.309 0.357016C113.648 0.247053 112.979 0.188212 112.309 0.181016C112.004 0.176016 111.691 0.170016 111.387 0.168016C111.027 0.166016 110.662 0.166016 110.303 0.166016Z" fill="#A6A6A6"/>
<path d="M8.61302 39.291C8.30802 39.291 8.01102 39.287 7.70902 39.281C7.08249 39.2726 6.45744 39.2178 5.83902 39.117C5.26286 39.0176 4.70472 38.8329 4.18302 38.569C3.6659 38.3074 3.19422 37.9644 2.78602 37.553C2.37208 37.1461 2.02753 36.6742 1.76602 36.156C1.50108 35.6347 1.31762 35.0759 1.22202 34.499C1.11931 33.8791 1.06382 33.2523 1.05602 32.624C1.04902 32.414 1.04102 31.711 1.04102 31.711V8.61102C1.04102 8.61102 1.05002 7.91902 1.05602 7.71602C1.06347 7.08873 1.11863 6.46293 1.22102 5.84402C1.31663 5.26554 1.50008 4.70507 1.76502 4.18202C2.02573 3.66432 2.36849 3.19222 2.78002 2.78402C3.19097 2.37179 3.66406 2.0266 4.18202 1.76102C4.70266 1.49791 5.25988 1.31453 5.83502 1.21702C6.45538 1.11558 7.08246 1.06076 7.71102 1.05302L8.61302 1.04102H111.382L112.295 1.05402C112.918 1.06124 113.539 1.11539 114.153 1.21602C114.734 1.31473 115.297 1.49943 115.824 1.76402C116.862 2.29889 117.706 3.14509 118.239 4.18402C118.499 4.70356 118.68 5.25952 118.774 5.83302C118.878 6.45694 118.936 7.08762 118.948 7.72002C118.951 8.00302 118.951 8.30802 118.951 8.61002C118.959 8.98502 118.959 9.34202 118.959 9.70202V30.631C118.959 30.994 118.959 31.349 118.951 31.706C118.951 32.031 118.951 32.329 118.947 32.636C118.936 33.257 118.879 33.8763 118.777 34.489C118.684 35.0701 118.502 35.6333 118.237 36.159C117.973 36.6716 117.63 37.1393 117.221 37.545C116.812 37.9587 116.34 38.3038 115.821 38.567C115.296 38.8331 114.733 39.0185 114.153 39.117C113.535 39.2179 112.91 39.2724 112.284 39.28C111.991 39.287 111.684 39.291 111.387 39.291L110.303 39.293L8.61302 39.291Z" fill="black"/>
<path d="M24.937 20.466C24.9478 19.6316 25.1696 18.8134 25.5815 18.0877C25.9934 17.3619 26.5821 16.7521 27.293 16.315C26.8414 15.6699 26.2456 15.139 25.553 14.7644C24.8604 14.3898 24.09 14.1819 23.303 14.157C21.623 13.981 19.995 15.162 19.139 15.162C18.267 15.162 16.949 14.174 15.531 14.204C14.6132 14.2336 13.7189 14.5005 12.935 14.9785C12.1511 15.4566 11.5044 16.1296 11.058 16.932C9.12396 20.28 10.567 25.201 12.419 27.908C13.346 29.233 14.429 30.713 15.847 30.661C17.234 30.603 17.752 29.776 19.427 29.776C21.085 29.776 21.571 30.661 23.017 30.628C24.506 30.603 25.443 29.296 26.337 27.958C27.0034 27.0139 27.5164 25.9703 27.857 24.866C26.992 24.5003 26.2538 23.8881 25.7345 23.1056C25.2153 22.3231 24.9379 21.4051 24.937 20.466ZM22.205 12.376C23.0165 11.402 23.4165 10.1501 23.32 8.88599C22.0799 9.01616 20.9345 9.60888 20.112 10.546C19.7099 11.0034 19.402 11.5356 19.2057 12.1122C19.0094 12.6887 18.9286 13.2982 18.968 13.906C19.5881 13.9124 20.2016 13.778 20.7623 13.513C21.323 13.248 21.8162 12.8592 22.205 12.376Z" fill="white"/>
<path d="M42.4699 27.3059H37.7379L36.6009 30.6619H34.5959L39.0799 18.2439H41.1629L45.6459 30.6619H43.6069L42.4699 27.3059ZM38.2269 25.7559H41.9789L40.1289 20.3099H40.0779L38.2269 25.7559ZM55.3269 26.1359C55.3269 28.9489 53.8219 30.7559 51.5489 30.7559C50.9735 30.7859 50.4012 30.6533 49.8976 30.3734C49.394 30.0934 48.9793 29.6774 48.7009 29.1729H48.6579V33.6569H46.7979V21.6079H48.5979V23.1139H48.6309C48.922 22.6115 49.3438 22.1974 49.8515 21.9157C50.3591 21.634 50.9337 21.4951 51.5139 21.5139C53.8119 21.5139 55.3269 23.3299 55.3269 26.1359ZM53.4169 26.1359C53.4169 24.3029 52.4699 23.0979 51.0249 23.0979C49.6049 23.0979 48.6499 24.3279 48.6499 26.1359C48.6499 27.9599 49.6049 29.1819 51.0249 29.1819C52.4699 29.1819 53.4169 27.9849 53.4169 26.1359ZM65.2929 26.1359C65.2929 28.9489 63.7869 30.7559 61.5139 30.7559C60.9385 30.7859 60.3662 30.6533 59.8626 30.3734C59.359 30.0934 58.9443 29.6774 58.6659 29.1729H58.6229V33.6569H56.7639V21.6079H58.5629V23.1139H58.5969C58.888 22.6115 59.3098 22.1974 59.8175 21.9157C60.3251 21.634 60.8997 21.4951 61.4799 21.5139C63.7779 21.5139 65.2929 23.3299 65.2929 26.1359ZM63.3829 26.1359C63.3829 24.3029 62.4349 23.0979 60.9899 23.0979C59.5699 23.0979 58.6149 24.3279 58.6149 26.1359C58.6149 27.9599 59.5699 29.1819 60.9899 29.1819C62.4349 29.1819 63.3829 27.9849 63.3829 26.1359ZM71.8779 27.2019C72.0159 28.4339 73.2119 29.2419 74.8479 29.2419C76.4139 29.2419 77.5409 28.4339 77.5409 27.3229C77.5409 26.3589 76.8609 25.7829 75.2509 25.3869L73.6419 24.9989C71.3619 24.4489 70.3029 23.3819 70.3029 21.6509C70.3029 19.5089 72.1699 18.0369 74.8219 18.0369C77.4459 18.0369 79.2449 19.5089 79.3049 21.6509H77.4289C77.3169 20.4119 76.2929 19.6639 74.7949 19.6639C73.2969 19.6639 72.2739 20.4209 72.2739 21.5219C72.2739 22.3999 72.9279 22.9169 74.5289 23.3119L75.8969 23.6479C78.4449 24.2509 79.5029 25.2739 79.5029 27.0909C79.5029 29.4139 77.6529 30.8689 74.7099 30.8689C71.9559 30.8689 70.0959 29.4489 69.9759 27.2019H71.8779ZM83.5139 19.4659V21.6079H85.2359V23.0799H83.5139V28.0709C83.5139 28.8469 83.8589 29.2079 84.6159 29.2079C84.8202 29.2043 85.0242 29.1899 85.2269 29.1649V30.6279C84.8867 30.6914 84.541 30.7203 84.1949 30.7139C82.3619 30.7139 81.6469 30.0249 81.6469 28.2689V23.0799H80.3309V21.6079H81.6469V19.4659H83.5139ZM86.2329 26.1359C86.2329 23.2869 87.9109 21.4969 90.5269 21.4969C93.1519 21.4969 94.8219 23.2869 94.8219 26.1359C94.8219 28.9919 93.1609 30.7739 90.5269 30.7739C87.8939 30.7739 86.2329 28.9919 86.2329 26.1359ZM92.9279 26.1359C92.9279 24.1819 92.0329 23.0279 90.5269 23.0279C89.0209 23.0279 88.1269 24.1899 88.1269 26.1359C88.1269 28.0979 89.0209 29.2419 90.5269 29.2419C92.0329 29.2419 92.9279 28.0979 92.9279 26.1359ZM96.3539 21.6079H98.1269V23.1489H98.1699C98.2901 22.6679 98.572 22.2429 98.9684 21.9452C99.3648 21.6475 99.8516 21.4952 100.347 21.5139C100.561 21.513 100.775 21.5361 100.984 21.5829V23.3209C100.714 23.2384 100.432 23.2005 100.149 23.2089C99.879 23.1979 99.6098 23.2455 99.3599 23.3484C99.11 23.4512 98.8854 23.607 98.7014 23.8049C98.5173 24.0027 98.3783 24.2381 98.2938 24.4948C98.2094 24.7515 98.1814 25.0234 98.2119 25.2919V30.6619H96.3539V21.6079ZM109.552 28.0029C109.302 29.6459 107.702 30.7739 105.654 30.7739C103.02 30.7739 101.385 29.0099 101.385 26.1789C101.385 23.3389 103.029 21.4969 105.575 21.4969C108.081 21.4969 109.655 23.2169 109.655 25.9629V26.5999H103.261V26.7119C103.231 27.0451 103.273 27.3807 103.384 27.6965C103.494 28.0124 103.67 28.3011 103.9 28.5436C104.131 28.7861 104.41 28.9768 104.72 29.1031C105.03 29.2293 105.363 29.2882 105.697 29.2759C106.136 29.3169 106.576 29.2152 106.953 28.9859C107.33 28.7565 107.622 28.4118 107.787 28.0029H109.552ZM103.27 25.3009H107.796C107.813 25.0013 107.767 24.7015 107.663 24.4203C107.558 24.1391 107.397 23.8826 107.188 23.6668C106.98 23.451 106.729 23.2807 106.451 23.1664C106.174 23.0521 105.876 22.9965 105.576 23.0029C105.273 23.001 104.973 23.0591 104.693 23.1739C104.413 23.2886 104.158 23.4577 103.944 23.6713C103.73 23.885 103.56 24.139 103.444 24.4187C103.328 24.6984 103.269 24.9982 103.27 25.3009Z" fill="white"/>
<path d="M37.9941 8.89703C38.3838 8.86907 38.7747 8.92793 39.1389 9.06937C39.503 9.21081 39.8312 9.4313 40.0999 9.71494C40.3685 9.99857 40.5708 10.3383 40.6922 10.7096C40.8137 11.0809 40.8512 11.4745 40.8021 11.862C40.8021 13.768 39.7721 14.864 37.9941 14.864H35.8391V8.89603L37.9941 8.89703ZM36.7661 14.02H37.8911C38.1694 14.0365 38.448 13.9908 38.7064 13.8861C38.9648 13.7814 39.1967 13.6205 39.3851 13.4149C39.5735 13.2094 39.7137 12.9644 39.7955 12.6979C39.8773 12.4313 39.8987 12.1499 39.8581 11.874C39.8958 11.5992 39.8723 11.3195 39.7893 11.0549C39.7062 10.7903 39.5657 10.5473 39.3777 10.3433C39.1897 10.1394 38.9589 9.97954 38.7019 9.87524C38.4449 9.77094 38.168 9.72477 37.8911 9.74003H36.7661V14.02ZM41.8491 12.61C41.8211 12.3143 41.8552 12.016 41.9492 11.7341C42.0431 11.4523 42.1949 11.1933 42.3949 10.9735C42.5948 10.7538 42.8384 10.5782 43.1101 10.4581C43.3818 10.338 43.6755 10.2759 43.9726 10.2759C44.2697 10.2759 44.5635 10.338 44.8352 10.4581C45.1068 10.5782 45.3505 10.7538 45.5504 10.9735C45.7503 11.1933 45.9021 11.4523 45.9961 11.7341C46.09 12.016 46.1241 12.3143 46.0961 12.61C46.1256 12.9066 46.0927 13.2061 45.9994 13.4892C45.9062 13.7723 45.7546 14.0328 45.5546 14.2537C45.3545 14.4747 45.1104 14.6513 44.8379 14.7722C44.5654 14.893 44.2707 14.9555 43.9726 14.9555C43.6745 14.9555 43.3798 14.893 43.1073 14.7722C42.8348 14.6513 42.5907 14.4747 42.3907 14.2537C42.1906 14.0328 42.0391 13.7723 41.9458 13.4892C41.8525 13.2061 41.8196 12.9066 41.8491 12.61ZM45.1821 12.61C45.1821 11.634 44.7431 11.063 43.9741 11.063C43.2011 11.063 42.7671 11.634 42.7671 12.61C42.7671 13.594 43.2011 14.16 43.9741 14.16C44.7441 14.16 45.1821 13.59 45.1821 12.61ZM51.7421 14.864H50.8191L49.8891 11.547H49.8191L48.8921 14.864H47.9791L46.7371 10.361H47.6391L48.4451 13.797H48.5121L49.4381 10.361H50.2901L51.2161 13.797H51.2861L52.0891 10.361H52.9781L51.7421 14.864ZM54.0221 10.361H54.8771V11.076H54.9431C55.0558 10.8191 55.2459 10.6038 55.4868 10.46C55.7277 10.3162 56.0075 10.2512 56.2871 10.274C56.5062 10.2576 56.7263 10.2906 56.9309 10.3707C57.1355 10.4508 57.3195 10.5759 57.4692 10.7368C57.6189 10.8977 57.7305 11.0901 57.7958 11.3C57.861 11.5098 57.8782 11.7316 57.8461 11.949V14.864H56.9571V12.172C56.9571 11.448 56.6431 11.088 55.9851 11.088C55.8364 11.0811 55.6879 11.1065 55.5499 11.1623C55.4119 11.2182 55.2876 11.3032 55.1855 11.4115C55.0834 11.5199 55.0059 11.6491 54.9584 11.7902C54.9109 11.9313 54.8944 12.081 54.9101 12.229V14.864H54.0221V10.361ZM59.2621 8.60303H60.1501V14.863H59.2621V8.60303ZM61.3861 12.61C61.3581 12.3143 61.3922 12.016 61.4862 11.7341C61.5801 11.4523 61.7319 11.1933 61.9319 10.9735C62.1318 10.7538 62.3754 10.5782 62.6471 10.4581C62.9188 10.338 63.2125 10.2759 63.5096 10.2759C63.8067 10.2759 64.1005 10.338 64.3722 10.4581C64.6439 10.5782 64.8875 10.7538 65.0874 10.9735C65.2873 11.1933 65.4391 11.4523 65.5331 11.7341C65.627 12.016 65.6611 12.3143 65.6331 12.61C65.6626 12.9066 65.6297 13.2061 65.5364 13.4892C65.4432 13.7723 65.2916 14.0328 65.0916 14.2537C64.8915 14.4747 64.6474 14.6513 64.3749 14.7722C64.1024 14.893 63.8077 14.9555 63.5096 14.9555C63.2115 14.9555 62.9168 14.893 62.6443 14.7722C62.3718 14.6513 62.1277 14.4747 61.9277 14.2537C61.7276 14.0328 61.5761 13.7723 61.4828 13.4892C61.3895 13.2061 61.3566 12.9066 61.3861 12.61ZM64.7191 12.61C64.7191 11.634 64.2801 11.063 63.5111 11.063C62.7381 11.063 62.3041 11.634 62.3041 12.61C62.3041 13.594 62.7381 14.16 63.5111 14.16C64.2811 14.16 64.7191 13.59 64.7191 12.61ZM66.5691 13.59C66.5691 12.78 67.1721 12.312 68.2441 12.246L69.4641 12.176V11.787C69.4641 11.312 69.1491 11.043 68.5421 11.043C68.0451 11.043 67.7021 11.225 67.6031 11.543H66.7431C66.8331 10.77 67.5611 10.273 68.5831 10.273C69.7111 10.273 70.3481 10.836 70.3481 11.787V14.864H69.4931V14.231H69.4231C69.2804 14.4581 69.0799 14.6432 68.8422 14.7674C68.6045 14.8916 68.338 14.9505 68.0701 14.938C67.881 14.9577 67.6899 14.9376 67.5091 14.8789C67.3283 14.8202 67.1618 14.7242 67.0204 14.5972C66.879 14.4702 66.7657 14.3149 66.688 14.1415C66.6103 13.968 66.5698 13.7801 66.5691 13.59ZM69.4631 13.206V12.829L68.3631 12.899C67.7431 12.941 67.4631 13.152 67.4631 13.549C67.4631 13.954 67.8141 14.189 68.2971 14.189C68.4386 14.2033 68.5816 14.189 68.7175 14.147C68.8534 14.1049 68.9794 14.036 69.0882 13.9443C69.1969 13.8527 69.2862 13.7401 69.3506 13.6132C69.415 13.4864 69.4532 13.3479 69.4631 13.206ZM71.5161 12.61C71.5161 11.187 72.2481 10.286 73.3861 10.286C73.6674 10.2732 73.9465 10.3407 74.1909 10.4806C74.4352 10.6205 74.6347 10.827 74.7661 11.076H74.8331V8.60303H75.7211V14.863H74.8701V14.153H74.8001C74.6583 14.4005 74.4515 14.6045 74.2021 14.7429C73.9527 14.8813 73.6701 14.9487 73.3851 14.938C72.2401 14.938 71.5161 14.037 71.5161 12.61ZM72.4341 12.61C72.4341 13.565 72.8841 14.14 73.6371 14.14C74.3871 14.14 74.8491 13.557 74.8491 12.614C74.8491 11.676 74.3811 11.084 73.6371 11.084C72.8891 11.084 72.4341 11.664 72.4341 12.61ZM79.3981 12.61C79.3701 12.3143 79.4042 12.016 79.4982 11.7341C79.5921 11.4523 79.7439 11.1933 79.9439 10.9735C80.1438 10.7538 80.3874 10.5782 80.6591 10.4581C80.9308 10.338 81.2245 10.2759 81.5216 10.2759C81.8187 10.2759 82.1125 10.338 82.3842 10.4581C82.6559 10.5782 82.8995 10.7538 83.0994 10.9735C83.2993 11.1933 83.4511 11.4523 83.5451 11.7341C83.639 12.016 83.6731 12.3143 83.6451 12.61C83.6746 12.9066 83.6417 13.2061 83.5484 13.4892C83.4552 13.7723 83.3036 14.0328 83.1036 14.2537C82.9035 14.4747 82.6594 14.6513 82.3869 14.7722C82.1144 14.893 81.8197 14.9555 81.5216 14.9555C81.2235 14.9555 80.9288 14.893 80.6563 14.7722C80.3838 14.6513 80.1397 14.4747 79.9397 14.2537C79.7396 14.0328 79.5881 13.7723 79.4948 13.4892C79.4015 13.2061 79.3686 12.9066 79.3981 12.61ZM82.7311 12.61C82.7311 11.634 82.2931 11.063 81.5231 11.063C80.7511 11.063 80.3161 11.634 80.3161 12.61C80.3161 13.594 80.7511 14.16 81.5231 14.16C82.2931 14.16 82.7311 13.59 82.7311 12.61ZM84.8371 10.36H85.6931V11.076H85.7591C85.8718 10.8191 86.0619 10.6038 86.3028 10.46C86.5437 10.3162 86.8235 10.2512 87.1031 10.274C87.3222 10.2576 87.5423 10.2906 87.7469 10.3707C87.9515 10.4508 88.1355 10.5759 88.2852 10.7368C88.4349 10.8977 88.5466 11.0901 88.6118 11.3C88.677 11.5098 88.6942 11.7316 88.6621 11.949V14.864H87.7731V12.172C87.7731 11.448 87.4591 11.088 86.8011 11.088C86.6524 11.0811 86.5039 11.1065 86.3659 11.1623C86.2279 11.2182 86.1036 11.3032 86.0015 11.4115C85.8994 11.5199 85.8219 11.6491 85.7744 11.7902C85.7269 11.9313 85.7104 12.081 85.7261 12.229V14.864H84.8371V10.36ZM93.6831 9.24003V10.381H94.6591V11.13H93.6831V13.445C93.6831 13.917 93.8771 14.124 94.3201 14.124C94.4334 14.1235 94.5466 14.1165 94.6591 14.103V14.843C94.4993 14.8718 94.3374 14.8872 94.1751 14.889C93.1871 14.889 92.7941 14.541 92.7941 13.673V11.13H92.0791V10.381H92.7941V9.24003H93.6831ZM95.8731 8.60303H96.7531V11.084H96.8231C96.9414 10.8247 97.1369 10.6082 97.3827 10.4639C97.6286 10.3197 97.913 10.2548 98.1971 10.278C98.4151 10.2662 98.6329 10.3026 98.8352 10.3847C99.0374 10.4668 99.219 10.5925 99.3671 10.7529C99.5151 10.9133 99.626 11.1044 99.6916 11.3125C99.7573 11.5206 99.7763 11.7407 99.7471 11.957V14.864H98.8581V12.176C98.8581 11.456 98.5231 11.092 97.8951 11.092C97.7423 11.0795 97.5886 11.1005 97.4448 11.1535C97.301 11.2066 97.1705 11.2905 97.0625 11.3992C96.9544 11.508 96.8715 11.6391 96.8194 11.7833C96.7674 11.9275 96.7475 12.0813 96.7611 12.234V14.864H95.8731V8.60303ZM104.929 13.648C104.808 14.0594 104.547 14.4153 104.191 14.6535C103.834 14.8916 103.405 14.997 102.979 14.951C102.682 14.9591 102.387 14.9024 102.115 14.7849C101.842 14.6674 101.598 14.4919 101.4 14.2706C101.202 14.0494 101.054 13.7877 100.968 13.5036C100.881 13.2196 100.857 12.9202 100.898 12.626C100.859 12.3312 100.883 12.0314 100.97 11.7468C101.056 11.4622 101.203 11.1995 101.4 10.9765C101.596 10.7535 101.839 10.5754 102.111 10.4542C102.382 10.333 102.677 10.2715 102.974 10.274C104.227 10.274 104.983 11.13 104.983 12.544V12.854H101.803V12.904C101.789 13.0693 101.81 13.2358 101.864 13.3926C101.918 13.5494 102.005 13.6932 102.118 13.8146C102.231 13.9361 102.368 14.0326 102.52 14.0979C102.673 14.1633 102.837 14.196 103.003 14.194C103.215 14.2192 103.431 14.1807 103.621 14.0835C103.812 13.9863 103.969 13.8347 104.073 13.648H104.929ZM101.803 12.197H104.078C104.089 12.0458 104.069 11.8939 104.018 11.751C103.967 11.6081 103.887 11.4775 103.782 11.3676C103.678 11.2577 103.552 11.1708 103.411 11.1127C103.271 11.0545 103.121 11.0264 102.969 11.03C102.815 11.0281 102.663 11.0571 102.52 11.115C102.378 11.173 102.249 11.2589 102.14 11.3677C102.031 11.4765 101.946 11.6059 101.888 11.7483C101.83 11.8907 101.801 12.0433 101.803 12.197Z" fill="white"/>
</g>
<defs>
<clipPath id="clip0_0_9951">
<rect width="120" height="40" fill="white" transform="translate(0 0.166016)"/>
</clipPath>
</defs>
</svg>
