<svg width="120" height="40" viewBox="0 0 120 40" fill="none" xmlns="http://www.w3.org/2000/svg">
<g clip-path="url(#clip0_0_10259)">
<path d="M109.302 0H8.70197C8.33497 0 7.97197 0 7.60697 0.002C7.30097 0.004 6.99697 0.01 6.68797 0.015C6.01649 0.0223323 5.34655 0.0808351 4.68397 0.19C4.02269 0.302207 3.38215 0.513588 2.78397 0.817C2.18568 1.12335 1.63906 1.52151 1.16397 1.997C0.687224 2.47032 0.289804 3.01732 -0.0130312 3.617C-0.316953 4.21585 -0.527712 4.85757 -0.638031 5.52C-0.749303 6.18171 -0.809149 6.85105 -0.817031 7.522C-0.827031 7.829 -0.827031 8.137 -0.832031 8.443V31.56C-0.827031 31.87 -0.826031 32.17 -0.817031 32.481C-0.808822 33.152 -0.748642 33.8213 -0.637031 34.483C-0.527423 35.1461 -0.316988 35.7885 -0.0130312 36.388C0.290092 36.9854 0.687902 37.5297 1.16497 38C1.63772 38.4771 2.18401 38.8751 2.78297 39.179C3.38149 39.4831 4.02232 39.6954 4.68397 39.809C5.34662 39.9179 6.01649 39.9771 6.68797 39.986C6.99797 39.993 7.30097 39.997 7.60697 39.997C7.97297 39.999 8.33497 39.999 8.70197 39.999H109.302C109.662 39.999 110.026 39.999 110.386 39.997C110.69 39.997 111.003 39.993 111.308 39.987C111.978 39.9782 112.647 39.9187 113.308 39.809C113.972 39.6946 114.615 39.4823 115.216 39.179C115.815 38.875 116.36 38.4769 116.833 38C117.309 37.5273 117.708 36.9827 118.015 36.386C118.317 35.7862 118.526 35.1438 118.634 34.481C118.745 33.8192 118.807 33.15 118.819 32.479C118.823 32.169 118.823 31.869 118.823 31.558C118.831 31.194 118.831 30.833 118.831 30.464V9.536C118.831 9.17 118.831 8.806 118.823 8.444C118.823 8.138 118.823 7.83 118.819 7.524C118.807 6.85266 118.745 6.18314 118.634 5.521C118.525 4.8589 118.316 4.21723 118.014 3.618C117.397 2.41511 116.418 1.43588 115.216 0.818C114.615 0.515273 113.972 0.303946 113.308 0.191C112.647 0.0810377 111.978 0.0221968 111.308 0.015C111.003 0.01 110.69 0.004 110.386 0.002C110.026 0 109.661 0 109.302 0Z" fill="#A6A6A6"/>
<path d="M7.61106 39.125C7.30606 39.125 7.00906 39.121 6.70706 39.115C6.08053 39.1066 5.45549 39.0518 4.83706 38.951C4.2609 38.8516 3.70277 38.6669 3.18106 38.403C2.66395 38.1414 2.19226 37.7984 1.78406 37.387C1.37013 36.9801 1.02558 36.5082 0.764063 35.99C0.499127 35.4687 0.315663 34.9099 0.220062 34.333C0.117356 33.7131 0.0618634 33.0863 0.0540625 32.458C0.0470625 32.248 0.0390625 31.545 0.0390625 31.545V8.445C0.0390625 8.445 0.0480625 7.753 0.0540625 7.55C0.0615151 6.92272 0.116674 6.29691 0.219062 5.678C0.314674 5.09952 0.498125 4.53905 0.763062 4.016C1.02377 3.4983 1.36654 3.0262 1.77806 2.618C2.18902 2.20578 2.6621 1.86058 3.18006 1.595C3.7007 1.33189 4.25792 1.14851 4.83306 1.051C5.45342 0.949562 6.08051 0.894742 6.70906 0.887L7.61106 0.875H110.38L111.293 0.888C111.916 0.895224 112.537 0.949378 113.151 1.05C113.732 1.14872 114.295 1.33341 114.822 1.598C115.86 2.13288 116.704 2.97908 117.237 4.018C117.498 4.53755 117.678 5.0935 117.772 5.667C117.876 6.29093 117.934 6.9216 117.946 7.554C117.949 7.837 117.949 8.142 117.949 8.444C117.957 8.819 117.957 9.176 117.957 9.536V30.465C117.957 30.828 117.957 31.183 117.949 31.54C117.949 31.865 117.949 32.163 117.945 32.47C117.934 33.091 117.877 33.7103 117.775 34.323C117.682 34.9041 117.5 35.4673 117.235 35.993C116.971 36.5056 116.629 36.9733 116.219 37.379C115.81 37.7927 115.338 38.1377 114.819 38.401C114.294 38.6671 113.732 38.8525 113.151 38.951C112.533 39.0519 111.908 39.1064 111.282 39.114C110.989 39.121 110.682 39.125 110.385 39.125L109.301 39.127L7.61106 39.125Z" fill="black"/>
<path d="M23.9379 20.3007C23.9488 19.4663 24.1705 18.6482 24.5824 17.9224C24.9944 17.1967 25.5831 16.5869 26.2939 16.1497C25.8423 15.5047 25.2466 14.9738 24.554 14.5992C23.8614 14.2246 23.091 14.0166 22.3039 13.9917C20.6239 13.8157 18.9959 14.9967 18.1399 14.9967C17.2679 14.9967 15.9499 14.0087 14.5319 14.0387C13.6142 14.0683 12.7198 14.3352 11.9359 14.8133C11.152 15.2913 10.5054 15.9644 10.0589 16.7667C8.12493 20.1147 9.56793 25.0357 11.4199 27.7427C12.3469 29.0677 13.4299 30.5477 14.8479 30.4957C16.2349 30.4377 16.7529 29.6107 18.4279 29.6107C20.0859 29.6107 20.5719 30.4957 22.0179 30.4627C23.5069 30.4377 24.4439 29.1307 25.3379 27.7927C26.0044 26.8486 26.5174 25.805 26.8579 24.7007C25.9929 24.335 25.2548 23.7228 24.7355 22.9403C24.2162 22.1578 23.9388 21.2398 23.9379 20.3007ZM21.2059 12.2107C22.0175 11.2368 22.4175 9.9848 22.3209 8.7207C21.0809 8.85088 19.9354 9.4436 19.1129 10.3807C18.7109 10.8382 18.4029 11.3704 18.2066 11.9469C18.0103 12.5234 17.9296 13.133 17.9689 13.7407C18.5891 13.7471 19.2026 13.6127 19.7633 13.3477C20.324 13.0827 20.8172 12.6939 21.2059 12.2107Z" fill="white"/>
<path d="M41.4717 27.1401H36.7397L35.6027 30.4961H33.5977L38.0817 18.0781H40.1647L44.6477 30.4961H42.6087L41.4717 27.1401ZM37.2287 25.5901H40.9807L39.1307 20.1441H39.0797L37.2287 25.5901ZM54.3287 25.9701C54.3287 28.7831 52.8237 30.5901 50.5507 30.5901C49.9752 30.6201 49.403 30.4875 48.8993 30.2076C48.3957 29.9277 47.981 29.5116 47.7027 29.0071H47.6597V33.4911H45.7997V21.4421H47.5997V22.9481H47.6327C47.9237 22.4457 48.3455 22.0317 48.8532 21.7499C49.3608 21.4682 49.9354 21.3293 50.5157 21.3481C52.8137 21.3481 54.3287 23.1641 54.3287 25.9701ZM52.4187 25.9701C52.4187 24.1371 51.4717 22.9321 50.0267 22.9321C48.6067 22.9321 47.6517 24.1621 47.6517 25.9701C47.6517 27.7941 48.6067 29.0161 50.0267 29.0161C51.4717 29.0161 52.4187 27.8191 52.4187 25.9701ZM64.2947 25.9701C64.2947 28.7831 62.7887 30.5901 60.5157 30.5901C59.9402 30.6201 59.368 30.4875 58.8643 30.2076C58.3607 29.9277 57.946 29.5116 57.6677 29.0071H57.6247V33.4911H55.7657V21.4421H57.5647V22.9481H57.5987C57.8897 22.4457 58.3115 22.0317 58.8192 21.7499C59.3268 21.4682 59.9014 21.3293 60.4817 21.3481C62.7797 21.3481 64.2947 23.1641 64.2947 25.9701ZM62.3847 25.9701C62.3847 24.1371 61.4367 22.9321 59.9917 22.9321C58.5717 22.9321 57.6167 24.1621 57.6167 25.9701C57.6167 27.7941 58.5717 29.0161 59.9917 29.0161C61.4367 29.0161 62.3847 27.8191 62.3847 25.9701ZM70.8797 27.0361C71.0177 28.2681 72.2137 29.0761 73.8497 29.0761C75.4157 29.0761 76.5427 28.2681 76.5427 27.1571C76.5427 26.1931 75.8627 25.6171 74.2527 25.2211L72.6437 24.8331C70.3637 24.2831 69.3047 23.2161 69.3047 21.4851C69.3047 19.3431 71.1717 17.8711 73.8237 17.8711C76.4477 17.8711 78.2467 19.3431 78.3067 21.4851H76.4307C76.3187 20.2461 75.2947 19.4981 73.7967 19.4981C72.2987 19.4981 71.2757 20.2551 71.2757 21.3561C71.2757 22.2341 71.9297 22.7511 73.5307 23.1461L74.8987 23.4821C77.4467 24.0851 78.5047 25.1081 78.5047 26.9251C78.5047 29.2481 76.6547 30.7031 73.7117 30.7031C70.9577 30.7031 69.0977 29.2831 68.9777 27.0361H70.8797ZM82.5157 19.3001V21.4421H84.2377V22.9141H82.5157V27.9051C82.5157 28.6811 82.8607 29.0421 83.6177 29.0421C83.8219 29.0385 84.0259 29.0242 84.2287 28.9991V30.4621C83.8885 30.5257 83.5427 30.5545 83.1967 30.5481C81.3637 30.5481 80.6487 29.8591 80.6487 28.1031V22.9141H79.3327V21.4421H80.6487V19.3001H82.5157ZM85.2347 25.9701C85.2347 23.1211 86.9127 21.3311 89.5287 21.3311C92.1537 21.3311 93.8237 23.1211 93.8237 25.9701C93.8237 28.8261 92.1627 30.6081 89.5287 30.6081C86.8957 30.6081 85.2347 28.8261 85.2347 25.9701ZM91.9297 25.9701C91.9297 24.0161 91.0347 22.8621 89.5287 22.8621C88.0227 22.8621 87.1287 24.0241 87.1287 25.9701C87.1287 27.9321 88.0227 29.0761 89.5287 29.0761C91.0347 29.0761 91.9297 27.9321 91.9297 25.9701ZM95.3557 21.4421H97.1287V22.9831H97.1717C97.2918 22.5021 97.5737 22.0771 97.9701 21.7794C98.3665 21.4817 98.8533 21.3294 99.3487 21.3481C99.5629 21.3472 99.7766 21.3704 99.9857 21.4171V23.1551C99.7153 23.0726 99.4332 23.0347 99.1507 23.0431C98.8807 23.0321 98.6115 23.0797 98.3616 23.1826C98.1117 23.2855 97.8871 23.4412 97.7031 23.6391C97.5191 23.837 97.38 24.0723 97.2956 24.329C97.2111 24.5857 97.1831 24.8576 97.2137 25.1261V30.4961H95.3557V21.4421ZM108.554 27.8371C108.304 29.4801 106.704 30.6081 104.656 30.6081C102.022 30.6081 100.387 28.8441 100.387 26.0131C100.387 23.1731 102.031 21.3311 104.577 21.3311C107.083 21.3311 108.657 23.0511 108.657 25.7971V26.4341H102.263V26.5461C102.233 26.8793 102.275 27.215 102.385 27.5308C102.495 27.8466 102.672 28.1353 102.902 28.3778C103.132 28.6204 103.412 28.8111 103.722 28.9373C104.031 29.0636 104.364 29.1225 104.699 29.1101C105.138 29.1511 105.578 29.0494 105.955 28.8201C106.331 28.5907 106.624 28.246 106.789 27.8371H108.554ZM102.272 25.1351H106.798C106.814 24.8355 106.769 24.5357 106.664 24.2545C106.56 23.9734 106.398 23.7168 106.19 23.501C105.981 23.2852 105.73 23.1149 105.453 23.0006C105.176 22.8864 104.878 22.8307 104.578 22.8371C104.275 22.8352 103.975 22.8934 103.695 23.0081C103.415 23.1228 103.16 23.2919 102.946 23.5055C102.731 23.7192 102.561 23.9732 102.446 24.2529C102.33 24.5326 102.271 24.8324 102.272 25.1351Z" fill="white"/>
<path d="M36.9948 8.7315C37.3845 8.70354 37.7755 8.76241 38.1396 8.90385C38.5038 9.04528 38.832 9.26577 39.1006 9.54941C39.3692 9.83304 39.5715 10.1728 39.693 10.544C39.8144 10.9153 39.8519 11.309 39.8028 11.6965C39.8028 13.6025 38.7728 14.6985 36.9948 14.6985H34.8398V8.7305L36.9948 8.7315ZM35.7668 13.8545H36.8918C37.1702 13.871 37.4487 13.8252 37.7071 13.7206C37.9656 13.6159 38.1974 13.4549 38.3858 13.2494C38.5742 13.0438 38.7144 12.7989 38.7962 12.5323C38.8781 12.2658 38.8995 11.9844 38.8588 11.7085C38.8966 11.4337 38.8731 11.154 38.79 10.8894C38.7069 10.6247 38.5664 10.3817 38.3784 10.1778C38.1904 9.97386 37.9597 9.81402 37.7027 9.70972C37.4457 9.60542 37.1688 9.55924 36.8918 9.5745H35.7668V13.8545ZM40.8498 12.4445C40.8218 12.1488 40.8559 11.8504 40.9499 11.5686C41.0439 11.2868 41.1957 11.0277 41.3956 10.808C41.5955 10.5883 41.8391 10.4127 42.1108 10.2926C42.3825 10.1725 42.6763 10.1104 42.9733 10.1104C43.2704 10.1104 43.5642 10.1725 43.8359 10.2926C44.1076 10.4127 44.3512 10.5883 44.5511 10.808C44.751 11.0277 44.9028 11.2868 44.9968 11.5686C45.0908 11.8504 45.1248 12.1488 45.0968 12.4445C45.1264 12.7411 45.0934 13.0406 45.0002 13.3237C44.9069 13.6068 44.7553 13.8672 44.5553 14.0882C44.3552 14.3092 44.1111 14.4858 43.8386 14.6066C43.5662 14.7275 43.2714 14.7899 42.9733 14.7899C42.6753 14.7899 42.3805 14.7275 42.108 14.6066C41.8356 14.4858 41.5914 14.3092 41.3914 14.0882C41.1913 13.8672 41.0398 13.6068 40.9465 13.3237C40.8532 13.0406 40.8203 12.7411 40.8498 12.4445ZM44.1828 12.4445C44.1828 11.4685 43.7438 10.8975 42.9748 10.8975C42.2018 10.8975 41.7678 11.4685 41.7678 12.4445C41.7678 13.4285 42.2018 13.9945 42.9748 13.9945C43.7448 13.9945 44.1828 13.4245 44.1828 12.4445ZM50.7428 14.6985H49.8198L48.8898 11.3815H48.8198L47.8928 14.6985H46.9798L45.7378 10.1955H46.6398L47.4458 13.6315H47.5128L48.4388 10.1955H49.2908L50.2168 13.6315H50.2868L51.0898 10.1955H51.9788L50.7428 14.6985ZM53.0228 10.1955H53.8778V10.9105H53.9438C54.0566 10.6536 54.2466 10.4382 54.4875 10.2945C54.7284 10.1507 55.0082 10.0857 55.2878 10.1085C55.507 10.092 55.727 10.1251 55.9316 10.2052C56.1363 10.2853 56.3202 10.4104 56.47 10.5713C56.6197 10.7321 56.7313 10.9246 56.7965 11.1344C56.8618 11.3443 56.879 11.5661 56.8468 11.7835V14.6985H55.9578V12.0065C55.9578 11.2825 55.6438 10.9225 54.9858 10.9225C54.8371 10.9156 54.6887 10.941 54.5506 10.9968C54.4126 11.0526 54.2883 11.1377 54.1862 11.246C54.0841 11.3544 54.0066 11.4835 53.9591 11.6246C53.9116 11.7657 53.8951 11.9154 53.9108 12.0635V14.6985H53.0228V10.1955ZM58.2628 8.4375H59.1508V14.6975H58.2628V8.4375ZM60.3868 12.4445C60.3588 12.1488 60.3929 11.8504 60.4869 11.5686C60.5809 11.2868 60.7327 11.0277 60.9326 10.808C61.1325 10.5883 61.3761 10.4127 61.6478 10.2926C61.9195 10.1725 62.2133 10.1104 62.5103 10.1104C62.8074 10.1104 63.1012 10.1725 63.3729 10.2926C63.6446 10.4127 63.8882 10.5883 64.0881 10.808C64.288 11.0277 64.4398 11.2868 64.5338 11.5686C64.6278 11.8504 64.6618 12.1488 64.6338 12.4445C64.6634 12.7411 64.6304 13.0406 64.5372 13.3237C64.4439 13.6068 64.2924 13.8672 64.0923 14.0882C63.8922 14.3092 63.6481 14.4858 63.3756 14.6066C63.1032 14.7275 62.8084 14.7899 62.5103 14.7899C62.2123 14.7899 61.9175 14.7275 61.645 14.6066C61.3726 14.4858 61.1284 14.3092 60.9284 14.0882C60.7283 13.8672 60.5768 13.6068 60.4835 13.3237C60.3902 13.0406 60.3573 12.7411 60.3868 12.4445ZM63.7198 12.4445C63.7198 11.4685 63.2808 10.8975 62.5118 10.8975C61.7388 10.8975 61.3048 11.4685 61.3048 12.4445C61.3048 13.4285 61.7388 13.9945 62.5118 13.9945C63.2818 13.9945 63.7198 13.4245 63.7198 12.4445ZM65.5698 13.4245C65.5698 12.6145 66.1728 12.1465 67.2448 12.0805L68.4648 12.0105V11.6215C68.4648 11.1465 68.1498 10.8775 67.5428 10.8775C67.0458 10.8775 66.7028 11.0595 66.6038 11.3775H65.7438C65.8338 10.6045 66.5618 10.1075 67.5838 10.1075C68.7118 10.1075 69.3488 10.6705 69.3488 11.6215V14.6985H68.4938V14.0655H68.4238C68.2811 14.2926 68.0806 14.4777 67.8429 14.6019C67.6052 14.7261 67.3388 14.785 67.0708 14.7725C66.8818 14.7922 66.6907 14.7721 66.5099 14.7134C66.329 14.6547 66.1626 14.5587 66.0211 14.4317C65.8797 14.3047 65.7665 14.1494 65.6887 13.9759C65.611 13.8024 65.5705 13.6146 65.5698 13.4245ZM68.4638 13.0405V12.6635L67.3638 12.7335C66.7438 12.7755 66.4638 12.9865 66.4638 13.3835C66.4638 13.7885 66.8148 14.0235 67.2978 14.0235C67.4394 14.0378 67.5823 14.0235 67.7182 13.9814C67.8541 13.9394 67.9802 13.8705 68.0889 13.7788C68.1977 13.6871 68.2869 13.5745 68.3513 13.4477C68.4157 13.3209 68.454 13.1824 68.4638 13.0405ZM70.5168 12.4445C70.5168 11.0215 71.2488 10.1205 72.3868 10.1205C72.6681 10.1077 72.9472 10.1752 73.1916 10.3151C73.4359 10.455 73.6355 10.6615 73.7668 10.9105H73.8338V8.4375H74.7218V14.6975H73.8708V13.9875H73.8008C73.6591 14.235 73.4523 14.439 73.2028 14.5774C72.9534 14.7157 72.6709 14.7832 72.3858 14.7725C71.2408 14.7725 70.5168 13.8715 70.5168 12.4445ZM71.4348 12.4445C71.4348 13.3995 71.8848 13.9745 72.6378 13.9745C73.3878 13.9745 73.8498 13.3915 73.8498 12.4485C73.8498 11.5105 73.3818 10.9185 72.6378 10.9185C71.8898 10.9185 71.4348 11.4985 71.4348 12.4445ZM78.3988 12.4445C78.3708 12.1488 78.4049 11.8504 78.4989 11.5686C78.5929 11.2868 78.7447 11.0277 78.9446 10.808C79.1445 10.5883 79.3881 10.4127 79.6598 10.2926C79.9315 10.1725 80.2253 10.1104 80.5223 10.1104C80.8194 10.1104 81.1132 10.1725 81.3849 10.2926C81.6566 10.4127 81.9002 10.5883 82.1001 10.808C82.3 11.0277 82.4518 11.2868 82.5458 11.5686C82.6398 11.8504 82.6738 12.1488 82.6458 12.4445C82.6754 12.7411 82.6424 13.0406 82.5492 13.3237C82.4559 13.6068 82.3044 13.8672 82.1043 14.0882C81.9042 14.3092 81.6601 14.4858 81.3876 14.6066C81.1152 14.7275 80.8204 14.7899 80.5223 14.7899C80.2243 14.7899 79.9295 14.7275 79.657 14.6066C79.3846 14.4858 79.1404 14.3092 78.9404 14.0882C78.7403 13.8672 78.5888 13.6068 78.4955 13.3237C78.4022 13.0406 78.3693 12.7411 78.3988 12.4445ZM81.7318 12.4445C81.7318 11.4685 81.2938 10.8975 80.5238 10.8975C79.7518 10.8975 79.3168 11.4685 79.3168 12.4445C79.3168 13.4285 79.7518 13.9945 80.5238 13.9945C81.2938 13.9945 81.7318 13.4245 81.7318 12.4445ZM83.8378 10.1945H84.6938V10.9105H84.7598C84.8726 10.6536 85.0626 10.4382 85.3035 10.2945C85.5444 10.1507 85.8242 10.0857 86.1038 10.1085C86.323 10.092 86.543 10.1251 86.7476 10.2052C86.9523 10.2853 87.1362 10.4104 87.286 10.5713C87.4357 10.7321 87.5473 10.9246 87.6125 11.1344C87.6778 11.3443 87.695 11.5661 87.6628 11.7835V14.6985H86.7738V12.0065C86.7738 11.2825 86.4598 10.9225 85.8018 10.9225C85.6531 10.9156 85.5047 10.941 85.3666 10.9968C85.2286 11.0526 85.1043 11.1377 85.0022 11.246C84.9001 11.3544 84.8226 11.4835 84.7751 11.6246C84.7276 11.7657 84.7111 11.9154 84.7268 12.0635V14.6985H83.8378V10.1945ZM92.6838 9.0745V10.2155H93.6598V10.9645H92.6838V13.2795C92.6838 13.7515 92.8778 13.9585 93.3208 13.9585C93.4342 13.958 93.5473 13.951 93.6598 13.9375V14.6775C93.5001 14.7063 93.3382 14.7217 93.1758 14.7235C92.1878 14.7235 91.7948 14.3755 91.7948 13.5075V10.9645H91.0798V10.2155H91.7948V9.0745H92.6838ZM94.8738 8.4375H95.7538V10.9185H95.8238C95.9422 10.6592 96.1376 10.4426 96.3835 10.2984C96.6294 10.1542 96.9137 10.0892 97.1978 10.1125C97.4158 10.1007 97.6336 10.1371 97.8359 10.2192C98.0381 10.3013 98.2198 10.427 98.3678 10.5874C98.5159 10.7478 98.6267 10.9388 98.6924 11.147C98.7581 11.3551 98.777 11.5752 98.7478 11.7915V14.6985H97.8588V12.0105C97.8588 11.2905 97.5238 10.9265 96.8958 10.9265C96.743 10.9139 96.5894 10.9349 96.4455 10.988C96.3017 11.0411 96.1712 11.1249 96.0632 11.2337C95.9552 11.3425 95.8722 11.4736 95.8202 11.6178C95.7681 11.762 95.7482 11.9158 95.7618 12.0685V14.6985H94.8738V8.4375ZM103.93 13.4825C103.809 13.8939 103.548 14.2498 103.191 14.4879C102.835 14.7261 102.406 14.8314 101.98 14.7855C101.683 14.7935 101.388 14.7368 101.115 14.6193C100.843 14.5018 100.599 14.3264 100.401 14.1051C100.203 13.8839 100.055 13.6221 99.9685 13.3381C99.8819 13.0541 99.8581 12.7546 99.8988 12.4605C99.8595 12.1657 99.8838 11.8658 99.9704 11.5812C100.057 11.2967 100.204 11.034 100.4 10.811C100.597 10.588 100.84 10.4098 101.111 10.2887C101.383 10.1675 101.677 10.106 101.975 10.1085C103.228 10.1085 103.984 10.9645 103.984 12.3785V12.6885H100.804V12.7385C100.79 12.9038 100.811 13.0702 100.865 13.227C100.919 13.3839 101.005 13.5276 101.118 13.6491C101.231 13.7706 101.368 13.8671 101.521 13.9324C101.673 13.9978 101.838 14.0305 102.004 14.0285C102.216 14.0537 102.431 14.0152 102.622 13.918C102.812 13.8208 102.97 13.6692 103.074 13.4825H103.93ZM100.804 12.0315H103.079C103.09 11.8803 103.07 11.7283 103.019 11.5855C102.968 11.4426 102.888 11.312 102.783 11.2021C102.679 11.0921 102.552 11.0053 102.412 10.9472C102.272 10.889 102.121 10.8609 101.97 10.8645C101.816 10.8626 101.664 10.8915 101.521 10.9495C101.379 11.0075 101.249 11.0934 101.141 11.2022C101.032 11.3109 100.946 11.4403 100.888 11.5828C100.831 11.7252 100.802 11.8778 100.804 12.0315Z" fill="white"/>
</g>
<defs>
<clipPath id="clip0_0_10259">
<rect width="120" height="40" fill="white"/>
</clipPath>
</defs>
</svg>
