<svg width="20" height="20" viewBox="0 0 20 20" fill="none" xmlns="http://www.w3.org/2000/svg">
<g clip-path="url(#clip0_0_10195)">
<g filter="url(#filter0_dd_0_10195)">
<path d="M12.6304 16.1728H13.7254C13.9233 16.1728 14.0837 16.0124 14.0837 15.8145V14.6195C14.0837 14.5366 14.1052 14.4551 14.146 14.3829L14.6959 13.4115C15.3684 12.2236 15.7218 10.8818 15.7218 9.51676V9.06409C15.7218 8.93192 15.7327 8.79998 15.7543 8.66959L16.0139 7.10444C16.1216 6.45503 15.6207 5.8642 14.9624 5.8642C14.4522 5.8642 14.0135 6.22587 13.9162 6.72679L13.5841 8.43613C13.5757 8.47943 13.5117 8.47237 13.513 8.42828L13.5976 5.4107C13.6128 4.86912 13.1779 4.42186 12.6361 4.42186C12.1426 4.42186 11.7292 4.7953 11.6792 5.28623L11.3665 8.35527C11.3604 8.41486 11.2734 8.41439 11.268 8.35474L10.9329 4.67177C10.8894 4.19344 10.4883 3.82721 10.008 3.82721C9.471 3.82721 9.0459 4.28136 9.08135 4.81722L9.28086 7.83287C9.28445 7.88709 9.19481 7.89759 9.18579 7.844C9.06574 7.13072 8.89902 6.218 8.75426 5.70648C8.66958 5.40726 8.49545 5.07923 8.30746 4.78216C7.96353 4.23866 7.21388 4.21689 6.76218 4.67477C6.47416 4.96674 6.37103 5.39395 6.49412 5.78517L7.43572 8.77765C7.54347 9.12007 7.59829 9.47693 7.59829 9.8359C7.59829 10.1709 7.21005 10.3563 6.94951 10.1458L5.64811 9.09425C5.46493 8.94624 5.23654 8.8655 5.00103 8.8655H4.95802C4.41314 8.8655 3.97144 9.30721 3.97144 9.85208C3.97144 10.0586 4.03626 10.26 4.15677 10.4277L6.05552 13.0707C6.544 13.7506 7.1517 14.3363 7.84915 14.7994L8.27079 15.0794C8.44218 15.1932 8.54519 15.3853 8.54519 15.591C8.54519 15.8811 8.67635 16.1728 9.01531 16.1728H10.256C10.6307 16.1728 10.9805 15.9849 11.1874 15.6725C11.3868 15.3715 11.6704 14.9972 12.0991 14.9972C12.7505 14.9972 12.5387 15.6582 12.5387 16.0811C12.5387 16.1317 12.5798 16.1728 12.6304 16.1728Z" fill="white"/>
<path d="M10.0638 10.7662L10.0638 13.9732M11.7084 10.7662V13.9732M13.3941 10.7662V13.9732M13.7254 16.1728H12.6304C12.5798 16.1728 12.5387 16.1317 12.5387 16.0811C12.5387 15.6582 12.7505 14.9972 12.0991 14.9972C11.6704 14.9972 11.3868 15.3715 11.1874 15.6725C10.9805 15.9849 10.6307 16.1728 10.256 16.1728H9.01531C8.67635 16.1728 8.54519 15.8811 8.54519 15.591C8.54519 15.3853 8.44218 15.1932 8.27079 15.0794L7.84915 14.7994C7.1517 14.3363 6.544 13.7506 6.05552 13.0707L4.15677 10.4277C4.03626 10.26 3.97144 10.0586 3.97144 9.85208C3.97144 9.30721 4.41314 8.8655 4.95802 8.8655H5.00103C5.23654 8.8655 5.46493 8.94624 5.64811 9.09425L6.94951 10.1458C7.21005 10.3563 7.59829 10.1709 7.59829 9.8359C7.59829 9.47693 7.54347 9.12007 7.43572 8.77765L6.49412 5.78517C6.37103 5.39395 6.47416 4.96674 6.76218 4.67477C7.21388 4.21689 7.96353 4.23866 8.30746 4.78216C8.49545 5.07923 8.66958 5.40726 8.75426 5.70648C8.89902 6.218 9.06574 7.13072 9.18579 7.844C9.19481 7.89759 9.28445 7.88709 9.28086 7.83287L9.08135 4.81722C9.0459 4.28136 9.471 3.82721 10.008 3.82721C10.4883 3.82721 10.8894 4.19344 10.9329 4.67177L11.268 8.35474C11.2734 8.41439 11.3604 8.41486 11.3665 8.35527L11.6792 5.28623C11.7292 4.7953 12.1426 4.42186 12.6361 4.42186C13.1779 4.42186 13.6128 4.86912 13.5976 5.4107L13.513 8.42828C13.5117 8.47237 13.5757 8.47943 13.5841 8.43613L13.9162 6.72679C14.0135 6.22587 14.4522 5.8642 14.9624 5.8642C15.6207 5.8642 16.1216 6.45503 16.0139 7.10444L15.7543 8.66959C15.7327 8.79998 15.7218 8.93192 15.7218 9.06409V9.51676C15.7218 10.8818 15.3684 12.2236 14.6959 13.4115L14.146 14.3829C14.1052 14.4551 14.0837 14.5366 14.0837 14.6195V15.8145C14.0837 16.0124 13.9233 16.1728 13.7254 16.1728Z" stroke="#272D37" stroke-width="0.5"/>
</g>
</g>
<defs>
<filter id="filter0_dd_0_10195" x="-1.27856" y="2.57721" width="22.5571" height="22.8456" filterUnits="userSpaceOnUse" color-interpolation-filters="sRGB">
<feFlood flood-opacity="0" result="BackgroundImageFix"/>
<feColorMatrix in="SourceAlpha" type="matrix" values="0 0 0 0 0 0 0 0 0 0 0 0 0 0 0 0 0 0 127 0" result="hardAlpha"/>
<feMorphology radius="1" operator="erode" in="SourceAlpha" result="effect1_dropShadow_0_10195"/>
<feOffset dy="4"/>
<feGaussianBlur stdDeviation="3"/>
<feColorMatrix type="matrix" values="0 0 0 0 0.0627451 0 0 0 0 0.0941176 0 0 0 0 0.156863 0 0 0 0.1 0"/>
<feBlend mode="normal" in2="BackgroundImageFix" result="effect1_dropShadow_0_10195"/>
<feColorMatrix in="SourceAlpha" type="matrix" values="0 0 0 0 0 0 0 0 0 0 0 0 0 0 0 0 0 0 127 0" result="hardAlpha"/>
<feMorphology radius="2" operator="erode" in="SourceAlpha" result="effect2_dropShadow_0_10195"/>
<feOffset dy="2"/>
<feGaussianBlur stdDeviation="2"/>
<feColorMatrix type="matrix" values="0 0 0 0 0.0627451 0 0 0 0 0.0941176 0 0 0 0 0.156863 0 0 0 0.1 0"/>
<feBlend mode="normal" in2="effect1_dropShadow_0_10195" result="effect2_dropShadow_0_10195"/>
<feBlend mode="normal" in="SourceGraphic" in2="effect2_dropShadow_0_10195" result="shape"/>
</filter>
<clipPath id="clip0_0_10195">
<rect width="20" height="20" fill="white"/>
</clipPath>
</defs>
</svg>
