<svg width="85" height="119" viewBox="0 0 85 119" fill="none" xmlns="http://www.w3.org/2000/svg">
<g filter="url(#filter0_dd_0_9902)">
<path d="M34.4316 55.7126C34.4316 60.1309 38.0134 63.7126 42.4316 63.7126C46.8499 63.7126 50.4316 60.1309 50.4316 55.7126C50.4316 51.2944 46.8499 47.7126 42.4316 47.7126C38.0134 47.7126 34.4316 51.2944 34.4316 55.7126Z" fill="#574EFA"/>
<path d="M26.4316 55.7126C26.4316 64.5492 38.4316 79.7126 42.4316 79.7126C46.4316 79.7126 58.4316 64.5492 58.4316 55.7126C58.4316 46.8761 51.2682 39.7126 42.4316 39.7126C33.5951 39.7126 26.4316 46.8761 26.4316 55.7126Z" fill="#574EFA"/>
<path d="M34.4316 55.7126C34.4316 60.1309 38.0134 63.7126 42.4316 63.7126C46.8499 63.7126 50.4316 60.1309 50.4316 55.7126C50.4316 51.2944 46.8499 47.7126 42.4316 47.7126C38.0134 47.7126 34.4316 51.2944 34.4316 55.7126Z" stroke="#F9F8FB" stroke-width="2"/>
<path d="M26.4316 55.7126C26.4316 64.5492 38.4316 79.7126 42.4316 79.7126C46.4316 79.7126 58.4316 64.5492 58.4316 55.7126C58.4316 46.8761 51.2682 39.7126 42.4316 39.7126C33.5951 39.7126 26.4316 46.8761 26.4316 55.7126Z" stroke="#F9F8FB" stroke-width="2"/>
</g>
<defs>
<filter id="filter0_dd_0_9902" x="-4.5" y="-0.287354" width="93.9316" height="128.073" filterUnits="userSpaceOnUse" color-interpolation-filters="sRGB">
<feFlood flood-opacity="0" result="BackgroundImageFix"/>
<feColorMatrix in="SourceAlpha" type="matrix" values="0 0 0 0 0 0 0 0 0 0 0 0 0 0 0 0 0 0 127 0" result="hardAlpha"/>
<feMorphology radius="1" operator="erode" in="SourceAlpha" result="effect1_dropShadow_0_9902"/>
<feOffset dy="4"/>
<feGaussianBlur stdDeviation="3"/>
<feColorMatrix type="matrix" values="0 0 0 0 0.0627451 0 0 0 0 0.0941176 0 0 0 0 0.156863 0 0 0 0.1 0"/>
<feBlend mode="normal" in2="BackgroundImageFix" result="effect1_dropShadow_0_9902"/>
<feColorMatrix in="SourceAlpha" type="matrix" values="0 0 0 0 0 0 0 0 0 0 0 0 0 0 0 0 0 0 127 0" result="hardAlpha"/>
<feMorphology radius="2" operator="erode" in="SourceAlpha" result="effect2_dropShadow_0_9902"/>
<feOffset dy="2"/>
<feGaussianBlur stdDeviation="2"/>
<feColorMatrix type="matrix" values="0 0 0 0 0.0627451 0 0 0 0 0.0941176 0 0 0 0 0.156863 0 0 0 0.1 0"/>
<feBlend mode="normal" in2="effect1_dropShadow_0_9902" result="effect2_dropShadow_0_9902"/>
<feBlend mode="normal" in="SourceGraphic" in2="effect2_dropShadow_0_9902" result="shape"/>
</filter>
</defs>
</svg>
