<svg width="59" height="62" viewBox="0 0 59 62" fill="none" xmlns="http://www.w3.org/2000/svg">
<g filter="url(#filter0_dd_0_10204)">
<path d="M21.7539 24.7312C21.7539 29.1495 25.3356 32.7312 29.7539 32.7312C34.1722 32.7312 37.7539 29.1495 37.7539 24.7312C37.7539 20.3129 34.1722 16.7312 29.7539 16.7312C25.3356 16.7312 21.7539 20.3129 21.7539 24.7312Z" fill="#574EFA"/>
<path d="M13.7539 24.7312C13.7539 33.5678 25.7539 48.7312 29.7539 48.7312C33.7539 48.7312 45.7539 33.5678 45.7539 24.7312C45.7539 15.8946 38.5905 8.7312 29.7539 8.7312C20.9174 8.7312 13.7539 15.8946 13.7539 24.7312Z" fill="#574EFA"/>
<path d="M21.7539 24.7312C21.7539 29.1495 25.3356 32.7312 29.7539 32.7312C34.1722 32.7312 37.7539 29.1495 37.7539 24.7312C37.7539 20.3129 34.1722 16.7312 29.7539 16.7312C25.3356 16.7312 21.7539 20.3129 21.7539 24.7312Z" stroke="#F9F8FB" stroke-width="2"/>
<path d="M13.7539 24.7312C13.7539 33.5678 25.7539 48.7312 29.7539 48.7312C33.7539 48.7312 45.7539 33.5678 45.7539 24.7312C45.7539 15.8946 38.5905 8.7312 29.7539 8.7312C20.9174 8.7312 13.7539 15.8946 13.7539 24.7312Z" stroke="#F9F8FB" stroke-width="2"/>
</g>
<defs>
<filter id="filter0_dd_0_10204" x="0.753906" y="-0.268799" width="58" height="65.2242" filterUnits="userSpaceOnUse" color-interpolation-filters="sRGB">
<feFlood flood-opacity="0" result="BackgroundImageFix"/>
<feColorMatrix in="SourceAlpha" type="matrix" values="0 0 0 0 0 0 0 0 0 0 0 0 0 0 0 0 0 0 127 0" result="hardAlpha"/>
<feMorphology radius="1" operator="erode" in="SourceAlpha" result="effect1_dropShadow_0_10204"/>
<feOffset dy="4"/>
<feGaussianBlur stdDeviation="3"/>
<feColorMatrix type="matrix" values="0 0 0 0 0.0627451 0 0 0 0 0.0941176 0 0 0 0 0.156863 0 0 0 0.1 0"/>
<feBlend mode="normal" in2="BackgroundImageFix" result="effect1_dropShadow_0_10204"/>
<feColorMatrix in="SourceAlpha" type="matrix" values="0 0 0 0 0 0 0 0 0 0 0 0 0 0 0 0 0 0 127 0" result="hardAlpha"/>
<feMorphology radius="2" operator="erode" in="SourceAlpha" result="effect2_dropShadow_0_10204"/>
<feOffset dy="2"/>
<feGaussianBlur stdDeviation="2"/>
<feColorMatrix type="matrix" values="0 0 0 0 0.0627451 0 0 0 0 0.0941176 0 0 0 0 0.156863 0 0 0 0.1 0"/>
<feBlend mode="normal" in2="effect1_dropShadow_0_10204" result="effect2_dropShadow_0_10204"/>
<feBlend mode="normal" in="SourceGraphic" in2="effect2_dropShadow_0_10204" result="shape"/>
</filter>
</defs>
</svg>
