<svg width="85" height="119" viewBox="0 0 85 119" fill="none" xmlns="http://www.w3.org/2000/svg">
<g filter="url(#filter0_dd_0_9898)">
<path d="M34.3633 55.5015C34.3633 59.9197 37.945 63.5015 42.3633 63.5015C46.7816 63.5015 50.3633 59.9197 50.3633 55.5015C50.3633 51.0832 46.7816 47.5015 42.3633 47.5015C37.945 47.5015 34.3633 51.0832 34.3633 55.5015Z" fill="#574EFA"/>
<path d="M26.3633 55.5015C26.3633 64.338 38.3633 79.5015 42.3633 79.5015C46.3633 79.5015 58.3633 64.338 58.3633 55.5015C58.3633 46.6649 51.1998 39.5015 42.3633 39.5015C33.5267 39.5015 26.3633 46.6649 26.3633 55.5015Z" fill="#574EFA"/>
<path d="M34.3633 55.5015C34.3633 59.9197 37.945 63.5015 42.3633 63.5015C46.7816 63.5015 50.3633 59.9197 50.3633 55.5015C50.3633 51.0832 46.7816 47.5015 42.3633 47.5015C37.945 47.5015 34.3633 51.0832 34.3633 55.5015Z" stroke="#F9F8FB" stroke-width="2"/>
<path d="M26.3633 55.5015C26.3633 64.338 38.3633 79.5015 42.3633 79.5015C46.3633 79.5015 58.3633 64.338 58.3633 55.5015C58.3633 46.6649 51.1998 39.5015 42.3633 39.5015C33.5267 39.5015 26.3633 46.6649 26.3633 55.5015Z" stroke="#F9F8FB" stroke-width="2"/>
</g>
<defs>
<filter id="filter0_dd_0_9898" x="-4.56836" y="-0.498535" width="93.9316" height="128.073" filterUnits="userSpaceOnUse" color-interpolation-filters="sRGB">
<feFlood flood-opacity="0" result="BackgroundImageFix"/>
<feColorMatrix in="SourceAlpha" type="matrix" values="0 0 0 0 0 0 0 0 0 0 0 0 0 0 0 0 0 0 127 0" result="hardAlpha"/>
<feMorphology radius="1" operator="erode" in="SourceAlpha" result="effect1_dropShadow_0_9898"/>
<feOffset dy="4"/>
<feGaussianBlur stdDeviation="3"/>
<feColorMatrix type="matrix" values="0 0 0 0 0.0627451 0 0 0 0 0.0941176 0 0 0 0 0.156863 0 0 0 0.1 0"/>
<feBlend mode="normal" in2="BackgroundImageFix" result="effect1_dropShadow_0_9898"/>
<feColorMatrix in="SourceAlpha" type="matrix" values="0 0 0 0 0 0 0 0 0 0 0 0 0 0 0 0 0 0 127 0" result="hardAlpha"/>
<feMorphology radius="2" operator="erode" in="SourceAlpha" result="effect2_dropShadow_0_9898"/>
<feOffset dy="2"/>
<feGaussianBlur stdDeviation="2"/>
<feColorMatrix type="matrix" values="0 0 0 0 0.0627451 0 0 0 0 0.0941176 0 0 0 0 0.156863 0 0 0 0.1 0"/>
<feBlend mode="normal" in2="effect1_dropShadow_0_9898" result="effect2_dropShadow_0_9898"/>
<feBlend mode="normal" in="SourceGraphic" in2="effect2_dropShadow_0_9898" result="shape"/>
</filter>
</defs>
</svg>
