<svg width="24" height="25" viewBox="0 0 24 25" fill="none" xmlns="http://www.w3.org/2000/svg">
<path d="M14.6457 20.166C13.9406 20.7883 13.0144 21.1659 12 21.1659C10.9856 21.1659 10.0594 20.7883 9.35426 20.166M17.9974 13.3468V10.166C17.9974 6.84373 15.3223 4.16602 12 4.16602C8.67772 4.16602 5.96637 6.72958 5.96637 10.166V13.3253C5.96637 13.8084 5.89106 14.2885 5.74334 14.7468L5.00488 17.0383C4.98466 17.1011 5.02981 17.1659 5.09375 17.1659H18.8632C18.9308 17.1659 18.9788 17.1 18.958 17.0357L18.2146 14.7286C18.0707 14.2821 17.9974 13.8159 17.9974 13.3468Z" stroke="#272D37" stroke-width="1.67" stroke-linecap="round"/>
</svg>
