<svg width="24" height="25" viewBox="0 0 24 25" fill="none" xmlns="http://www.w3.org/2000/svg">
<g clip-path="url(#clip0_0_9974)">
<path d="M16.8503 0.166016H7.14973C3.20735 0.166016 0 3.37337 0 7.31575V17.0163C0 20.9587 3.20735 24.166 7.14973 24.166H16.8503C20.7926 24.166 24 20.9587 24 17.0163V7.31575C24 3.37337 20.7926 0.166016 16.8503 0.166016ZM21.5856 17.0163C21.5856 19.6315 19.4655 21.7516 16.8503 21.7516H7.14973C4.5345 21.7516 2.4144 19.6315 2.4144 17.0163V7.31575C2.4144 4.70047 4.5345 2.58041 7.14973 2.58041H16.8503C19.4655 2.58041 21.5856 4.70047 21.5856 7.31575V17.0163Z" fill="#272D37"/>
<path d="M12 5.95874C8.57729 5.95874 5.79272 8.74331 5.79272 12.1659C5.79272 15.5886 8.57729 18.3732 12 18.3732C15.4227 18.3732 18.2072 15.5886 18.2072 12.1659C18.2072 8.74326 15.4227 5.95874 12 5.95874ZM12 15.9588C9.90523 15.9588 8.20712 14.2607 8.20712 12.166C8.20712 10.0712 9.90527 8.37314 12 8.37314C14.0947 8.37314 15.7928 10.0712 15.7928 12.166C15.7928 14.2607 14.0947 15.9588 12 15.9588Z" fill="#272D37"/>
<path d="M18.219 7.49275C19.0405 7.49275 19.7064 6.82685 19.7064 6.00541C19.7064 5.18397 19.0405 4.51807 18.219 4.51807C17.3976 4.51807 16.7317 5.18397 16.7317 6.00541C16.7317 6.82685 17.3976 7.49275 18.219 7.49275Z" fill="#272D37"/>
</g>
<defs>
<clipPath id="clip0_0_9974">
<rect width="24" height="24" fill="white" transform="translate(0 0.166016)"/>
</clipPath>
</defs>
</svg>
