<svg width="24" height="25" viewBox="0 0 24 25" fill="none" xmlns="http://www.w3.org/2000/svg">
<g clip-path="url(#clip0_0_9972)">
<path d="M23.7628 12.442C23.7628 11.6263 23.6967 10.8062 23.5556 10.0037H12.2368V14.6246H18.7185C18.4496 16.115 17.5853 17.4334 16.3199 18.2712V21.2695H20.1869C22.4577 19.1795 23.7628 16.093 23.7628 12.442Z" fill="#272D37"/>
<path d="M12.2374 24.1662C15.4739 24.1662 18.2032 23.1036 20.1919 21.2693L16.3249 18.271C15.249 19.0029 13.8601 19.4174 12.2418 19.4174C9.1112 19.4174 6.45678 17.3053 5.50436 14.4657H1.51392V17.5566C3.55103 21.6088 7.70021 24.1662 12.2374 24.1662Z" fill="#272D37"/>
<path d="M5.49984 14.4662C4.99718 12.9759 4.99718 11.3621 5.49984 9.8717V6.78076H1.51381C-0.188196 10.1715 -0.188196 14.1664 1.51381 17.5572L5.49984 14.4662Z" fill="#272D37"/>
<path d="M12.2374 4.91555C13.9482 4.8891 15.6017 5.53286 16.8408 6.71456L20.2668 3.28851C18.0974 1.2514 15.2181 0.131428 12.2374 0.166702C7.70021 0.166702 3.55103 2.72412 1.51392 6.7807L5.49995 9.87164C6.44796 7.02762 9.10679 4.91555 12.2374 4.91555Z" fill="#272D37"/>
</g>
<defs>
<clipPath id="clip0_0_9972">
<rect width="24" height="24" fill="white" transform="translate(0 0.166016)"/>
</clipPath>
</defs>
</svg>
