<svg width="16" height="16" viewBox="0 0 16 16" fill="none" xmlns="http://www.w3.org/2000/svg">
<g clip-path="url(#clip0_0_10150)">
<path d="M7.2459 0.976438C7.66531 0.563355 8.33486 0.563355 8.75427 0.976438L9.37632 1.5891C9.63264 1.84156 9.99641 1.94931 10.3474 1.87672L11.199 1.70056C11.7732 1.58179 12.3365 1.94694 12.4679 2.52318L12.6629 3.37784C12.7432 3.73001 12.9915 4.01905 13.3256 4.14937L14.1365 4.46565C14.6832 4.6789 14.9614 5.29327 14.7631 5.84972L14.469 6.67502C14.3479 7.01509 14.4018 7.39365 14.6131 7.68551L15.1257 8.39381C15.4713 8.87137 15.3761 9.53991 14.911 9.89989L14.2213 10.4338C13.9371 10.6538 13.7796 11.0017 13.8009 11.3624L13.8526 12.2379C13.8874 12.8281 13.4489 13.3386 12.8648 13.3878L11.9984 13.4608C11.6414 13.4909 11.3225 13.6977 11.1471 14.0128L10.7213 14.7774C10.4343 15.2929 9.79185 15.4832 9.27406 15.2061L8.5061 14.795C8.18965 14.6256 7.81052 14.6256 7.49407 14.795L6.7261 15.2061C6.20831 15.4832 5.56589 15.2929 5.27883 14.7774L4.85309 14.0128C4.67766 13.6977 4.35871 13.4909 4.00172 13.4608L3.13536 13.3878C2.55122 13.3386 2.11276 12.8281 2.14759 12.2379L2.19923 11.3624C2.22052 11.0017 2.06302 10.6538 1.77882 10.4338L1.08913 9.89989C0.624107 9.53991 0.528821 8.87137 0.874463 8.39381L1.38711 7.68551C1.59835 7.39365 1.6523 7.01509 1.53113 6.67502L1.23708 5.84972C1.03881 5.29327 1.31695 4.6789 1.86367 4.46565L2.67455 4.14937C3.00868 4.01905 3.25696 3.73001 3.33729 3.37784L3.53223 2.52318C3.66367 1.94694 4.22693 1.58179 4.80115 1.70056L5.65281 1.87672C6.00375 1.94931 6.36752 1.84156 6.62385 1.5891L7.2459 0.976438Z" fill="#574EFA"/>
<path fill-rule="evenodd" clip-rule="evenodd" d="M11.1382 6.19522C11.3985 6.45557 11.3985 6.87768 11.1382 7.13803L7.70719 10.569C7.31666 10.9595 6.6835 10.9595 6.29297 10.569L4.86201 9.13803C4.60166 8.87768 4.60166 8.45557 4.86201 8.19522C5.12236 7.93487 5.54447 7.93487 5.80482 8.19522L7.00008 9.39048L10.1953 6.19522C10.4557 5.93487 10.8778 5.93487 11.1382 6.19522Z" fill="white"/>
</g>
<defs>
<clipPath id="clip0_0_10150">
<rect width="16" height="16" fill="white"/>
</clipPath>
</defs>
</svg>
