<svg width="17" height="17" viewBox="0 0 17 17" fill="none" xmlns="http://www.w3.org/2000/svg">
<g clip-path="url(#clip0_0_9827)">
<path d="M7.57939 1.14258C7.9988 0.729493 8.66835 0.729493 9.08776 1.14258L9.70981 1.75524C9.96614 2.0077 10.3299 2.11545 10.6808 2.04286L11.5325 1.8667C12.1067 1.74793 12.67 2.11308 12.8014 2.68932L12.9964 3.54398C13.0767 3.89615 13.325 4.18519 13.6591 4.31551L14.47 4.63179C15.0167 4.84504 15.2948 5.45941 15.0966 6.01586L14.8025 6.84116C14.6814 7.18123 14.7353 7.55979 14.9466 7.85165L15.4592 8.55995C15.8048 9.03751 15.7096 9.70604 15.2445 10.066L14.5548 10.5999C14.2706 10.82 14.1131 11.1678 14.1344 11.5286L14.1861 12.404C14.2209 12.9943 13.7824 13.5047 13.1983 13.5539L12.3319 13.627C11.9749 13.657 11.656 13.8638 11.4806 14.1789L11.0548 14.9435C10.7678 15.4591 10.1253 15.6494 9.60756 15.3722L8.83959 14.9611C8.52314 14.7918 8.14401 14.7918 7.82756 14.9611L7.0596 15.3722C6.54181 15.6494 5.89938 15.4591 5.61233 14.9435L5.18659 14.1789C5.01116 13.8638 4.69221 13.657 4.33522 13.627L3.46885 13.5539C2.88472 13.5047 2.44626 12.9943 2.48108 12.404L2.53273 11.5286C2.55401 11.1678 2.39652 10.82 2.11232 10.5999L1.42262 10.066C0.957603 9.70604 0.862317 9.03751 1.20796 8.55995L1.7206 7.85165C1.93184 7.55979 1.9858 7.18123 1.86463 6.84116L1.57057 6.01586C1.37231 5.45941 1.65045 4.84504 2.19717 4.63179L3.00805 4.31551C3.34218 4.18519 3.59045 3.89615 3.67078 3.54398L3.86573 2.68932C3.99717 2.11308 4.56043 1.74793 5.13465 1.8667L5.98631 2.04286C6.33725 2.11545 6.70102 2.0077 6.95734 1.75524L7.57939 1.14258Z" fill="#574EFA"/>
<path fill-rule="evenodd" clip-rule="evenodd" d="M11.4716 6.36136C11.732 6.62171 11.732 7.04382 11.4716 7.30417L8.04068 10.7351C7.65016 11.1257 7.01699 11.1257 6.62647 10.7351L5.19551 9.30417C4.93516 9.04382 4.93516 8.62171 5.19551 8.36136C5.45586 8.10101 5.87797 8.10101 6.13832 8.36136L7.33358 9.55662L10.5288 6.36136C10.7892 6.10101 11.2113 6.10101 11.4716 6.36136Z" fill="white"/>
</g>
<defs>
<clipPath id="clip0_0_9827">
<rect width="16" height="16" fill="white" transform="translate(0.333496 0.166016)"/>
</clipPath>
</defs>
</svg>
