<svg width="16" height="16" viewBox="0 0 16 16" fill="none" xmlns="http://www.w3.org/2000/svg">
<g clip-path="url(#clip0_0_10101)">
<path d="M7.2459 0.97656C7.66531 0.563478 8.33486 0.563477 8.75427 0.97656L9.37632 1.58923C9.63264 1.84168 9.99641 1.94943 10.3474 1.87684L11.199 1.70068C11.7732 1.58191 12.3365 1.94706 12.4679 2.52331L12.6629 3.37796C12.7432 3.73013 12.9915 4.01917 13.3256 4.1495L14.1365 4.46577C14.6832 4.67902 14.9614 5.29339 14.7631 5.84984L14.469 6.67514C14.3479 7.01522 14.4018 7.39377 14.6131 7.68563L15.1257 8.39393C15.4713 8.8715 15.3761 9.54003 14.911 9.90001L14.2213 10.4339C13.9371 10.6539 13.7796 11.0018 13.8009 11.3626L13.8526 12.238C13.8874 12.8283 13.4489 13.3387 12.8648 13.3879L11.9984 13.4609C11.6414 13.491 11.3225 13.6978 11.1471 14.0129L10.7213 14.7775C10.4343 15.2931 9.79185 15.4833 9.27406 15.2062L8.5061 14.7951C8.18965 14.6257 7.81052 14.6257 7.49407 14.7951L6.7261 15.2062C6.20831 15.4833 5.56589 15.2931 5.27883 14.7775L4.85309 14.0129C4.67766 13.6978 4.35871 13.491 4.00172 13.4609L3.13536 13.3879C2.55122 13.3387 2.11276 12.8283 2.14759 12.238L2.19923 11.3626C2.22052 11.0018 2.06302 10.6539 1.77882 10.4339L1.08913 9.90001C0.624107 9.54003 0.528821 8.8715 0.874463 8.39393L1.38711 7.68563C1.59835 7.39377 1.6523 7.01522 1.53113 6.67514L1.23708 5.84984C1.03881 5.29339 1.31695 4.67902 1.86367 4.46577L2.67455 4.1495C3.00868 4.01917 3.25696 3.73013 3.33729 3.37796L3.53223 2.5233C3.66367 1.94706 4.22693 1.58191 4.80115 1.70068L5.65281 1.87684C6.00375 1.94943 6.36752 1.84168 6.62385 1.58923L7.2459 0.97656Z" fill="#574EFA"/>
<path fill-rule="evenodd" clip-rule="evenodd" d="M11.1382 6.19534C11.3985 6.45569 11.3985 6.8778 11.1382 7.13815L7.70719 10.5691C7.31666 10.9596 6.6835 10.9596 6.29297 10.5691L4.86201 9.13815C4.60166 8.8778 4.60166 8.45569 4.86201 8.19534C5.12236 7.93499 5.54447 7.93499 5.80482 8.19534L7.00008 9.3906L10.1953 6.19534C10.4557 5.93499 10.8778 5.93499 11.1382 6.19534Z" fill="white"/>
</g>
<defs>
<clipPath id="clip0_0_10101">
<rect width="16" height="16" fill="white"/>
</clipPath>
</defs>
</svg>
