<svg width="16" height="16" viewBox="0 0 16 16" fill="none" xmlns="http://www.w3.org/2000/svg">
<g clip-path="url(#clip0_0_10474)">
<path d="M7.2459 0.976476C7.66531 0.563394 8.33486 0.563393 8.75427 0.976476L9.37632 1.58914C9.63264 1.8416 9.99641 1.94935 10.3474 1.87676L11.199 1.7006C11.7732 1.58183 12.3365 1.94698 12.4679 2.52322L12.6629 3.37788C12.7432 3.73005 12.9915 4.01909 13.3256 4.14941L14.1365 4.46569C14.6832 4.67894 14.9614 5.29331 14.7631 5.84976L14.469 6.67506C14.3479 7.01513 14.4018 7.39369 14.6131 7.68555L15.1257 8.39385C15.4713 8.87141 15.3761 9.53994 14.911 9.89993L14.2213 10.4338C13.9371 10.6539 13.7796 11.0017 13.8009 11.3625L13.8526 12.2379C13.8874 12.8282 13.4489 13.3386 12.8648 13.3878L11.9984 13.4609C11.6414 13.4909 11.3225 13.6977 11.1471 14.0128L10.7213 14.7774C10.4343 15.293 9.79185 15.4833 9.27406 15.2061L8.5061 14.795C8.18965 14.6257 7.81052 14.6257 7.49407 14.795L6.7261 15.2061C6.20831 15.4833 5.56589 15.293 5.27883 14.7774L4.85309 14.0128C4.67766 13.6977 4.35871 13.4909 4.00172 13.4609L3.13536 13.3878C2.55122 13.3386 2.11276 12.8282 2.14759 12.2379L2.19923 11.3625C2.22052 11.0017 2.06302 10.6539 1.77882 10.4338L1.08913 9.89993C0.624107 9.53994 0.528821 8.87141 0.874463 8.39385L1.38711 7.68555C1.59835 7.39369 1.6523 7.01513 1.53113 6.67506L1.23708 5.84976C1.03881 5.29331 1.31695 4.67894 1.86367 4.46569L2.67455 4.14941C3.00868 4.01909 3.25696 3.73005 3.33729 3.37788L3.53223 2.52322C3.66367 1.94698 4.22693 1.58183 4.80115 1.7006L5.65281 1.87676C6.00375 1.94935 6.36752 1.8416 6.62385 1.58914L7.2459 0.976476Z" fill="#574EFA"/>
<path fill-rule="evenodd" clip-rule="evenodd" d="M11.1382 6.19526C11.3985 6.45561 11.3985 6.87772 11.1382 7.13807L7.70719 10.569C7.31666 10.9596 6.6835 10.9596 6.29297 10.569L4.86201 9.13807C4.60166 8.87772 4.60166 8.45561 4.86201 8.19526C5.12236 7.93491 5.54447 7.93491 5.80482 8.19526L7.00008 9.39052L10.1953 6.19526C10.4557 5.93491 10.8778 5.93491 11.1382 6.19526Z" fill="white"/>
</g>
<defs>
<clipPath id="clip0_0_10474">
<rect width="16" height="16" fill="white"/>
</clipPath>
</defs>
</svg>
