<svg width="16" height="16" viewBox="0 0 16 16" fill="none" xmlns="http://www.w3.org/2000/svg">
<g clip-path="url(#clip0_0_9456)">
<path d="M7.24581 0.97656C7.66522 0.563478 8.33476 0.563477 8.75417 0.97656L9.37623 1.58923C9.63255 1.84168 9.99632 1.94943 10.3473 1.87684L11.1989 1.70068C11.7731 1.58191 12.3364 1.94706 12.4678 2.52331L12.6628 3.37796C12.7431 3.73013 12.9914 4.01917 13.3255 4.1495L14.1364 4.46577C14.6831 4.67902 14.9613 5.29339 14.763 5.84984L14.4689 6.67514C14.3478 7.01522 14.4017 7.39377 14.613 7.68563L15.1256 8.39393C15.4713 8.8715 15.376 9.54003 14.9109 9.90001L14.2212 10.4339C13.9371 10.6539 13.7796 11.0018 13.8008 11.3626L13.8525 12.238C13.8873 12.8283 13.4488 13.3387 12.8647 13.3879L11.9984 13.4609C11.6414 13.491 11.3224 13.6978 11.147 14.0129L10.7212 14.7775C10.4342 15.2931 9.79176 15.4833 9.27397 15.2062L8.506 14.7951C8.18956 14.6257 7.81042 14.6257 7.49398 14.7951L6.72601 15.2062C6.20822 15.4833 5.56579 15.2931 5.27874 14.7775L4.853 14.0129C4.67757 13.6978 4.35862 13.491 4.00163 13.4609L3.13526 13.3879C2.55113 13.3387 2.11267 12.8283 2.14749 12.238L2.19914 11.3626C2.22043 11.0018 2.06293 10.6539 1.77873 10.4339L1.08903 9.90001C0.624015 9.54003 0.528729 8.8715 0.874372 8.39393L1.38701 7.68563C1.59825 7.39377 1.65221 7.01522 1.53104 6.67514L1.23698 5.84984C1.03872 5.29339 1.31686 4.67902 1.86358 4.46577L2.67446 4.1495C3.00859 4.01917 3.25687 3.73013 3.3372 3.37796L3.53214 2.5233C3.66358 1.94706 4.22684 1.58191 4.80106 1.70068L5.65272 1.87684C6.00366 1.94943 6.36743 1.84168 6.62375 1.58923L7.24581 0.97656Z" fill="#574EFA"/>
<path fill-rule="evenodd" clip-rule="evenodd" d="M11.1381 6.19534C11.3984 6.45569 11.3984 6.8778 11.1381 7.13815L7.7071 10.5691C7.31657 10.9596 6.68341 10.9596 6.29288 10.5691L4.86192 9.13815C4.60157 8.8778 4.60157 8.45569 4.86192 8.19534C5.12227 7.93499 5.54438 7.93499 5.80473 8.19534L6.99999 9.3906L10.1953 6.19534C10.4556 5.93499 10.8777 5.93499 11.1381 6.19534Z" fill="white"/>
</g>
<defs>
<clipPath id="clip0_0_9456">
<rect width="16" height="16" fill="white"/>
</clipPath>
</defs>
</svg>
