<svg width="16" height="16" viewBox="0 0 16 16" fill="none" xmlns="http://www.w3.org/2000/svg">
<g clip-path="url(#clip0_0_10490)">
<path d="M7.2459 0.976468C7.66531 0.563386 8.33486 0.563386 8.75427 0.976468L9.37632 1.58914C9.63264 1.84159 9.99641 1.94934 10.3474 1.87675L11.199 1.70059C11.7732 1.58182 12.3365 1.94697 12.4679 2.52321L12.6629 3.37787C12.7432 3.73004 12.9915 4.01908 13.3256 4.1494L14.1365 4.46568C14.6832 4.67893 14.9614 5.2933 14.7631 5.84975L14.469 6.67505C14.3479 7.01512 14.4018 7.39368 14.6131 7.68554L15.1257 8.39384C15.4713 8.8714 15.3761 9.53994 14.911 9.89992L14.2213 10.4338C13.9371 10.6538 13.7796 11.0017 13.8009 11.3625L13.8526 12.2379C13.8874 12.8282 13.4489 13.3386 12.8648 13.3878L11.9984 13.4609C11.6414 13.4909 11.3225 13.6977 11.1471 14.0128L10.7213 14.7774C10.4343 15.293 9.79185 15.4832 9.27406 15.2061L8.5061 14.795C8.18965 14.6256 7.81052 14.6256 7.49407 14.795L6.7261 15.2061C6.20831 15.4832 5.56589 15.293 5.27883 14.7774L4.85309 14.0128C4.67766 13.6977 4.35871 13.4909 4.00172 13.4609L3.13536 13.3878C2.55122 13.3386 2.11276 12.8282 2.14759 12.2379L2.19923 11.3625C2.22052 11.0017 2.06302 10.6538 1.77882 10.4338L1.08913 9.89992C0.624107 9.53994 0.528821 8.8714 0.874463 8.39384L1.38711 7.68554C1.59835 7.39368 1.6523 7.01512 1.53113 6.67505L1.23708 5.84975C1.03881 5.2933 1.31695 4.67893 1.86367 4.46568L2.67455 4.1494C3.00868 4.01908 3.25696 3.73004 3.33729 3.37787L3.53223 2.52321C3.66367 1.94697 4.22693 1.58182 4.80115 1.70059L5.65281 1.87675C6.00375 1.94934 6.36752 1.84159 6.62385 1.58914L7.2459 0.976468Z" fill="#574EFA"/>
<path fill-rule="evenodd" clip-rule="evenodd" d="M11.1382 6.19525C11.3985 6.4556 11.3985 6.87771 11.1382 7.13806L7.70719 10.569C7.31666 10.9595 6.6835 10.9595 6.29297 10.569L4.86201 9.13806C4.60166 8.87771 4.60166 8.4556 4.86201 8.19525C5.12236 7.9349 5.54447 7.9349 5.80482 8.19525L7.00008 9.39051L10.1953 6.19525C10.4557 5.9349 10.8778 5.9349 11.1382 6.19525Z" fill="white"/>
</g>
<defs>
<clipPath id="clip0_0_10490">
<rect width="16" height="16" fill="white"/>
</clipPath>
</defs>
</svg>
