<svg width="25" height="24" viewBox="0 0 25 24" fill="none" xmlns="http://www.w3.org/2000/svg">
<path d="M12.5 6V11.9995M12.5 11.9995L16.5 15M12.5 11.9995C12.5 11.9998 12.4997 11.9993 12.5 11.9995ZM1.78533 14.5C1.59868 13.6969 1.5 12.86 1.5 12C1.5 11.14 1.59868 10.3031 1.78533 9.5M10.5 1.18138C11.1486 1.06225 11.817 1 12.5 1C18.5751 1 23.5 5.92487 23.5 12C23.5 18.0751 18.5751 23 12.5 23C11.817 23 11.1486 22.9378 10.5 22.8186M7 2.4716C5.49963 3.33952 4.22328 4.55165 3.27893 6M3.27893 18C4.22328 19.4484 5.49963 20.6605 7 21.5284" stroke="#272D37" stroke-width="1.67" stroke-linecap="round"/>
</svg>
