<svg width="52" height="18" viewBox="0 0 52 18" fill="none" xmlns="http://www.w3.org/2000/svg">
<path d="M7.82723 4.81545V7.03874H0.178528V4.81545H7.82723ZM2.06688 1.89341H5.20259V13.3434C5.20259 13.7298 5.26611 14.0262 5.39316 14.2327C5.52598 14.4338 5.69922 14.5715 5.91289 14.6456C6.12656 14.7197 6.36332 14.7567 6.62319 14.7567C6.81953 14.7567 6.99855 14.7435 7.16024 14.717C7.32771 14.6906 7.45476 14.6667 7.54138 14.6456L8.06977 16.8927C7.9023 16.9456 7.66265 17.0039 7.35081 17.0674C7.04475 17.1309 6.66939 17.168 6.22473 17.1785C5.43936 17.1997 4.73195 17.0912 4.10249 16.853C3.47304 16.6095 2.97352 16.2336 2.60394 15.7255C2.24013 15.2173 2.06111 14.5821 2.06688 13.8198V1.89341Z" fill="#574EFA"/>
<path d="M15.9749 17.25C14.6756 17.25 13.5495 16.988 12.5967 16.4639C11.6438 15.9398 10.9047 15.2067 10.3792 14.2644C9.85942 13.3222 9.59956 12.2211 9.59956 10.9613C9.59956 9.7014 9.85942 8.59769 10.3792 7.65014C10.9047 6.7026 11.6438 5.96679 12.5967 5.44273C13.5495 4.91867 14.6756 4.65664 15.9749 4.65664C17.2742 4.65664 18.4003 4.91867 19.3532 5.44273C20.306 5.96679 21.0423 6.7026 21.562 7.65014C22.0875 8.59769 22.3503 9.7014 22.3503 10.9613C22.3503 12.2211 22.0875 13.3222 21.562 14.2644C21.0423 15.2067 20.306 15.9398 19.3532 16.4639C18.4003 16.988 17.2742 17.25 15.9749 17.25ZM15.9922 14.9473C16.6968 14.9473 17.2858 14.77 17.7593 14.4153C18.2329 14.0553 18.5851 13.5736 18.8161 12.9702C19.0529 12.3667 19.1713 11.6944 19.1713 10.9533C19.1713 10.2069 19.0529 9.532 18.8161 8.92854C18.5851 8.31978 18.2329 7.83542 17.7593 7.47546C17.2858 7.1155 16.6968 6.93552 15.9922 6.93552C15.2704 6.93552 14.6698 7.1155 14.1905 7.47546C13.717 7.83542 13.3618 8.31978 13.1251 8.92854C12.8941 9.532 12.7786 10.2069 12.7786 10.9533C12.7786 11.6944 12.8941 12.3667 13.1251 12.9702C13.3618 13.5736 13.717 14.0553 14.1905 14.4153C14.6698 14.77 15.2704 14.9473 15.9922 14.9473Z" fill="#574EFA"/>
<path d="M31.5201 4.81545V7.03874H23.8714V4.81545H31.5201ZM25.7598 1.89341H28.8955V13.3434C28.8955 13.7298 28.959 14.0262 29.086 14.2327C29.2189 14.4338 29.3921 14.5715 29.6058 14.6456C29.8194 14.7197 30.0562 14.7567 30.3161 14.7567C30.5124 14.7567 30.6914 14.7435 30.8531 14.717C31.0206 14.6906 31.1476 14.6667 31.2343 14.6456L31.7627 16.8927C31.5952 16.9456 31.3555 17.0039 31.0437 17.0674C30.7376 17.1309 30.3623 17.168 29.9176 17.1785C29.1322 17.1997 28.4248 17.0912 27.7954 16.853C27.1659 16.6095 26.6664 16.2336 26.2968 15.7255C25.933 15.2173 25.754 14.5821 25.7598 13.8198V1.89341Z" fill="#574EFA"/>
<path d="M39.7544 17.25C38.4204 17.25 37.2684 16.9959 36.2982 16.4877C35.3338 15.9743 34.5918 15.249 34.072 14.3121C33.5523 13.3698 33.2924 12.2608 33.2924 10.9851C33.2924 9.73051 33.5523 8.62945 34.072 7.68191C34.5975 6.72907 35.3309 5.98797 36.2722 5.45861C37.2135 4.92397 38.3194 4.65664 39.5898 4.65664C40.4099 4.65664 41.1837 4.77839 41.9113 5.0219C42.6447 5.26011 43.2915 5.63066 43.8516 6.13354C44.4176 6.63643 44.8622 7.27695 45.1856 8.0551C45.509 8.82796 45.6707 9.74904 45.6707 10.8183V11.6997H34.765V9.76227H42.6649C42.6591 9.21174 42.5292 8.72209 42.2751 8.29331C42.021 7.85924 41.6659 7.51781 41.2097 7.26901C40.7592 7.02021 40.2337 6.89581 39.6332 6.89581C38.9921 6.89581 38.4291 7.03874 37.944 7.32459C37.4589 7.60515 37.0807 7.9757 36.8093 8.43624C36.5436 8.89148 36.4079 9.39172 36.4022 9.93696V11.6283C36.4022 12.3376 36.5436 12.9463 36.8266 13.4545C37.1096 13.9574 37.5051 14.3438 38.0133 14.6138C38.5215 14.8785 39.1163 15.0108 39.7977 15.0108C40.2539 15.0108 40.6668 14.9526 41.0364 14.8361C41.406 14.7144 41.7265 14.5371 41.9979 14.3041C42.2693 14.0712 42.4743 13.7827 42.6129 13.4386L45.5408 13.7404C45.356 14.4497 45.0037 15.0691 44.484 15.5984C43.97 16.1225 43.3117 16.5301 42.509 16.8212C41.7063 17.1071 40.7881 17.25 39.7544 17.25Z" fill="#574EFA"/>
<path d="M51.3237 0.75V17.0118H48.188V0.75H51.3237Z" fill="#574EFA"/>
</svg>
