<svg width="52" height="18" viewBox="0 0 52 18" fill="none" xmlns="http://www.w3.org/2000/svg">
<path d="M8.24807 4.98146V7.20476H0.599365V4.98146H8.24807ZM2.48772 2.05942H5.62343V13.5094C5.62343 13.8958 5.68695 14.1922 5.81399 14.3987C5.94681 14.5998 6.12006 14.7375 6.33373 14.8116C6.54739 14.8857 6.78416 14.9228 7.04402 14.9228C7.24037 14.9228 7.41939 14.9095 7.58108 14.8831C7.74855 14.8566 7.87559 14.8328 7.96222 14.8116L8.49061 17.0587C8.32314 17.1116 8.08349 17.1699 7.77165 17.2334C7.46558 17.2969 7.09022 17.334 6.64557 17.3446C5.86019 17.3657 5.15278 17.2572 4.52333 17.019C3.89388 16.7755 3.39436 16.3997 3.02477 15.8915C2.66096 15.3833 2.48194 14.7481 2.48772 13.9858V2.05942Z" fill="#574EFA"/>
<path d="M16.3958 17.416C15.0964 17.416 13.9703 17.154 13.0175 16.6299C12.0647 16.1059 11.3255 15.3727 10.8 14.4305C10.2803 13.4882 10.0204 12.3871 10.0204 11.1273C10.0204 9.86741 10.2803 8.76371 10.8 7.81616C11.3255 6.86861 12.0647 6.13281 13.0175 5.60875C13.9703 5.08469 15.0964 4.82266 16.3958 4.82266C17.6951 4.82266 18.8212 5.08469 19.774 5.60875C20.7268 6.13281 21.4631 6.86861 21.9829 7.81616C22.5084 8.76371 22.7711 9.86741 22.7711 11.1273C22.7711 12.3871 22.5084 13.4882 21.9829 14.4305C21.4631 15.3727 20.7268 16.1059 19.774 16.6299C18.8212 17.154 17.6951 17.416 16.3958 17.416ZM16.4131 15.1133C17.1176 15.1133 17.7066 14.936 18.1802 14.5813C18.6537 14.2214 19.006 13.7396 19.237 13.1362C19.4737 12.5327 19.5921 11.8604 19.5921 11.1193C19.5921 10.3729 19.4737 9.69802 19.237 9.09455C19.006 8.4858 18.6537 8.00143 18.1802 7.64147C17.7066 7.28151 17.1176 7.10153 16.4131 7.10153C15.6912 7.10153 15.0907 7.28151 14.6113 7.64147C14.1378 8.00143 13.7827 8.4858 13.5459 9.09455C13.3149 9.69802 13.1994 10.3729 13.1994 11.1193C13.1994 11.8604 13.3149 12.5327 13.5459 13.1362C13.7827 13.7396 14.1378 14.2214 14.6113 14.5813C15.0907 14.936 15.6912 15.1133 16.4131 15.1133Z" fill="#574EFA"/>
<path d="M31.941 4.98146V7.20476H24.2922V4.98146H31.941ZM26.1806 2.05942H29.3163V13.5094C29.3163 13.8958 29.3798 14.1922 29.5069 14.3987C29.6397 14.5998 29.8129 14.7375 30.0266 14.8116C30.2403 14.8857 30.477 14.9228 30.7369 14.9228C30.9332 14.9228 31.1123 14.9095 31.274 14.8831C31.4414 14.8566 31.5685 14.8328 31.6551 14.8116L32.1835 17.0587C32.016 17.1116 31.7764 17.1699 31.4645 17.2334C31.1585 17.2969 30.7831 17.334 30.3384 17.3446C29.5531 17.3657 28.8457 17.2572 28.2162 17.019C27.5868 16.7755 27.0872 16.3997 26.7177 15.8915C26.3538 15.3833 26.1748 14.7481 26.1806 13.9858V2.05942Z" fill="#574EFA"/>
<path d="M40.1753 17.416C38.8413 17.416 37.6892 17.1619 36.7191 16.6537C35.7547 16.1403 35.0126 15.4151 34.4929 14.4781C33.9731 13.5358 33.7133 12.4268 33.7133 11.1511C33.7133 9.89653 33.9731 8.79547 34.4929 7.84792C35.0184 6.89508 35.7518 6.15399 36.6931 5.62463C37.6344 5.08998 38.7402 4.82266 40.0107 4.82266C40.8307 4.82266 41.6045 4.94441 42.3321 5.18791C43.0655 5.42612 43.7123 5.79667 44.2725 6.29956C44.8384 6.80245 45.2831 7.44297 45.6064 8.22112C45.9298 8.99398 46.0915 9.91505 46.0915 10.9844V11.8657H35.1858V9.92829H43.0857C43.08 9.37776 42.95 8.8881 42.696 8.45933C42.4419 8.02526 42.0867 7.68382 41.6305 7.43503C41.1801 7.18623 40.6546 7.06183 40.054 7.06183C39.413 7.06183 38.8499 7.20475 38.3649 7.49061C37.8798 7.77116 37.5015 8.14171 37.2301 8.60225C36.9645 9.0575 36.8288 9.55774 36.823 10.103V11.7943C36.823 12.5036 36.9645 13.1124 37.2474 13.6205C37.5304 14.1234 37.926 14.5099 38.4342 14.7798C38.9423 15.0445 39.5371 15.1768 40.2186 15.1768C40.6748 15.1768 41.0877 15.1186 41.4573 15.0022C41.8268 14.8804 42.1473 14.7031 42.4188 14.4702C42.6902 14.2372 42.8952 13.9487 43.0338 13.6047L45.9616 13.9064C45.7768 14.6157 45.4245 15.2351 44.9048 15.7644C44.3908 16.2885 43.7325 16.6961 42.9298 16.9872C42.1271 17.2731 41.2089 17.416 40.1753 17.416Z" fill="#574EFA"/>
<path d="M51.7445 0.916016V17.1778H48.6088V0.916016H51.7445Z" fill="#574EFA"/>
</svg>
