<svg width="23" height="29" viewBox="0 0 23 29" fill="none" xmlns="http://www.w3.org/2000/svg">
<path fill-rule="evenodd" clip-rule="evenodd" d="M21.6412 8.9023L20.1179 7.5422V3.35268C20.1179 2.86032 19.6659 2.45675 19.11 2.45675H17.5732C17.0218 2.45675 16.5698 2.86032 16.5698 3.35268V4.37418L12.2534 0.520148C11.7291 0.0479714 10.8703 0.0479714 10.346 0.520148L0.958215 8.9023C0.429389 9.37044 0 10.2986 0 10.9605V12.4376C4.95831 15.7267 11.0963 17.6719 17.7451 17.6719C19.3993 17.6719 21.022 17.5508 22.5994 17.3208V10.9605C22.5994 10.2986 22.17 9.37044 21.6412 8.9023ZM13.3559 22.9787V27.7126C13.3559 28.1162 13.9028 28.318 14.2237 28.0314L19.8826 22.9787H13.3559ZM0 13.7963C4.95831 17.0814 11.0963 19.0266 17.7451 19.0266C19.3993 19.0266 21.022 18.9055 22.5994 18.6755V21.7709C22.5994 22.4327 21.9892 22.9775 21.248 22.9775H1.35145C0.610185 22.9775 0 22.4327 0 21.7709V13.7963Z" fill="#574EFA"/>
</svg>
