<svg width="23" height="28" viewBox="0 0 23 28" fill="none" xmlns="http://www.w3.org/2000/svg">
<path fill-rule="evenodd" clip-rule="evenodd" d="M21.6412 8.73628L20.1179 7.37619V3.18666C20.1179 2.69431 19.6659 2.29074 19.11 2.29074H17.5732C17.0218 2.29074 16.5698 2.69431 16.5698 3.18666V4.20816L12.2534 0.354133C11.7291 -0.118044 10.8703 -0.118044 10.346 0.354133L0.958215 8.73628C0.429389 9.20442 0 10.1326 0 10.7945V12.2716C4.95831 15.5606 11.0963 17.5059 17.7451 17.5059C19.3993 17.5059 21.022 17.3848 22.5994 17.1548V10.7945C22.5994 10.1326 22.17 9.20442 21.6412 8.73628ZM13.3559 22.8127V27.5466C13.3559 27.9502 13.9028 28.152 14.2237 27.8654L19.8826 22.8127H13.3559ZM0 13.6303C4.95831 16.9154 11.0963 18.8606 17.7451 18.8606C19.3993 18.8606 21.022 18.7395 22.5994 18.5095V21.6048C22.5994 22.2667 21.9892 22.8115 21.248 22.8115H1.35145C0.610185 22.8115 0 22.2667 0 21.6048V13.6303Z" fill="#574EFA"/>
</svg>
