<svg width="21" height="29" viewBox="0 0 21 29" fill="none" xmlns="http://www.w3.org/2000/svg">
<path fill-rule="evenodd" clip-rule="evenodd" d="M19.323 8.90231L17.9625 7.54187V3.35293C17.9625 2.86058 17.5589 2.45701 17.0626 2.45701H15.6904C15.1981 2.45701 14.7945 2.86058 14.7945 3.35293V4.37384L10.9408 0.520149C10.4727 0.0479713 9.70587 0.0479713 9.23773 0.520149L0.85557 8.90231C0.383392 9.37045 0 10.2987 0 10.9605V12.4376C4.42717 15.7267 9.90765 17.6719 15.8442 17.6719C17.3212 17.6719 18.7701 17.5508 20.1785 17.3208V10.9605C20.1785 10.2987 19.7951 9.37045 19.323 8.90231ZM11.9249 22.9788V27.7126C11.9249 28.1162 12.4132 28.318 12.6998 28.0314L17.7524 22.9788H18.9718C19.6337 22.9788 20.1785 22.434 20.1785 21.7721V18.6767C18.7701 18.9068 17.3212 19.0278 15.8442 19.0278C9.90765 19.0278 4.42717 17.0826 0 13.7976V21.7721C0 22.434 0.544821 22.9788 1.20668 22.9788H11.9249Z" fill="#574EFA"/>
</svg>
