<svg width="22" height="23" viewBox="0 0 22 23" fill="none" xmlns="http://www.w3.org/2000/svg">
<g clip-path="url(#clip0_101_2215)">
<path d="M20.3763 21.9565C20.7668 22.3471 21.4 22.3471 21.7905 21.9565C22.181 21.566 22.181 20.9328 21.7905 20.5423L20.3763 21.9565ZM16.5246 9.38669C16.5246 13.4205 13.2545 16.6906 9.22067 16.6906V18.6906C14.3591 18.6906 18.5246 14.5251 18.5246 9.38669H16.5246ZM9.22067 16.6906C5.18683 16.6906 1.91675 13.4205 1.91675 9.38669H-0.083252C-0.083252 14.5251 4.08226 18.6906 9.22067 18.6906V16.6906ZM1.91675 9.38669C1.91675 5.35284 5.18683 2.08276 9.22067 2.08276V0.0827637C4.08226 0.0827637 -0.083252 4.24827 -0.083252 9.38669H1.91675ZM9.22067 2.08276C13.2545 2.08276 16.5246 5.35284 16.5246 9.38669H18.5246C18.5246 4.24827 14.3591 0.0827637 9.22067 0.0827637V2.08276ZM14.4449 16.0252L20.3763 21.9565L21.7905 20.5423L15.8591 14.611L14.4449 16.0252Z" fill="white"/>
</g>
<defs>
<clipPath id="clip0_101_2215">
<rect width="22" height="22" fill="white" transform="translate(0 0.166016)"/>
</clipPath>
</defs>
</svg>
