<svg width="22" height="22" viewBox="0 0 22 22" fill="none" xmlns="http://www.w3.org/2000/svg">
<g clip-path="url(#clip0_101_2245)">
<path d="M20.3762 21.7905C20.7667 22.181 21.3999 22.181 21.7904 21.7905C22.1809 21.4 22.1809 20.7668 21.7904 20.3763L20.3762 21.7905ZM16.5245 9.22067C16.5245 13.2545 13.2544 16.5246 9.22055 16.5246V18.5246C14.359 18.5246 18.5245 14.3591 18.5245 9.22067H16.5245ZM9.22055 16.5246C5.1867 16.5246 1.91663 13.2545 1.91663 9.22067H-0.083374C-0.083374 14.3591 4.08213 18.5246 9.22055 18.5246V16.5246ZM1.91663 9.22067C1.91663 5.18683 5.1867 1.91675 9.22055 1.91675V-0.083252C4.08213 -0.083252 -0.083374 4.08226 -0.083374 9.22067H1.91663ZM9.22055 1.91675C13.2544 1.91675 16.5245 5.18683 16.5245 9.22067H18.5245C18.5245 4.08226 14.359 -0.083252 9.22055 -0.083252V1.91675ZM14.4448 15.8591L20.3762 21.7905L21.7904 20.3763L15.859 14.4449L14.4448 15.8591Z" fill="white"/>
</g>
<defs>
<clipPath id="clip0_101_2245">
<rect width="22" height="22" fill="white"/>
</clipPath>
</defs>
</svg>
